RecursiveMonoVar-CasualMedium.ufo
<glyph name="exclam" format="1">
  <advance width="600"/>
  <unicode hex="0021"/>
  <outline>
    <contour>
      <point x="341" y="264" type="line"/>
      <point x="352" y="336"/>
      <point x="361" y="427"/>
      <point x="361" y="499" type="curve"/>
      <point x="361" y="656" type="line" smooth="yes"/>
      <point x="361" y="695"/>
      <point x="328" y="710"/>
      <point x="272" y="710" type="curve" smooth="yes"/>
      <point x="255" y="710"/>
      <point x="242" y="709"/>
      <point x="228" y="705" type="curve"/>
      <point x="235" y="670"/>
      <point x="238" y="634"/>
      <point x="238" y="595" type="curve" smooth="yes"/>
      <point x="238" y="501" type="line"/>
      <point x="238" y="400"/>
      <point x="246" y="303"/>
      <point x="264" y="285" type="curve" smooth="yes"/>
      <point x="278" y="271"/>
      <point x="301" y="264"/>
      <point x="332" y="264" type="curve"/>
    </contour>
    <contour>
      <point x="382" y="2" type="curve"/>
      <point x="382" y="101" type="line" smooth="yes"/>
      <point x="382" y="149"/>
      <point x="337" y="164"/>
      <point x="282" y="164" type="curve" smooth="yes"/>
      <point x="259" y="164"/>
      <point x="236" y="161"/>
      <point x="218" y="154" type="curve"/>
      <point x="218" y="55" type="line" smooth="yes"/>
      <point x="218" y="7"/>
      <point x="263" y="-8"/>
      <point x="318" y="-8" type="curve" smooth="yes"/>
      <point x="341" y="-8"/>
      <point x="364" y="-4"/>
    </contour>
  </outline>
</glyph>
<glyph name="dollar" format="1">
  <advance width="600"/>
  <unicode hex="0024"/>
  <outline>
    <contour>
      <point x="373" y="720" type="curve" smooth="yes"/>
      <point x="209" y="720"/>
      <point x="80" y="617"/>
      <point x="80" y="500" type="curve" smooth="yes"/>
      <point x="80" y="489" type="line" smooth="yes"/>
      <point x="80" y="462"/>
      <point x="131" y="437"/>
      <point x="180" y="434" type="curve"/>
      <point x="174" y="456"/>
      <point x="174" y="478"/>
      <point x="174" y="499" type="curve" smooth="yes"/>
      <point x="174" y="569"/>
      <point x="277" y="622"/>
      <point x="378" y="622" type="curve" smooth="yes"/>
      <point x="442" y="622"/>
      <point x="479" y="608"/>
      <point x="515" y="584" type="curve"/>
      <point x="519" y="584" type="line"/>
      <point x="527" y="601"/>
      <point x="531" y="618"/>
      <point x="531" y="634" type="curve" smooth="yes"/>
      <point x="531" y="653"/>
      <point x="529" y="671"/>
      <point x="515" y="684" type="curve" smooth="yes"/>
      <point x="493" y="707"/>
      <point x="444" y="720"/>
    </contour>
    <contour>
      <point x="380" y="358" type="curve" smooth="yes"/>
      <point x="291" y="390" type="line" smooth="yes"/>
      <point x="188" y="428"/>
      <point x="174" y="459"/>
      <point x="174" y="499" type="curve" smooth="yes"/>
      <point x="174" y="524"/>
      <point x="175" y="542"/>
      <point x="181" y="566" type="curve"/>
      <point x="129" y="561"/>
      <point x="80" y="541"/>
      <point x="80" y="489" type="curve" smooth="yes"/>
      <point x="80" y="420"/>
      <point x="116" y="360"/>
      <point x="262" y="306" type="curve" smooth="yes"/>
      <point x="351" y="273" type="line" smooth="yes"/>
      <point x="431" y="243"/>
      <point x="456" y="207"/>
      <point x="456" y="140" type="curve" smooth="yes"/>
      <point x="456" y="128"/>
      <point x="456" y="122"/>
      <point x="456" y="118" type="curve"/>
      <point x="493" y="121"/>
      <point x="541" y="157"/>
      <point x="541" y="183" type="curve"/>
      <point x="541" y="245"/>
      <point x="499" y="314"/>
    </contour>
    <contour>
      <point x="300" y="-16" type="curve" smooth="yes"/>
      <point x="452" y="-16"/>
      <point x="541" y="63"/>
      <point x="541" y="173" type="curve" smooth="yes"/>
      <point x="541" y="183" type="line" smooth="yes"/>
      <point x="541" y="206"/>
      <point x="504" y="228"/>
      <point x="478" y="230" type="curve"/>
      <point x="478" y="226"/>
      <point x="478" y="222"/>
      <point x="478" y="214" type="curve" smooth="yes"/>
      <point x="478" y="138"/>
      <point x="405" y="83"/>
      <point x="300" y="83" type="curve" smooth="yes"/>
      <point x="197" y="83"/>
      <point x="127" y="113"/>
      <point x="74" y="173" type="curve"/>
      <point x="70" y="173" type="line"/>
      <point x="67" y="158"/>
      <point x="64" y="143"/>
      <point x="64" y="124" type="curve" smooth="yes"/>
      <point x="64" y="88"/>
      <point x="73" y="62"/>
      <point x="90" y="45" type="curve" smooth="yes"/>
      <point x="127" y="7"/>
      <point x="207" y="-16"/>
    </contour>
    <contour>
      <point x="351" y="421" type="line"/>
      <point x="409" y="800" type="line" smooth="yes"/>
      <point x="420" y="856"/>
      <point x="400" y="885"/>
      <point x="348" y="885" type="curve" smooth="yes"/>
      <point x="336" y="885"/>
      <point x="318" y="882"/>
      <point x="307" y="878" type="curve"/>
      <point x="315" y="852"/>
      <point x="320" y="827"/>
      <point x="318" y="785" type="curve"/>
      <point x="304" y="459" type="line" smooth="yes"/>
      <point x="303" y="435"/>
      <point x="324" y="421"/>
      <point x="347" y="421" type="curve" smooth="yes"/>
    </contour>
    <contour>
      <point x="277" y="244" type="line"/>
      <point x="219" y="-110" type="line" smooth="yes"/>
      <point x="208" y="-166"/>
      <point x="229" y="-195"/>
      <point x="281" y="-195" type="curve" smooth="yes"/>
      <point x="293" y="-195"/>
      <point x="311" y="-192"/>
      <point x="322" y="-188" type="curve"/>
      <point x="314" y="-162"/>
      <point x="309" y="-137"/>
      <point x="310" y="-95" type="curve"/>
      <point x="323" y="206" type="line" smooth="yes"/>
      <point x="324" y="230"/>
      <point x="304" y="244"/>
      <point x="281" y="244" type="curve" smooth="yes"/>
    </contour>
  </outline>
</glyph>
<glyph name="ampersand" format="1">
  <advance width="600"/>
  <unicode hex="0026"/>
  <outline>
    <contour>
      <point x="322" y="710" type="curve" smooth="yes"/>
      <point x="198" y="710"/>
      <point x="112" y="625"/>
      <point x="112" y="533" type="curve" smooth="yes"/>
      <point x="112" y="503"/>
      <point x="133" y="471"/>
      <point x="191" y="471" type="curve"/>
      <point x="188" y="483"/>
      <point x="187" y="491"/>
      <point x="187" y="506" type="curve" smooth="yes"/>
      <point x="187" y="566"/>
      <point x="242" y="611"/>
      <point x="323" y="611" type="curve" smooth="yes"/>
      <point x="389" y="611"/>
      <point x="434" y="597"/>
      <point x="468" y="571" type="curve"/>
      <point x="472" y="571" type="line"/>
      <point x="477" y="583"/>
      <point x="480" y="597"/>
      <point x="480" y="614" type="curve"/>
      <point x="480" y="641"/>
      <point x="473" y="663"/>
      <point x="458" y="678" type="curve" smooth="yes"/>
      <point x="438" y="697"/>
      <point x="394" y="710"/>
    </contour>
    <contour>
      <point x="249" y="370" type="curve" smooth="yes"/>
      <point x="219" y="429"/>
      <point x="204" y="487"/>
      <point x="204" y="528" type="curve" smooth="yes"/>
      <point x="204" y="565"/>
      <point x="210" y="589"/>
      <point x="227" y="619" type="curve"/>
      <point x="172" y="634"/>
      <point x="112" y="592"/>
      <point x="112" y="533" type="curve" smooth="yes"/>
      <point x="112" y="530" type="line" smooth="yes"/>
      <point x="112" y="473"/>
      <point x="134" y="407"/>
      <point x="171" y="336" type="curve" smooth="yes"/>
      <point x="220" y="245"/>
      <point x="290" y="151"/>
      <point x="358" y="83" type="curve" smooth="yes"/>
      <point x="430" y="11"/>
      <point x="477" y="-10"/>
      <point x="516" y="-10" type="curve" smooth="yes"/>
      <point x="520" y="-10" type="line" smooth="yes"/>
      <point x="558" y="-10"/>
      <point x="575" y="11"/>
      <point x="575" y="61" type="curve" smooth="yes"/>
      <point x="575" y="79"/>
      <point x="573" y="95"/>
      <point x="570" y="108" type="curve"/>
      <point x="566" y="108" type="line"/>
      <point x="554" y="97"/>
      <point x="542" y="93"/>
      <point x="521" y="93" type="curve" smooth="yes"/>
      <point x="488" y="93"/>
      <point x="444" y="117"/>
      <point x="405" y="156" type="curve" smooth="yes"/>
      <point x="343" y="218"/>
      <point x="285" y="298"/>
    </contour>
    <contour>
      <point x="209" y="-10" type="curve" smooth="yes"/>
      <point x="297" y="-10"/>
      <point x="348" y="25"/>
      <point x="380" y="77" type="curve" smooth="yes"/>
      <point x="389" y="94"/>
      <point x="374" y="123"/>
      <point x="347" y="138" type="curve"/>
      <point x="313" y="96"/>
      <point x="281" y="79"/>
      <point x="222" y="79" type="curve" smooth="yes"/>
      <point x="160" y="79"/>
      <point x="126" y="125"/>
      <point x="126" y="183" type="curve" smooth="yes"/>
      <point x="126" y="186" type="line" smooth="yes"/>
      <point x="126" y="252"/>
      <point x="169" y="284"/>
      <point x="233" y="296" type="curve"/>
      <point x="225" y="321"/>
      <point x="209" y="361"/>
      <point x="184" y="356" type="curve" smooth="yes"/>
      <point x="113" y="340"/>
      <point x="33" y="282"/>
      <point x="33" y="168" type="curve" smooth="yes"/>
      <point x="33" y="164" type="line" smooth="yes"/>
      <point x="33" y="63"/>
      <point x="99" y="-10"/>
    </contour>
    <contour>
      <point x="453" y="401" type="curve" smooth="yes"/>
      <point x="443" y="401"/>
      <point x="435" y="400"/>
      <point x="429" y="399" type="curve"/>
      <point x="429" y="388"/>
      <point x="429" y="378"/>
      <point x="429" y="367" type="curve" smooth="yes"/>
      <point x="429" y="289"/>
      <point x="413" y="231"/>
      <point x="373" y="172" type="curve" smooth="yes"/>
      <point x="360" y="152"/>
      <point x="387" y="127"/>
      <point x="421" y="123" type="curve"/>
      <point x="494" y="197"/>
      <point x="529" y="274"/>
      <point x="529" y="344" type="curve" smooth="yes"/>
      <point x="529" y="356" type="line" smooth="yes"/>
      <point x="529" y="385"/>
      <point x="501" y="401"/>
    </contour>
  </outline>
</glyph>
<glyph name="quotesingle" format="1">
  <advance width="600"/>
  <unicode hex="0027"/>
  <outline>
    <contour>
      <point x="347" y="442" type="curve"/>
      <point x="359" y="659" type="line" smooth="yes"/>
      <point x="363" y="725"/>
      <point x="334" y="754"/>
      <point x="262" y="754" type="curve" smooth="yes"/>
      <point x="249" y="754"/>
      <point x="237" y="752"/>
      <point x="226" y="750" type="curve"/>
      <point x="235" y="726"/>
      <point x="238" y="708"/>
      <point x="241" y="654" type="curve" smooth="yes"/>
      <point x="251" y="486" type="line" smooth="yes"/>
      <point x="253" y="452"/>
      <point x="270" y="439"/>
      <point x="315" y="439" type="curve" smooth="yes"/>
      <point x="327" y="439"/>
      <point x="339" y="440"/>
    </contour>
  </outline>
</glyph>
<glyph name="parenleft" format="1">
  <advance width="600"/>
  <unicode hex="0028"/>
  <outline>
    <contour>
      <point x="366" y="740" type="curve" smooth="yes"/>
      <point x="260" y="633"/>
      <point x="200" y="478"/>
      <point x="200" y="302" type="curve" smooth="yes"/>
      <point x="200" y="296" type="line" smooth="yes"/>
      <point x="200" y="120"/>
      <point x="260" y="-36"/>
      <point x="366" y="-142" type="curve" smooth="yes"/>
      <point x="387" y="-163"/>
      <point x="406" y="-172"/>
      <point x="429" y="-172" type="curve" smooth="yes"/>
      <point x="460" y="-172"/>
      <point x="480" y="-162"/>
      <point x="496" y="-149" type="curve"/>
      <point x="496" y="-145" type="line"/>
      <point x="375" y="-29"/>
      <point x="311" y="125"/>
      <point x="311" y="296" type="curve" smooth="yes"/>
      <point x="311" y="302" type="line" smooth="yes"/>
      <point x="311" y="471"/>
      <point x="374" y="627"/>
      <point x="496" y="742" type="curve"/>
      <point x="496" y="746" type="line"/>
      <point x="480" y="760"/>
      <point x="460" y="770"/>
      <point x="429" y="770" type="curve" smooth="yes"/>
      <point x="406" y="770"/>
      <point x="387" y="761"/>
    </contour>
  </outline>
</glyph>
<glyph name="parenright" format="1">
  <advance width="600"/>
  <unicode hex="0029"/>
  <outline>
    <contour>
      <point x="234" y="-142" type="curve" smooth="yes"/>
      <point x="340" y="-36"/>
      <point x="400" y="120"/>
      <point x="400" y="296" type="curve" smooth="yes"/>
      <point x="400" y="302" type="line" smooth="yes"/>
      <point x="400" y="478"/>
      <point x="340" y="634"/>
      <point x="234" y="740" type="curve" smooth="yes"/>
      <point x="213" y="761"/>
      <point x="194" y="770"/>
      <point x="171" y="770" type="curve" smooth="yes"/>
      <point x="140" y="770"/>
      <point x="120" y="760"/>
      <point x="104" y="746" type="curve"/>
      <point x="104" y="742" type="line"/>
      <point x="225" y="627"/>
      <point x="289" y="472"/>
      <point x="289" y="302" type="curve" smooth="yes"/>
      <point x="289" y="296" type="line" smooth="yes"/>
      <point x="289" y="126"/>
      <point x="226" y="-29"/>
      <point x="104" y="-145" type="curve"/>
      <point x="104" y="-149" type="line"/>
      <point x="120" y="-162"/>
      <point x="140" y="-172"/>
      <point x="171" y="-172" type="curve" smooth="yes"/>
      <point x="194" y="-172"/>
      <point x="213" y="-163"/>
    </contour>
  </outline>
</glyph>
<glyph name="asterisk" format="1">
  <advance width="600"/>
  <unicode hex="002A"/>
  <outline>
    <contour>
      <point x="243" y="570" type="curve"/>
      <point x="251" y="547"/>
      <point x="258" y="526"/>
      <point x="261" y="494" type="curve" smooth="yes"/>
      <point x="279" y="309" type="line"/>
      <point x="253" y="130" type="line" smooth="yes"/>
      <point x="242" y="74"/>
      <point x="261" y="43"/>
      <point x="317" y="43" type="curve"/>
      <point x="331" y="43"/>
      <point x="345" y="45"/>
      <point x="359" y="49" type="curve"/>
      <point x="351" y="72"/>
      <point x="345" y="93"/>
      <point x="341" y="124" type="curve" smooth="yes"/>
      <point x="324" y="309" type="line"/>
      <point x="350" y="489" type="line" smooth="yes"/>
      <point x="360" y="545"/>
      <point x="341" y="577"/>
      <point x="285" y="577" type="curve" smooth="yes"/>
      <point x="271" y="576"/>
      <point x="258" y="574"/>
    </contour>
    <contour>
      <point x="505" y="483" type="curve"/>
      <point x="286" y="330" type="line"/>
      <point x="87" y="242" type="line" smooth="yes"/>
      <point x="61" y="231"/>
      <point x="57" y="200"/>
      <point x="75" y="169" type="curve"/>
      <point x="82" y="157"/>
      <point x="90" y="148"/>
      <point x="99" y="139" type="curve"/>
      <point x="316" y="292" type="line"/>
      <point x="516" y="381" type="line" smooth="yes"/>
      <point x="543" y="392"/>
      <point x="546" y="420"/>
      <point x="527" y="453" type="curve" smooth="yes"/>
      <point x="522" y="463"/>
      <point x="516" y="471"/>
    </contour>
    <contour>
      <point x="551" y="222" type="curve"/>
      <point x="316" y="330" type="line"/>
      <point x="134" y="460" type="line" smooth="yes"/>
      <point x="110" y="479"/>
      <point x="84" y="468"/>
      <point x="65" y="436" type="curve"/>
      <point x="58" y="425"/>
      <point x="55" y="412"/>
      <point x="51" y="401" type="curve"/>
      <point x="285" y="292" type="line"/>
      <point x="468" y="160" type="line" smooth="yes"/>
      <point x="492" y="142"/>
      <point x="518" y="153"/>
      <point x="537" y="187" type="curve"/>
      <point x="543" y="198"/>
      <point x="547" y="207"/>
    </contour>
  </outline>
</glyph>
<glyph name="comma" format="1">
  <advance width="600"/>
  <unicode hex="002C"/>
  <outline>
    <contour>
      <point x="258" y="-195" type="curve" smooth="yes"/>
      <point x="274" y="-195"/>
      <point x="283" y="-192"/>
      <point x="291" y="-183" type="curve"/>
      <point x="345" y="-130"/>
      <point x="394" y="-20"/>
      <point x="394" y="90" type="curve"/>
      <point x="394" y="131"/>
      <point x="365" y="146"/>
      <point x="311" y="146" type="curve" smooth="yes"/>
      <point x="291" y="146"/>
      <point x="278" y="144"/>
      <point x="259" y="139" type="curve"/>
      <point x="259" y="-3"/>
      <point x="239" y="-84"/>
      <point x="185" y="-172" type="curve"/>
      <point x="206" y="-188"/>
      <point x="226" y="-195"/>
    </contour>
  </outline>
</glyph>
<glyph name="hyphen" format="1">
  <advance width="600"/>
  <unicode hex="002D"/>
  <outline>
    <contour>
      <point x="105" y="349" type="line"/>
      <point x="105" y="344"/>
      <point x="105" y="339"/>
      <point x="105" y="334" type="curve" smooth="yes"/>
      <point x="105" y="297"/>
      <point x="111" y="275"/>
      <point x="123" y="263" type="curve" smooth="yes"/>
      <point x="132" y="254"/>
      <point x="144" y="250"/>
      <point x="169" y="250" type="curve"/>
      <point x="497" y="250" type="line"/>
      <point x="499" y="262"/>
      <point x="501" y="275"/>
      <point x="501" y="286" type="curve" smooth="yes"/>
      <point x="501" y="329"/>
      <point x="490" y="349"/>
      <point x="453" y="349" type="curve"/>
    </contour>
  </outline>
</glyph>
<glyph name="period" format="1">
  <advance width="600"/>
  <unicode hex="002E"/>
  <outline>
    <contour>
      <point x="382" y="2" type="curve"/>
      <point x="382" y="101" type="line" smooth="yes"/>
      <point x="382" y="149"/>
      <point x="337" y="164"/>
      <point x="282" y="164" type="curve" smooth="yes"/>
      <point x="259" y="164"/>
      <point x="236" y="161"/>
      <point x="218" y="154" type="curve"/>
      <point x="218" y="55" type="line" smooth="yes"/>
      <point x="218" y="7"/>
      <point x="263" y="-8"/>
      <point x="318" y="-8" type="curve" smooth="yes"/>
      <point x="341" y="-8"/>
      <point x="364" y="-4"/>
    </contour>
  </outline>
</glyph>
<glyph name="zero" format="1">
  <advance width="600"/>
  <unicode hex="0030"/>
  <outline>
    <contour>
      <point x="303" y="720" type="curve" smooth="yes"/>
      <point x="166" y="720"/>
      <point x="63" y="586"/>
      <point x="63" y="358" type="curve" smooth="yes"/>
      <point x="63" y="313" type="line" smooth="yes"/>
      <point x="63" y="103"/>
      <point x="159" y="-20"/>
      <point x="297" y="-20" type="curve"/>
      <point x="329" y="-20"/>
      <point x="346" y="8"/>
      <point x="346" y="41" type="curve"/>
      <point x="202" y="51"/>
      <point x="161" y="166"/>
      <point x="161" y="299" type="curve" smooth="yes"/>
      <point x="161" y="343" type="line" smooth="yes"/>
      <point x="161" y="502"/>
      <point x="214" y="622"/>
      <point x="316" y="622" type="curve" smooth="yes"/>
      <point x="365" y="622"/>
      <point x="385" y="615"/>
      <point x="417" y="598" type="curve"/>
      <point x="440" y="635"/>
      <point x="379" y="720"/>
    </contour>
    <contour>
      <point x="297" y="-20" type="curve" smooth="yes"/>
      <point x="435" y="-20"/>
      <point x="537" y="104"/>
      <point x="537" y="318" type="curve" smooth="yes"/>
      <point x="537" y="363" type="line" smooth="yes"/>
      <point x="537" y="588"/>
      <point x="441" y="720"/>
      <point x="303" y="720" type="curve"/>
      <point x="271" y="720"/>
      <point x="254" y="692"/>
      <point x="254" y="659" type="curve"/>
      <point x="398" y="649"/>
      <point x="439" y="527"/>
      <point x="439" y="377" type="curve" smooth="yes"/>
      <point x="439" y="333" type="line" smooth="yes"/>
      <point x="439" y="188"/>
      <point x="386" y="78"/>
      <point x="284" y="78" type="curve" smooth="yes"/>
      <point x="235" y="78"/>
      <point x="215" y="85"/>
      <point x="183" y="102" type="curve"/>
      <point x="160" y="61"/>
      <point x="222" y="-20"/>
    </contour>
    <contour>
      <point x="145" y="161" type="curve"/>
      <point x="269" y="253"/>
      <point x="361" y="342"/>
      <point x="453" y="465" type="curve"/>
      <point x="474" y="492"/>
      <point x="474" y="531"/>
      <point x="447" y="559" type="curve"/>
      <point x="341" y="414"/>
      <point x="248" y="323"/>
      <point x="130" y="229" type="curve" smooth="yes"/>
      <point x="114" y="217"/>
      <point x="124" y="184"/>
    </contour>
  </outline>
</glyph>
<glyph name="one" format="1">
  <advance width="600"/>
  <unicode hex="0031"/>
  <outline>
    <contour>
      <point x="384" y="50" type="curve"/>
      <point x="384" y="260"/>
      <point x="384" y="469"/>
      <point x="384" y="676" type="curve" smooth="yes"/>
      <point x="384" y="702"/>
      <point x="347" y="710"/>
      <point x="303" y="710" type="curve" smooth="yes"/>
      <point x="286" y="710" type="line"/>
      <point x="286" y="529"/>
      <point x="286" y="344"/>
      <point x="286" y="163" type="curve" smooth="yes"/>
      <point x="286" y="80"/>
      <point x="327" y="50"/>
    </contour>
    <contour>
      <point x="79" y="98" type="line"/>
      <point x="78" y="93"/>
      <point x="78" y="88"/>
      <point x="78" y="81" type="curve" smooth="yes"/>
      <point x="78" y="47"/>
      <point x="83" y="26"/>
      <point x="95" y="13" type="curve" smooth="yes"/>
      <point x="105" y="3"/>
      <point x="117" y="0"/>
      <point x="145" y="0" type="curve" smooth="yes"/>
      <point x="555" y="0" type="line"/>
      <point x="557" y="8"/>
      <point x="558" y="16"/>
      <point x="558" y="25" type="curve" smooth="yes"/>
      <point x="558" y="67"/>
      <point x="487" y="98"/>
      <point x="367" y="98" type="curve" smooth="yes"/>
    </contour>
    <contour>
      <point x="122" y="443" type="curve" smooth="yes"/>
      <point x="149" y="443"/>
      <point x="196" y="474"/>
      <point x="232" y="510" type="curve" smooth="yes"/>
      <point x="278" y="556"/>
      <point x="311" y="622"/>
      <point x="311" y="667" type="curve" smooth="yes"/>
      <point x="311" y="696"/>
      <point x="299" y="710"/>
      <point x="288" y="710" type="curve"/>
      <point x="273" y="710" type="line"/>
      <point x="251" y="675"/>
      <point x="229" y="645"/>
      <point x="200" y="615" type="curve"/>
      <point x="164" y="580"/>
      <point x="128" y="554"/>
      <point x="87" y="534" type="curve"/>
      <point x="87" y="519" type="line" smooth="yes"/>
      <point x="87" y="468"/>
      <point x="104" y="443"/>
    </contour>
  </outline>
</glyph>
<glyph name="two" format="1">
  <advance width="600"/>
  <unicode hex="0032"/>
  <outline>
    <contour>
      <point x="369" y="639" type="curve"/>
      <point x="406" y="602"/>
      <point x="422" y="577"/>
      <point x="422" y="526" type="curve" smooth="yes"/>
      <point x="422" y="452"/>
      <point x="382" y="396"/>
      <point x="273" y="327" type="curve" smooth="yes"/>
      <point x="138" y="241"/>
      <point x="63" y="169"/>
      <point x="63" y="79" type="curve" smooth="yes"/>
      <point x="63" y="54"/>
      <point x="84" y="45"/>
      <point x="144" y="45" type="curve"/>
      <point x="144" y="125"/>
      <point x="177" y="166"/>
      <point x="325" y="255" type="curve" smooth="yes"/>
      <point x="452" y="333"/>
      <point x="522" y="414"/>
      <point x="522" y="521" type="curve" smooth="yes"/>
      <point x="522" y="526" type="line" smooth="yes"/>
      <point x="522" y="611"/>
      <point x="462" y="674"/>
    </contour>
    <contour>
      <point x="535" y="0" type="line"/>
      <point x="537" y="11"/>
      <point x="538" y="24"/>
      <point x="538" y="36" type="curve" smooth="yes"/>
      <point x="538" y="79"/>
      <point x="527" y="98"/>
      <point x="491" y="98" type="curve" smooth="yes"/>
      <point x="162" y="98" type="line" smooth="yes"/>
      <point x="121" y="98"/>
      <point x="91" y="94"/>
      <point x="63" y="79" type="curve"/>
      <point x="63" y="77"/>
      <point x="63" y="76"/>
      <point x="63" y="75" type="curve" smooth="yes"/>
      <point x="63" y="44"/>
      <point x="86" y="0"/>
      <point x="110" y="0" type="curve" smooth="yes"/>
    </contour>
    <contour>
      <point x="305" y="720" type="curve" smooth="yes"/>
      <point x="227" y="720"/>
      <point x="166" y="698"/>
      <point x="131" y="663" type="curve" smooth="yes"/>
      <point x="103" y="636"/>
      <point x="87" y="598"/>
      <point x="87" y="559" type="curve" smooth="yes"/>
      <point x="87" y="536"/>
      <point x="96" y="516"/>
      <point x="108" y="505" type="curve"/>
      <point x="112" y="505" type="line"/>
      <point x="152" y="584"/>
      <point x="218" y="622"/>
      <point x="308" y="622" type="curve" smooth="yes"/>
      <point x="401" y="622"/>
      <point x="460" y="578"/>
      <point x="460" y="519" type="curve" smooth="yes"/>
      <point x="460" y="499"/>
      <point x="457" y="481"/>
      <point x="451" y="462" type="curve"/>
      <point x="492" y="462"/>
      <point x="522" y="491"/>
      <point x="522" y="526" type="curve" smooth="yes"/>
      <point x="522" y="644"/>
      <point x="433" y="720"/>
    </contour>
  </outline>
</glyph>
<glyph name="three" format="1">
  <advance width="600"/>
  <unicode hex="0033"/>
  <outline>
    <contour>
      <point x="290" y="621" type="curve" smooth="yes"/>
      <point x="404" y="621"/>
      <point x="462" y="562"/>
      <point x="462" y="482" type="curve" smooth="yes"/>
      <point x="462" y="473"/>
      <point x="461" y="462"/>
      <point x="458" y="451" type="curve"/>
      <point x="487" y="452"/>
      <point x="527" y="502"/>
      <point x="527" y="533" type="curve" smooth="yes"/>
      <point x="527" y="544" type="line" smooth="yes"/>
      <point x="527" y="645"/>
      <point x="440" y="719"/>
      <point x="300" y="719" type="curve" smooth="yes"/>
      <point x="213" y="719"/>
      <point x="143" y="691"/>
      <point x="111" y="659" type="curve" smooth="yes"/>
      <point x="87" y="636"/>
      <point x="80" y="617"/>
      <point x="80" y="579" type="curve" smooth="yes"/>
      <point x="80" y="559"/>
      <point x="81" y="545"/>
      <point x="87" y="528" type="curve"/>
      <point x="91" y="528" type="line"/>
      <point x="143" y="592"/>
      <point x="200" y="621"/>
    </contour>
    <contour>
      <point x="207" y="310" type="curve" smooth="yes"/>
      <point x="409" y="310"/>
      <point x="526" y="418"/>
      <point x="526" y="533" type="curve" smooth="yes"/>
      <point x="526" y="565"/>
      <point x="472" y="598"/>
      <point x="441" y="600" type="curve"/>
      <point x="442" y="590"/>
      <point x="442" y="582"/>
      <point x="442" y="569" type="curve" smooth="yes"/>
      <point x="442" y="434"/>
      <point x="334" y="371"/>
      <point x="174" y="371" type="curve"/>
      <point x="171" y="359"/>
      <point x="170" y="351"/>
      <point x="170" y="336" type="curve" smooth="yes"/>
      <point x="170" y="319"/>
      <point x="193" y="310"/>
    </contour>
    <contour>
      <point x="204" y="281" type="curve" smooth="yes"/>
      <point x="345" y="277"/>
      <point x="453" y="229"/>
      <point x="453" y="143" type="curve" smooth="yes"/>
      <point x="453" y="132"/>
      <point x="453" y="126"/>
      <point x="452" y="118" type="curve"/>
      <point x="490" y="121"/>
      <point x="537" y="144"/>
      <point x="537" y="166" type="curve" smooth="yes"/>
      <point x="537" y="287"/>
      <point x="395" y="348"/>
      <point x="174" y="348" type="curve"/>
      <point x="172" y="343"/>
      <point x="170" y="341"/>
      <point x="170" y="336" type="curve" smooth="yes"/>
      <point x="170" y="301"/>
      <point x="178" y="282"/>
    </contour>
    <contour>
      <point x="290" y="78" type="curve" smooth="yes"/>
      <point x="193" y="78"/>
      <point x="130" y="106"/>
      <point x="75" y="171" type="curve"/>
      <point x="71" y="171" type="line"/>
      <point x="66" y="155"/>
      <point x="65" y="141"/>
      <point x="65" y="120" type="curve" smooth="yes"/>
      <point x="65" y="84"/>
      <point x="71" y="63"/>
      <point x="92" y="42" type="curve" smooth="yes"/>
      <point x="129" y="5"/>
      <point x="207" y="-20"/>
      <point x="300" y="-20" type="curve" smooth="yes"/>
      <point x="446" y="-20"/>
      <point x="537" y="54"/>
      <point x="537" y="156" type="curve" smooth="yes"/>
      <point x="537" y="166" type="line" smooth="yes"/>
      <point x="537" y="197"/>
      <point x="496" y="237"/>
      <point x="468" y="239" type="curve"/>
      <point x="469" y="231"/>
      <point x="469" y="222"/>
      <point x="469" y="212" type="curve" smooth="yes"/>
      <point x="469" y="130"/>
      <point x="412" y="78"/>
    </contour>
  </outline>
</glyph>
<glyph name="five" format="1">
  <advance width="599"/>
  <unicode hex="0035"/>
  <outline>
    <contour>
      <point x="99" y="700" type="line"/>
      <point x="99" y="694"/>
      <point x="99" y="688"/>
      <point x="99" y="681" type="curve" smooth="yes"/>
      <point x="99" y="645"/>
      <point x="104" y="627"/>
      <point x="118" y="614" type="curve" smooth="yes"/>
      <point x="127" y="604"/>
      <point x="139" y="602"/>
      <point x="158" y="602" type="curve" smooth="yes"/>
      <point x="512" y="602" type="line"/>
      <point x="514" y="611"/>
      <point x="515" y="625"/>
      <point x="515" y="637" type="curve" smooth="yes"/>
      <point x="515" y="681"/>
      <point x="504" y="700"/>
      <point x="468" y="700" type="curve" smooth="yes"/>
    </contour>
    <contour>
      <point x="183" y="295" type="line"/>
      <point x="248" y="663" type="line" smooth="yes"/>
      <point x="253" y="687"/>
      <point x="227" y="700"/>
      <point x="180" y="700" type="curve" smooth="yes"/>
      <point x="160" y="700" type="line"/>
      <point x="95" y="328" type="line" smooth="yes"/>
      <point x="91" y="304"/>
      <point x="123" y="295"/>
      <point x="175" y="295" type="curve" smooth="yes"/>
    </contour>
    <contour>
      <point x="147" y="379" type="curve"/>
      <point x="138" y="324"/>
      <point x="155" y="295"/>
      <point x="183" y="295" type="curve"/>
      <point x="185" y="295"/>
      <point x="187" y="295"/>
      <point x="189" y="295" type="curve" smooth="yes"/>
      <point x="361" y="295"/>
      <point x="465" y="253"/>
      <point x="465" y="148" type="curve" smooth="yes"/>
      <point x="465" y="132"/>
      <point x="464" y="122"/>
      <point x="461" y="108" type="curve"/>
      <point x="499" y="108"/>
      <point x="536" y="147"/>
      <point x="536" y="190" type="curve" smooth="yes"/>
      <point x="536" y="306"/>
      <point x="437" y="379"/>
      <point x="180" y="379" type="curve" smooth="yes"/>
      <point x="169" y="379"/>
      <point x="158" y="379"/>
    </contour>
    <contour>
      <point x="299" y="-20" type="curve" smooth="yes"/>
      <point x="449" y="-20"/>
      <point x="536" y="63"/>
      <point x="536" y="179" type="curve" smooth="yes"/>
      <point x="536" y="190" type="line" smooth="yes"/>
      <point x="536" y="225"/>
      <point x="499" y="252"/>
      <point x="469" y="254" type="curve"/>
      <point x="470" y="246"/>
      <point x="470" y="237"/>
      <point x="470" y="227" type="curve" smooth="yes"/>
      <point x="470" y="222" type="line" smooth="yes"/>
      <point x="470" y="136"/>
      <point x="407" y="78"/>
      <point x="289" y="78" type="curve" smooth="yes"/>
      <point x="192" y="78"/>
      <point x="129" y="107"/>
      <point x="71" y="164" type="curve"/>
      <point x="67" y="164" type="line"/>
      <point x="64" y="153"/>
      <point x="63" y="139"/>
      <point x="63" y="123" type="curve" smooth="yes"/>
      <point x="63" y="92"/>
      <point x="72" y="62"/>
      <point x="91" y="44" type="curve" smooth="yes"/>
      <point x="128" y="6"/>
      <point x="197" y="-20"/>
    </contour>
  </outline>
</glyph>
<glyph name="seven" format="1">
  <advance width="600"/>
  <unicode hex="0037"/>
  <outline>
    <contour>
      <point x="438" y="602" type="line" smooth="yes"/>
      <point x="475" y="602"/>
      <point x="505" y="603"/>
      <point x="535" y="608" type="curve"/>
      <point x="535" y="616" type="line"/>
      <point x="535" y="651"/>
      <point x="522" y="700"/>
      <point x="497" y="700" type="curve"/>
      <point x="100" y="700" type="line"/>
      <point x="100" y="682" type="line" smooth="yes"/>
      <point x="100" y="631"/>
      <point x="111" y="602"/>
      <point x="139" y="602" type="curve" smooth="yes"/>
    </contour>
    <contour>
      <point x="324" y="-10" type="line"/>
      <point x="324" y="233"/>
      <point x="535" y="464"/>
      <point x="535" y="608" type="curve" smooth="yes"/>
      <point x="535" y="625"/>
      <point x="493" y="633"/>
      <point x="437" y="633" type="curve"/>
      <point x="437" y="488"/>
      <point x="228" y="238"/>
      <point x="228" y="43" type="curve" smooth="yes"/>
      <point x="228" y="7"/>
      <point x="271" y="-10"/>
      <point x="307" y="-10" type="curve" smooth="yes"/>
    </contour>
    <contour>
      <point x="166" y="465" type="curve"/>
      <point x="166" y="575"/>
      <point x="186" y="647"/>
      <point x="186" y="682" type="curve"/>
      <point x="186" y="708"/>
      <point x="142" y="720"/>
      <point x="102" y="720" type="curve" smooth="yes"/>
      <point x="94" y="720" type="line"/>
      <point x="76" y="649"/>
      <point x="68" y="576"/>
      <point x="68" y="504" type="curve"/>
      <point x="68" y="469"/>
      <point x="94" y="463"/>
      <point x="132" y="463" type="curve" smooth="yes"/>
      <point x="145" y="463"/>
      <point x="157" y="464"/>
    </contour>
  </outline>
</glyph>
<glyph name="eight" format="1">
  <advance width="600"/>
  <unicode hex="0038"/>
  <outline>
    <contour>
      <point x="381" y="335" type="curve" smooth="yes"/>
      <point x="291" y="367" type="line" smooth="yes"/>
      <point x="194" y="403"/>
      <point x="168" y="448"/>
      <point x="168" y="504" type="curve" smooth="yes"/>
      <point x="168" y="525"/>
      <point x="169" y="553"/>
      <point x="175" y="586" type="curve"/>
      <point x="125" y="580"/>
      <point x="77" y="560"/>
      <point x="77" y="510" type="curve" smooth="yes"/>
      <point x="77" y="434"/>
      <point x="120" y="352"/>
      <point x="262" y="300" type="curve" smooth="yes"/>
      <point x="351" y="267" type="line" smooth="yes"/>
      <point x="436" y="235"/>
      <point x="458" y="201"/>
      <point x="458" y="126" type="curve" smooth="yes"/>
      <point x="458" y="117"/>
      <point x="458" y="108"/>
      <point x="458" y="98" type="curve"/>
      <point x="494" y="100"/>
      <point x="542" y="139"/>
      <point x="542" y="166" type="curve"/>
      <point x="542" y="220"/>
      <point x="504" y="291"/>
    </contour>
    <contour>
      <point x="295" y="-20" type="curve" smooth="yes"/>
      <point x="447" y="-20"/>
      <point x="542" y="56"/>
      <point x="542" y="161" type="curve" smooth="yes"/>
      <point x="542" y="166" type="line" smooth="yes"/>
      <point x="542" y="185"/>
      <point x="504" y="206"/>
      <point x="477" y="208" type="curve"/>
      <point x="477" y="204"/>
      <point x="477" y="200"/>
      <point x="477" y="196" type="curve" smooth="yes"/>
      <point x="477" y="122"/>
      <point x="410" y="77"/>
      <point x="295" y="77" type="curve" smooth="yes"/>
      <point x="201" y="77"/>
      <point x="152" y="110"/>
      <point x="117" y="181" type="curve"/>
      <point x="47" y="113"/>
      <point x="130" y="-20"/>
    </contour>
    <contour>
      <point x="317" y="720" type="curve" smooth="yes"/>
      <point x="180" y="720"/>
      <point x="77" y="630"/>
      <point x="77" y="514" type="curve" smooth="yes"/>
      <point x="77" y="510" type="line" smooth="yes"/>
      <point x="77" y="476"/>
      <point x="127" y="443"/>
      <point x="174" y="440" type="curve"/>
      <point x="171" y="459"/>
      <point x="168" y="480"/>
      <point x="168" y="504" type="curve" smooth="yes"/>
      <point x="168" y="589"/>
      <point x="255" y="628"/>
      <point x="318" y="628" type="curve" smooth="yes"/>
      <point x="376" y="628"/>
      <point x="424" y="612"/>
      <point x="464" y="569" type="curve"/>
      <point x="515" y="631"/>
      <point x="411" y="720"/>
    </contour>
    <contour>
      <point x="351" y="319" type="curve" smooth="yes"/>
      <point x="429" y="319"/>
      <point x="539" y="411"/>
      <point x="539" y="517" type="curve" smooth="yes"/>
      <point x="539" y="522" type="line" smooth="yes"/>
      <point x="539" y="638"/>
      <point x="440" y="720"/>
      <point x="317" y="720" type="curve" smooth="yes"/>
      <point x="302" y="720"/>
      <point x="281" y="712"/>
      <point x="278" y="670" type="curve"/>
      <point x="383" y="670"/>
      <point x="445" y="615"/>
      <point x="445" y="522" type="curve" smooth="yes"/>
      <point x="445" y="518" type="line" smooth="yes"/>
      <point x="445" y="443"/>
      <point x="391" y="384"/>
      <point x="282" y="342" type="curve"/>
      <point x="305" y="327"/>
      <point x="325" y="319"/>
    </contour>
    <contour>
      <point x="343" y="33" type="curve"/>
      <point x="214" y="33"/>
      <point x="152" y="88"/>
      <point x="152" y="134" type="curve" smooth="yes"/>
      <point x="152" y="137" type="line" smooth="yes"/>
      <point x="152" y="210"/>
      <point x="209" y="267"/>
      <point x="317" y="304" type="curve"/>
      <point x="297" y="322"/>
      <point x="287" y="332"/>
      <point x="257" y="332" type="curve" smooth="yes"/>
      <point x="169" y="332"/>
      <point x="62" y="255"/>
      <point x="62" y="157" type="curve" smooth="yes"/>
      <point x="62" y="152" type="line" smooth="yes"/>
      <point x="62" y="55"/>
      <point x="154" y="-20"/>
      <point x="295" y="-20" type="curve" smooth="yes"/>
      <point x="316" y="-20"/>
      <point x="343" y="2"/>
    </contour>
  </outline>
</glyph>
<glyph name="nine" format="1">
  <advance width="600"/>
  <unicode hex="0039"/>
  <outline>
    <contour>
      <point x="455" y="558" type="curve"/>
      <point x="487" y="628"/>
      <point x="386" y="720"/>
      <point x="291" y="720" type="curve"/>
      <point x="155" y="720"/>
      <point x="62" y="619"/>
      <point x="62" y="462" type="curve" smooth="yes"/>
      <point x="62" y="457" type="line" smooth="yes"/>
      <point x="62" y="342"/>
      <point x="148" y="277"/>
      <point x="204" y="310" type="curve"/>
      <point x="170" y="350"/>
      <point x="160" y="395"/>
      <point x="160" y="452" type="curve" smooth="yes"/>
      <point x="160" y="457" type="line" smooth="yes"/>
      <point x="160" y="557"/>
      <point x="212" y="623"/>
      <point x="301" y="623" type="curve" smooth="yes"/>
      <point x="364" y="623"/>
      <point x="408" y="605"/>
    </contour>
    <contour>
      <point x="435" y="156" type="curve"/>
      <point x="383" y="102"/>
      <point x="323" y="78"/>
      <point x="247" y="78" type="curve" smooth="yes"/>
      <point x="183" y="78"/>
      <point x="141" y="92"/>
      <point x="99" y="122" type="curve"/>
      <point x="95" y="122" type="line"/>
      <point x="92" y="111"/>
      <point x="90" y="100"/>
      <point x="90" y="84" type="curve" smooth="yes"/>
      <point x="90" y="47"/>
      <point x="101" y="28"/>
      <point x="112" y="17" type="curve" smooth="yes"/>
      <point x="131" y="-3"/>
      <point x="174" y="-20"/>
      <point x="252" y="-20" type="curve" smooth="yes"/>
      <point x="368" y="-20"/>
      <point x="475" y="70"/>
    </contour>
    <contour>
      <point x="538" y="380" type="curve" smooth="yes"/>
      <point x="538" y="388" type="line" smooth="yes"/>
      <point x="538" y="613"/>
      <point x="446" y="720"/>
      <point x="291" y="720" type="curve" smooth="yes"/>
      <point x="280" y="720"/>
      <point x="261" y="709"/>
      <point x="261" y="674" type="curve"/>
      <point x="389" y="659"/>
      <point x="437" y="571"/>
      <point x="437" y="391" type="curve" smooth="yes"/>
      <point x="437" y="383" type="line" smooth="yes"/>
      <point x="437" y="160"/>
      <point x="378" y="60"/>
      <point x="221" y="24" type="curve"/>
      <point x="221" y="-1"/>
      <point x="233" y="-20"/>
      <point x="252" y="-20" type="curve" smooth="yes"/>
      <point x="423" y="-20"/>
      <point x="538" y="93"/>
    </contour>
    <contour>
      <point x="270" y="230" type="curve" smooth="yes"/>
      <point x="336" y="230"/>
      <point x="413" y="256"/>
      <point x="447" y="289" type="curve" smooth="yes"/>
      <point x="462" y="304"/>
      <point x="466" y="324"/>
      <point x="468" y="370" type="curve"/>
      <point x="412" y="335"/>
      <point x="349" y="316"/>
      <point x="284" y="316" type="curve" smooth="yes"/>
      <point x="177" y="316"/>
      <point x="117" y="381"/>
      <point x="117" y="478" type="curve" smooth="yes"/>
      <point x="117" y="498"/>
      <point x="118" y="513"/>
      <point x="124" y="530" type="curve"/>
      <point x="92" y="530"/>
      <point x="62" y="498"/>
      <point x="62" y="458" type="curve" smooth="yes"/>
      <point x="62" y="313"/>
      <point x="146" y="230"/>
    </contour>
  </outline>
</glyph>
<glyph name="colon" format="1">
  <advance width="600"/>
  <unicode hex="003A"/>
  <outline>
    <contour>
      <point x="382" y="380" type="curve"/>
      <point x="382" y="478" type="line" smooth="yes"/>
      <point x="382" y="526"/>
      <point x="337" y="542"/>
      <point x="282" y="542" type="curve" smooth="yes"/>
      <point x="259" y="542"/>
      <point x="236" y="538"/>
      <point x="218" y="532" type="curve"/>
      <point x="218" y="433" type="line" smooth="yes"/>
      <point x="218" y="385"/>
      <point x="263" y="370"/>
      <point x="318" y="370" type="curve" smooth="yes"/>
      <point x="341" y="370"/>
      <point x="364" y="373"/>
    </contour>
    <contour>
      <point x="382" y="2" type="curve"/>
      <point x="382" y="101" type="line" smooth="yes"/>
      <point x="382" y="149"/>
      <point x="337" y="164"/>
      <point x="282" y="164" type="curve" smooth="yes"/>
      <point x="259" y="164"/>
      <point x="236" y="161"/>
      <point x="218" y="154" type="curve"/>
      <point x="218" y="55" type="line" smooth="yes"/>
      <point x="218" y="7"/>
      <point x="263" y="-8"/>
      <point x="318" y="-8" type="curve" smooth="yes"/>
      <point x="341" y="-8"/>
      <point x="364" y="-4"/>
    </contour>
  </outline>
</glyph>
<glyph name="semicolon" format="1">
  <advance width="600"/>
  <unicode hex="003B"/>
  <outline>
    <contour>
      <point x="382" y="378" type="curve"/>
      <point x="382" y="477" type="line" smooth="yes"/>
      <point x="382" y="525"/>
      <point x="337" y="540"/>
      <point x="282" y="540" type="curve" smooth="yes"/>
      <point x="259" y="540"/>
      <point x="236" y="537"/>
      <point x="218" y="530" type="curve"/>
      <point x="218" y="431" type="line" smooth="yes"/>
      <point x="218" y="383"/>
      <point x="263" y="368"/>
      <point x="318" y="368" type="curve" smooth="yes"/>
      <point x="341" y="368"/>
      <point x="364" y="372"/>
    </contour>
    <contour>
      <point x="258" y="-195" type="curve" smooth="yes"/>
      <point x="274" y="-195"/>
      <point x="283" y="-192"/>
      <point x="291" y="-183" type="curve"/>
      <point x="345" y="-130"/>
      <point x="394" y="-20"/>
      <point x="394" y="90" type="curve"/>
      <point x="394" y="131"/>
      <point x="365" y="146"/>
      <point x="311" y="146" type="curve" smooth="yes"/>
      <point x="291" y="146"/>
      <point x="278" y="144"/>
      <point x="259" y="139" type="curve"/>
      <point x="259" y="-3"/>
      <point x="239" y="-84"/>
      <point x="185" y="-172" type="curve"/>
      <point x="206" y="-188"/>
      <point x="226" y="-195"/>
    </contour>
  </outline>
</glyph>
<glyph name="equal" format="1">
  <advance width="600"/>
  <unicode hex="003D"/>
  <outline>
    <contour>
      <point x="55" y="474" type="line"/>
      <point x="55" y="470"/>
      <point x="55" y="465"/>
      <point x="55" y="460" type="curve" smooth="yes"/>
      <point x="55" y="423"/>
      <point x="61" y="401"/>
      <point x="73" y="388" type="curve" smooth="yes"/>
      <point x="82" y="379"/>
      <point x="94" y="376"/>
      <point x="119" y="376" type="curve"/>
      <point x="547" y="376" type="line"/>
      <point x="549" y="387"/>
      <point x="551" y="401"/>
      <point x="551" y="411" type="curve" smooth="yes"/>
      <point x="551" y="455"/>
      <point x="540" y="474"/>
      <point x="503" y="474" type="curve"/>
    </contour>
    <contour>
      <point x="551" y="126" type="line"/>
      <point x="551" y="130"/>
      <point x="551" y="135"/>
      <point x="551" y="140" type="curve" smooth="yes"/>
      <point x="551" y="177"/>
      <point x="545" y="199"/>
      <point x="532" y="212" type="curve" smooth="yes"/>
      <point x="524" y="221"/>
      <point x="512" y="224"/>
      <point x="487" y="224" type="curve"/>
      <point x="59" y="224" type="line"/>
      <point x="57" y="213"/>
      <point x="55" y="199"/>
      <point x="55" y="189" type="curve" smooth="yes"/>
      <point x="55" y="145"/>
      <point x="66" y="126"/>
      <point x="102" y="126" type="curve"/>
    </contour>
  </outline>
</glyph>
<glyph name="greater" format="1">
  <advance width="600"/>
  <unicode hex="003E"/>
  <outline>
    <contour>
      <point x="73" y="112" type="curve"/>
      <point x="73" y="95" type="line"/>
      <point x="73" y="61"/>
      <point x="91" y="25"/>
      <point x="116" y="25" type="curve" smooth="yes"/>
      <point x="129" y="25"/>
      <point x="160" y="32"/>
      <point x="203" y="49" type="curve" smooth="yes"/>
      <point x="344" y="102"/>
      <point x="455" y="182"/>
      <point x="531" y="272" type="curve"/>
      <point x="531" y="299" type="line"/>
      <point x="531" y="322"/>
      <point x="505" y="331"/>
      <point x="451" y="324" type="curve"/>
      <point x="351" y="219"/>
      <point x="269" y="158"/>
    </contour>
    <contour>
      <point x="80" y="580" type="curve"/>
      <point x="76" y="570"/>
      <point x="75" y="559"/>
      <point x="75" y="544" type="curve" smooth="yes"/>
      <point x="75" y="508"/>
      <point x="84" y="481"/>
      <point x="103" y="475" type="curve" smooth="yes"/>
      <point x="277" y="423"/>
      <point x="353" y="373"/>
      <point x="460" y="268" type="curve" smooth="yes"/>
      <point x="467" y="262"/>
      <point x="469" y="255"/>
      <point x="469" y="250" type="curve" smooth="yes"/>
      <point x="469" y="245"/>
      <point x="469" y="240"/>
      <point x="469" y="231" type="curve"/>
      <point x="513" y="256"/>
      <point x="531" y="277"/>
      <point x="531" y="295" type="curve" smooth="yes"/>
      <point x="531" y="304" type="line" smooth="yes"/>
      <point x="531" y="327"/>
      <point x="524" y="341"/>
      <point x="493" y="369" type="curve" smooth="yes"/>
      <point x="390" y="458"/>
      <point x="287" y="531"/>
    </contour>
  </outline>
</glyph>
<glyph name="question" format="1">
  <advance width="600"/>
  <unicode hex="003F"/>
  <outline>
    <contour>
      <point x="305" y="720" type="curve" smooth="yes"/>
      <point x="229" y="720"/>
      <point x="165" y="698"/>
      <point x="130" y="663" type="curve" smooth="yes"/>
      <point x="103" y="637"/>
      <point x="87" y="602"/>
      <point x="87" y="564" type="curve" smooth="yes"/>
      <point x="87" y="543"/>
      <point x="95" y="528"/>
      <point x="105" y="514" type="curve"/>
      <point x="109" y="514" type="line"/>
      <point x="152" y="580"/>
      <point x="214" y="622"/>
      <point x="308" y="622" type="curve" smooth="yes"/>
      <point x="402" y="622"/>
      <point x="451" y="586"/>
      <point x="451" y="537" type="curve" smooth="yes"/>
      <point x="451" y="514"/>
      <point x="450" y="501"/>
      <point x="445" y="485" type="curve"/>
      <point x="497" y="482"/>
      <point x="521" y="517"/>
      <point x="521" y="545" type="curve" smooth="yes"/>
      <point x="521" y="633"/>
      <point x="457" y="720"/>
    </contour>
    <contour>
      <point x="377" y="657" type="curve"/>
      <point x="406" y="619"/>
      <point x="421" y="595"/>
      <point x="421" y="550" type="curve" smooth="yes"/>
      <point x="421" y="507"/>
      <point x="407" y="473"/>
      <point x="347" y="430" type="curve" smooth="yes"/>
      <point x="325" y="414" type="line" smooth="yes"/>
      <point x="262" y="369"/>
      <point x="234" y="333"/>
      <point x="234" y="296" type="curve" smooth="yes"/>
      <point x="234" y="292" type="line" smooth="yes"/>
      <point x="234" y="269"/>
      <point x="260" y="244"/>
      <point x="316" y="244" type="curve" smooth="yes"/>
      <point x="323" y="244" type="line"/>
      <point x="323" y="251" type="line" smooth="yes"/>
      <point x="323" y="286"/>
      <point x="335" y="309"/>
      <point x="389" y="347" type="curve" smooth="yes"/>
      <point x="414" y="364" type="line" smooth="yes"/>
      <point x="490" y="415"/>
      <point x="521" y="472"/>
      <point x="521" y="539" type="curve" smooth="yes"/>
      <point x="521" y="545" type="line" smooth="yes"/>
      <point x="521" y="606"/>
      <point x="459" y="683"/>
    </contour>
    <contour>
      <point x="364" y="2" type="curve"/>
      <point x="364" y="91" type="line" smooth="yes"/>
      <point x="364" y="139"/>
      <point x="319" y="155"/>
      <point x="263" y="155" type="curve" smooth="yes"/>
      <point x="241" y="155"/>
      <point x="218" y="151"/>
      <point x="199" y="144" type="curve"/>
      <point x="199" y="55" type="line" smooth="yes"/>
      <point x="199" y="7"/>
      <point x="244" y="-8"/>
      <point x="300" y="-8" type="curve" smooth="yes"/>
      <point x="322" y="-8"/>
      <point x="345" y="-4"/>
    </contour>
  </outline>
</glyph>
<glyph name="at" format="1">
  <advance width="600"/>
  <unicode hex="0040"/>
  <outline>
    <contour>
      <point x="476" y="517" type="curve" smooth="yes"/>
      <point x="462" y="531"/>
      <point x="436" y="542"/>
      <point x="389" y="542" type="curve" smooth="yes"/>
      <point x="361" y="542"/>
      <point x="330" y="534"/>
      <point x="304" y="507" type="curve" smooth="yes"/>
      <point x="285" y="489"/>
      <point x="284" y="448"/>
      <point x="298" y="427" type="curve"/>
      <point x="336" y="453"/>
      <point x="360" y="462"/>
      <point x="397" y="462" type="curve" smooth="yes"/>
      <point x="431" y="462"/>
      <point x="452" y="458"/>
      <point x="476" y="438" type="curve"/>
      <point x="491" y="474"/>
      <point x="488" y="505"/>
    </contour>
    <contour>
      <point x="495" y="179" type="curve"/>
      <point x="457" y="125"/>
      <point x="409" y="94"/>
      <point x="374" y="94" type="curve" smooth="yes"/>
      <point x="337" y="94"/>
      <point x="317" y="123"/>
      <point x="317" y="207" type="curve" smooth="yes"/>
      <point x="317" y="213" type="line" smooth="yes"/>
      <point x="317" y="342"/>
      <point x="329" y="425"/>
      <point x="384" y="504" type="curve"/>
      <point x="355" y="521"/>
      <point x="320" y="524"/>
      <point x="304" y="507" type="curve" smooth="yes"/>
      <point x="254" y="458"/>
      <point x="227" y="361"/>
      <point x="227" y="206" type="curve" smooth="yes"/>
      <point x="227" y="199" type="line" smooth="yes"/>
      <point x="227" y="74"/>
      <point x="273" y="10"/>
      <point x="359" y="10" type="curve" smooth="yes"/>
      <point x="402" y="10"/>
      <point x="438" y="26"/>
      <point x="488" y="81" type="curve" smooth="yes"/>
      <point x="503" y="100"/>
      <point x="508" y="139"/>
    </contour>
    <contour>
      <point x="546" y="16" type="line"/>
      <point x="538" y="49"/>
      <point x="537" y="71"/>
      <point x="537" y="110" type="curve"/>
      <point x="537" y="516" type="line" smooth="yes"/>
      <point x="537" y="683"/>
      <point x="474" y="760"/>
      <point x="344" y="760" type="curve" smooth="yes"/>
      <point x="316" y="760"/>
      <point x="319" y="732"/>
      <point x="319" y="714" type="curve"/>
      <point x="429" y="707"/>
      <point x="448" y="656"/>
      <point x="448" y="535" type="curve" smooth="yes"/>
      <point x="448" y="94" type="line" smooth="yes"/>
      <point x="448" y="48"/>
      <point x="484" y="16"/>
      <point x="536" y="16" type="curve" smooth="yes"/>
    </contour>
    <contour>
      <point x="56" y="204" type="curve" smooth="yes"/>
      <point x="56" y="194" type="line" smooth="yes"/>
      <point x="56" y="33"/>
      <point x="83" y="-70"/>
      <point x="141" y="-128" type="curve" smooth="yes"/>
      <point x="171" y="-158"/>
      <point x="203" y="-151"/>
      <point x="230" y="-124" type="curve"/>
      <point x="139" y="-29"/>
      <point x="130" y="32"/>
      <point x="130" y="191" type="curve" smooth="yes"/>
      <point x="130" y="201" type="line" smooth="yes"/>
      <point x="130" y="498"/>
      <point x="219" y="686"/>
      <point x="347" y="686" type="curve" smooth="yes"/>
      <point x="399" y="686"/>
      <point x="424" y="667"/>
      <point x="449" y="631" type="curve"/>
      <point x="468" y="643"/>
      <point x="476" y="657"/>
      <point x="476" y="674" type="curve" smooth="yes"/>
      <point x="476" y="719"/>
      <point x="414" y="760"/>
      <point x="344" y="760" type="curve" smooth="yes"/>
      <point x="160" y="760"/>
      <point x="56" y="535"/>
    </contour>
    <contour>
      <point x="325" y="-190" type="curve" smooth="yes"/>
      <point x="389" y="-190"/>
      <point x="443" y="-180"/>
      <point x="460" y="-163" type="curve" smooth="yes"/>
      <point x="473" y="-150"/>
      <point x="478" y="-125"/>
      <point x="478" y="-96" type="curve" smooth="yes"/>
      <point x="478" y="-88" type="line"/>
      <point x="474" y="-88" type="line"/>
      <point x="430" y="-109"/>
      <point x="388" y="-116"/>
      <point x="328" y="-116" type="curve" smooth="yes"/>
      <point x="248" y="-116"/>
      <point x="189" y="-90"/>
      <point x="136" y="-29" type="curve"/>
      <point x="118" y="-55"/>
      <point x="116" y="-103"/>
      <point x="141" y="-128" type="curve"/>
      <point x="183" y="-170"/>
      <point x="244" y="-190"/>
    </contour>
  </outline>
</glyph>
<glyph name="B" format="1">
  <advance width="600"/>
  <unicode hex="0042"/>
  <outline>
    <contour>
      <point x="191" y="23" type="curve"/>
      <point x="191" y="555" type="line" smooth="yes"/>
      <point x="191" y="620"/>
      <point x="158" y="648"/>
      <point x="88" y="648" type="curve"/>
      <point x="88" y="56" type="line"/>
      <point x="88" y="36"/>
      <point x="135" y="23"/>
    </contour>
    <contour>
      <point x="38" y="700" type="curve"/>
      <point x="36" y="690"/>
      <point x="35" y="680"/>
      <point x="35" y="667" type="curve" smooth="yes"/>
      <point x="35" y="638"/>
      <point x="40" y="620"/>
      <point x="51" y="608" type="curve" smooth="yes"/>
      <point x="57" y="603"/>
      <point x="63" y="602"/>
      <point x="70" y="602" type="curve" smooth="yes"/>
      <point x="78" y="602"/>
      <point x="91" y="604"/>
      <point x="115" y="607" type="curve" smooth="yes"/>
      <point x="163" y="615"/>
      <point x="226" y="622"/>
      <point x="286" y="622" type="curve" smooth="yes"/>
      <point x="372" y="622"/>
      <point x="414" y="607"/>
      <point x="464" y="563" type="curve"/>
      <point x="530" y="629"/>
      <point x="426" y="720"/>
      <point x="303" y="720" type="curve" smooth="yes"/>
      <point x="218" y="720"/>
      <point x="134" y="716"/>
    </contour>
    <contour>
      <point x="532" y="508" type="curve" smooth="yes"/>
      <point x="532" y="528" type="line" smooth="yes"/>
      <point x="532" y="624"/>
      <point x="455" y="720"/>
      <point x="303" y="720" type="curve" smooth="yes"/>
      <point x="288" y="720"/>
      <point x="275" y="706"/>
      <point x="275" y="671" type="curve"/>
      <point x="376" y="671"/>
      <point x="434" y="607"/>
      <point x="434" y="516" type="curve" smooth="yes"/>
      <point x="434" y="498" type="line" smooth="yes"/>
      <point x="434" y="409"/>
      <point x="357" y="362"/>
      <point x="232" y="362" type="curve" smooth="yes"/>
      <point x="199" y="362"/>
      <point x="186" y="365"/>
      <point x="165" y="377" type="curve"/>
      <point x="157" y="370"/>
      <point x="153" y="358"/>
      <point x="153" y="347" type="curve" smooth="yes"/>
      <point x="153" y="313"/>
      <point x="192" y="280"/>
      <point x="230" y="280" type="curve" smooth="yes"/>
      <point x="243" y="280" type="line" smooth="yes"/>
      <point x="400" y="280"/>
      <point x="532" y="367"/>
    </contour>
    <contour>
      <point x="527" y="194" type="curve" smooth="yes"/>
      <point x="527" y="215" type="line" smooth="yes"/>
      <point x="527" y="286"/>
      <point x="458" y="352"/>
      <point x="392" y="352" type="curve" smooth="yes"/>
      <point x="386" y="352" type="line" smooth="yes"/>
      <point x="352" y="352"/>
      <point x="329" y="334"/>
      <point x="329" y="320" type="curve"/>
      <point x="329" y="317" type="line"/>
      <point x="336" y="317" type="line"/>
      <point x="385" y="317"/>
      <point x="428" y="271"/>
      <point x="428" y="218" type="curve" smooth="yes"/>
      <point x="428" y="202" type="line" smooth="yes"/>
      <point x="428" y="125"/>
      <point x="356" y="86"/>
      <point x="272" y="86" type="curve" smooth="yes"/>
      <point x="184" y="86"/>
      <point x="147" y="93"/>
      <point x="104" y="111" type="curve"/>
      <point x="92" y="93"/>
      <point x="88" y="72"/>
      <point x="88" y="56" type="curve" smooth="yes"/>
      <point x="88" y="23"/>
      <point x="157" y="-10"/>
      <point x="265" y="-10" type="curve" smooth="yes"/>
      <point x="275" y="-10" type="line" smooth="yes"/>
      <point x="411" y="-10"/>
      <point x="527" y="65"/>
    </contour>
  </outline>
</glyph>
<glyph name="D" format="1">
  <advance width="600"/>
  <unicode hex="0044"/>
  <outline>
    <contour>
      <point x="191" y="29" type="curve"/>
      <point x="191" y="555" type="line" smooth="yes"/>
      <point x="191" y="621"/>
      <point x="158" y="648"/>
      <point x="88" y="648" type="curve"/>
      <point x="88" y="66" type="line" smooth="yes"/>
      <point x="88" y="46"/>
      <point x="132" y="29"/>
    </contour>
    <contour>
      <point x="38" y="700" type="curve"/>
      <point x="36" y="690"/>
      <point x="35" y="680"/>
      <point x="35" y="667" type="curve"/>
      <point x="35" y="638"/>
      <point x="40" y="620"/>
      <point x="51" y="608" type="curve" smooth="yes"/>
      <point x="57" y="603"/>
      <point x="63" y="602"/>
      <point x="70" y="602" type="curve" smooth="yes"/>
      <point x="78" y="602"/>
      <point x="91" y="604"/>
      <point x="115" y="607" type="curve" smooth="yes"/>
      <point x="161" y="615"/>
      <point x="222" y="622"/>
      <point x="280" y="622" type="curve" smooth="yes"/>
      <point x="363" y="622"/>
      <point x="404" y="598"/>
      <point x="456" y="552" type="curve"/>
      <point x="523" y="620"/>
      <point x="417" y="720"/>
      <point x="292" y="720" type="curve" smooth="yes"/>
      <point x="211" y="720"/>
      <point x="130" y="715"/>
    </contour>
    <contour>
      <point x="541" y="383" type="curve" smooth="yes"/>
      <point x="541" y="423" type="line" smooth="yes"/>
      <point x="541" y="612"/>
      <point x="459" y="720"/>
      <point x="292" y="720" type="curve"/>
      <point x="273" y="720"/>
      <point x="262" y="700"/>
      <point x="262" y="673" type="curve"/>
      <point x="407" y="649"/>
      <point x="439" y="581"/>
      <point x="439" y="406" type="curve" smooth="yes"/>
      <point x="439" y="384" type="line" smooth="yes"/>
      <point x="439" y="207"/>
      <point x="364" y="91"/>
      <point x="236" y="91" type="curve" smooth="yes"/>
      <point x="180" y="91"/>
      <point x="152" y="97"/>
      <point x="108" y="119" type="curve"/>
      <point x="94" y="108"/>
      <point x="88" y="92"/>
      <point x="88" y="66" type="curve" smooth="yes"/>
      <point x="88" y="30"/>
      <point x="159" y="-10"/>
      <point x="235" y="-10" type="curve" smooth="yes"/>
      <point x="240" y="-10" type="line" smooth="yes"/>
      <point x="423" y="-10"/>
      <point x="541" y="149"/>
    </contour>
    <contour>
      <point x="288" y="711" type="move" name="top"/>
    </contour>
  </outline>
</glyph>
<glyph name="E" format="1">
  <advance width="600"/>
  <unicode hex="0045"/>
  <outline>
    <contour>
      <point x="38" y="700" type="line"/>
      <point x="38" y="695"/>
      <point x="38" y="688"/>
      <point x="38" y="683" type="curve" smooth="yes"/>
      <point x="38" y="651"/>
      <point x="42" y="620"/>
      <point x="55" y="608" type="curve" smooth="yes"/>
      <point x="59" y="604"/>
      <point x="63" y="602"/>
      <point x="69" y="602" type="curve" smooth="yes"/>
      <point x="535" y="602" type="line"/>
      <point x="538" y="611"/>
      <point x="540" y="623"/>
      <point x="540" y="636" type="curve" smooth="yes"/>
      <point x="540" y="651"/>
      <point x="536" y="678"/>
      <point x="523" y="692" type="curve" smooth="yes"/>
      <point x="517" y="698"/>
      <point x="511" y="700"/>
      <point x="500" y="700" type="curve" smooth="yes"/>
    </contour>
    <contour>
      <point x="191" y="55" type="curve"/>
      <point x="191" y="541" type="line" smooth="yes"/>
      <point x="191" y="606"/>
      <point x="165" y="631"/>
      <point x="88" y="631" type="curve"/>
      <point x="88" y="93" type="line"/>
      <point x="88" y="63"/>
      <point x="134" y="55"/>
    </contour>
    <contour>
      <point x="88" y="98" type="line"/>
      <point x="88" y="85" type="line" smooth="yes"/>
      <point x="88" y="46"/>
      <point x="124" y="0"/>
      <point x="156" y="0" type="curve" smooth="yes"/>
      <point x="537" y="0" type="line"/>
      <point x="539" y="9"/>
      <point x="540" y="21"/>
      <point x="540" y="33" type="curve" smooth="yes"/>
      <point x="540" y="79"/>
      <point x="527" y="98"/>
      <point x="498" y="98" type="curve" smooth="yes"/>
    </contour>
    <contour>
      <point x="132" y="374" type="line"/>
      <point x="132" y="312"/>
      <point x="141" y="285"/>
      <point x="171" y="285" type="curve" smooth="yes"/>
      <point x="474" y="285" type="line"/>
      <point x="474" y="289"/>
      <point x="474" y="294"/>
      <point x="474" y="297" type="curve" smooth="yes"/>
      <point x="474" y="321"/>
      <point x="468" y="347"/>
      <point x="452" y="363" type="curve" smooth="yes"/>
      <point x="443" y="372"/>
      <point x="435" y="374"/>
      <point x="423" y="374" type="curve" smooth="yes"/>
    </contour>
    <contour>
      <point x="300" y="711" type="move" name="top"/>
    </contour>
    <contour>
      <point x="538" y="0" type="move" name="ogonek"/>
    </contour>
    <contour>
      <point x="326" y="-1" type="move" name="bottom"/>
    </contour>
  </outline>
</glyph>
<glyph name="F" format="1">
  <advance width="600"/>
  <unicode hex="0046"/>
  <outline>
    <contour>
      <point x="210" y="-7" type="curve"/>
      <point x="202" y="26"/>
      <point x="201" y="48"/>
      <point x="201" y="88" type="curve" smooth="yes"/>
      <point x="201" y="541" type="line"/>
      <point x="201" y="609"/>
      <point x="174" y="635"/>
      <point x="98" y="635" type="curve"/>
      <point x="98" y="48" type="line" smooth="yes"/>
      <point x="98" y="10"/>
      <point x="128" y="-7"/>
      <point x="200" y="-7" type="curve" smooth="yes"/>
      <point x="204" y="-7"/>
      <point x="207" y="-7"/>
    </contour>
    <contour>
      <point x="38" y="700" type="line"/>
      <point x="38" y="695"/>
      <point x="38" y="688"/>
      <point x="38" y="683" type="curve" smooth="yes"/>
      <point x="38" y="642"/>
      <point x="44" y="621"/>
      <point x="55" y="611" type="curve" smooth="yes"/>
      <point x="61" y="605"/>
      <point x="67" y="602"/>
      <point x="79" y="602" type="curve"/>
      <point x="535" y="602" type="line"/>
      <point x="538" y="610"/>
      <point x="540" y="622"/>
      <point x="540" y="636" type="curve" smooth="yes"/>
      <point x="540" y="660"/>
      <point x="534" y="680"/>
      <point x="523" y="691" type="curve" smooth="yes"/>
      <point x="517" y="698"/>
      <point x="510" y="700"/>
      <point x="497" y="700" type="curve"/>
    </contour>
    <contour>
      <point x="118" y="324" type="line"/>
      <point x="118" y="262"/>
      <point x="126" y="226"/>
      <point x="156" y="226" type="curve"/>
      <point x="493" y="226" type="line"/>
      <point x="494" y="232"/>
      <point x="495" y="238"/>
      <point x="495" y="245" type="curve"/>
      <point x="495" y="270"/>
      <point x="485" y="296"/>
      <point x="470" y="311" type="curve" smooth="yes"/>
      <point x="459" y="322"/>
      <point x="452" y="324"/>
      <point x="435" y="324" type="curve"/>
    </contour>
  </outline>
</glyph>
<glyph name="G" format="1">
  <advance width="600"/>
  <unicode hex="0047"/>
  <outline>
    <contour>
      <point x="374" y="627" type="curve" smooth="yes"/>
      <point x="445" y="627"/>
      <point x="470" y="589"/>
      <point x="470" y="530" type="curve"/>
      <point x="505" y="530"/>
      <point x="517" y="547"/>
      <point x="517" y="560" type="curve" smooth="yes"/>
      <point x="517" y="610"/>
      <point x="509" y="642"/>
      <point x="476" y="674" type="curve" smooth="yes"/>
      <point x="448" y="703"/>
      <point x="417" y="720"/>
      <point x="371" y="720" type="curve" smooth="yes"/>
      <point x="187" y="720"/>
      <point x="60" y="555"/>
      <point x="60" y="282" type="curve" smooth="yes"/>
      <point x="60" y="270" type="line" smooth="yes"/>
      <point x="60" y="207"/>
      <point x="112" y="134"/>
      <point x="177" y="125" type="curve"/>
      <point x="165" y="160"/>
      <point x="160" y="212"/>
      <point x="160" y="266" type="curve" smooth="yes"/>
      <point x="160" y="278" type="line" smooth="yes"/>
      <point x="160" y="500"/>
      <point x="256" y="627"/>
    </contour>
    <contour>
      <point x="318" y="78" type="curve" smooth="yes"/>
      <point x="200" y="78"/>
      <point x="145" y="164"/>
      <point x="145" y="321" type="curve"/>
      <point x="95" y="322"/>
      <point x="60" y="306"/>
      <point x="60" y="270" type="curve" smooth="yes"/>
      <point x="60" y="100"/>
      <point x="147" y="-20"/>
      <point x="318" y="-20" type="curve" smooth="yes"/>
      <point x="441" y="-20"/>
      <point x="536" y="54"/>
      <point x="536" y="166" type="curve" smooth="yes"/>
      <point x="536" y="173" type="line" smooth="yes"/>
      <point x="536" y="233"/>
      <point x="509" y="282"/>
      <point x="459" y="282" type="curve"/>
      <point x="464" y="262"/>
      <point x="466" y="243"/>
      <point x="466" y="212" type="curve" smooth="yes"/>
      <point x="466" y="127"/>
      <point x="405" y="78"/>
    </contour>
    <contour>
      <point x="303" y="327" type="line"/>
      <point x="301" y="322"/>
      <point x="301" y="316"/>
      <point x="301" y="310" type="curve" smooth="yes"/>
      <point x="301" y="284"/>
      <point x="308" y="268"/>
      <point x="319" y="257" type="curve" smooth="yes"/>
      <point x="332" y="244"/>
      <point x="349" y="238"/>
      <point x="389" y="238" type="curve"/>
      <point x="569" y="238" type="line"/>
      <point x="569" y="248" type="line" smooth="yes"/>
      <point x="569" y="306"/>
      <point x="557" y="327"/>
      <point x="525" y="327" type="curve" smooth="yes"/>
    </contour>
    <contour>
      <point x="517" y="468" type="curve"/>
      <point x="517" y="560" type="line" smooth="yes"/>
      <point x="517" y="635"/>
      <point x="470" y="671"/>
      <point x="422" y="663" type="curve"/>
      <point x="421" y="627"/>
      <point x="419" y="587"/>
      <point x="419" y="557" type="curve" smooth="yes"/>
      <point x="419" y="508" type="line" smooth="yes"/>
      <point x="419" y="476"/>
      <point x="435" y="464"/>
      <point x="482" y="464" type="curve" smooth="yes"/>
      <point x="496" y="464"/>
      <point x="508" y="465"/>
    </contour>
    <contour>
      <point x="315" y="711" type="move" name="top"/>
    </contour>
    <contour>
      <point x="315" y="-1" type="move" name="bottom"/>
    </contour>
  </outline>
</glyph>
<glyph name="H" format="1">
  <advance width="600"/>
  <unicode hex="0048"/>
  <outline>
    <contour>
      <point x="73" y="705" type="curve"/>
      <point x="80" y="670"/>
      <point x="83" y="634"/>
      <point x="83" y="595" type="curve" smooth="yes"/>
      <point x="83" y="34" type="line" smooth="yes"/>
      <point x="83" y="3"/>
      <point x="112" y="-10"/>
      <point x="163" y="-10" type="curve" smooth="yes"/>
      <point x="173" y="-10"/>
      <point x="181" y="-10"/>
      <point x="186" y="-9" type="curve"/>
      <point x="186" y="645" type="line" smooth="yes"/>
      <point x="186" y="669"/>
      <point x="183" y="684"/>
      <point x="172" y="695" type="curve" smooth="yes"/>
      <point x="161" y="706"/>
      <point x="145" y="710"/>
      <point x="114" y="710" type="curve" smooth="yes"/>
      <point x="99" y="710"/>
      <point x="87" y="709"/>
    </contour>
    <contour>
      <point x="537" y="-5" type="curve"/>
      <point x="530" y="30"/>
      <point x="527" y="66"/>
      <point x="527" y="105" type="curve" smooth="yes"/>
      <point x="527" y="666" type="line" smooth="yes"/>
      <point x="527" y="696"/>
      <point x="494" y="710"/>
      <point x="437" y="710" type="curve" smooth="yes"/>
      <point x="432" y="710"/>
      <point x="427" y="710"/>
      <point x="424" y="710" type="curve"/>
      <point x="424" y="55" type="line" smooth="yes"/>
      <point x="424" y="31"/>
      <point x="427" y="16"/>
      <point x="438" y="5" type="curve" smooth="yes"/>
      <point x="449" y="-6"/>
      <point x="465" y="-10"/>
      <point x="496" y="-10" type="curve" smooth="yes"/>
      <point x="511" y="-10"/>
      <point x="523" y="-9"/>
    </contour>
    <contour>
      <point x="38" y="348" type="line"/>
      <point x="38" y="331" type="line" smooth="yes"/>
      <point x="38" y="298"/>
      <point x="46" y="273"/>
      <point x="62" y="256" type="curve" smooth="yes"/>
      <point x="67" y="252"/>
      <point x="70" y="250"/>
      <point x="76" y="250" type="curve"/>
      <point x="456" y="250" type="line"/>
      <point x="456" y="323"/>
      <point x="428" y="348"/>
      <point x="364" y="348" type="curve" smooth="yes"/>
    </contour>
    <contour>
      <point x="287" y="711" type="move" name="top"/>
    </contour>
  </outline>
</glyph>
<glyph name="I" format="1">
  <advance width="600"/>
  <unicode hex="0049"/>
  <outline>
    <contour>
      <point x="349" y="55" type="curve"/>
      <point x="349" y="541" type="line" smooth="yes"/>
      <point x="349" y="606"/>
      <point x="324" y="631"/>
      <point x="246" y="631" type="curve"/>
      <point x="246" y="161" type="line" smooth="yes"/>
      <point x="246" y="89"/>
      <point x="271" y="55"/>
    </contour>
    <contour>
      <point x="60" y="700" type="line"/>
      <point x="57" y="694"/>
      <point x="56" y="685"/>
      <point x="56" y="674" type="curve"/>
      <point x="56" y="650"/>
      <point x="62" y="631"/>
      <point x="75" y="618" type="curve" smooth="yes"/>
      <point x="88" y="605"/>
      <point x="105" y="602"/>
      <point x="143" y="602" type="curve" smooth="yes"/>
      <point x="536" y="602" type="line"/>
      <point x="539" y="613"/>
      <point x="540" y="626"/>
      <point x="540" y="637" type="curve" smooth="yes"/>
      <point x="540" y="674"/>
      <point x="532" y="700"/>
      <point x="498" y="700" type="curve" smooth="yes"/>
    </contour>
    <contour>
      <point x="61" y="98" type="line"/>
      <point x="57" y="88"/>
      <point x="56" y="77"/>
      <point x="56" y="65" type="curve"/>
      <point x="56" y="44"/>
      <point x="59" y="24"/>
      <point x="72" y="12" type="curve" smooth="yes"/>
      <point x="81" y="3"/>
      <point x="89" y="0"/>
      <point x="111" y="0" type="curve" smooth="yes"/>
      <point x="537" y="0" type="line"/>
      <point x="539" y="9"/>
      <point x="540" y="21"/>
      <point x="540" y="33" type="curve" smooth="yes"/>
      <point x="540" y="72"/>
      <point x="532" y="98"/>
      <point x="498" y="98" type="curve" smooth="yes"/>
    </contour>
    <contour>
      <point x="300" y="711" type="move" name="top"/>
    </contour>
    <contour>
      <point x="538" y="0" type="move" name="ogonek"/>
    </contour>
    <contour>
      <point x="300" y="-1" type="move" name="bottom"/>
    </contour>
  </outline>
</glyph>
<glyph name="J" format="1">
  <advance width="600"/>
  <unicode hex="004A"/>
  <outline>
    <contour>
      <point x="138" y="700" type="line"/>
      <point x="137" y="694"/>
      <point x="136" y="686"/>
      <point x="136" y="677" type="curve" smooth="yes"/>
      <point x="136" y="651"/>
      <point x="142" y="631"/>
      <point x="156" y="617" type="curve" smooth="yes"/>
      <point x="168" y="605"/>
      <point x="184" y="602"/>
      <point x="222" y="602" type="curve" smooth="yes"/>
      <point x="457" y="602" type="line"/>
      <point x="457" y="673"/>
      <point x="442" y="700"/>
      <point x="409" y="700" type="curve"/>
    </contour>
    <contour>
      <point x="505" y="220" type="curve" smooth="yes"/>
      <point x="505" y="664" type="line" smooth="yes"/>
      <point x="505" y="686"/>
      <point x="481" y="700"/>
      <point x="424" y="700" type="curve" smooth="yes"/>
      <point x="402" y="700" type="line"/>
      <point x="402" y="230" type="line" smooth="yes"/>
      <point x="402" y="141"/>
      <point x="392" y="105"/>
      <point x="339" y="46" type="curve"/>
      <point x="415" y="17"/>
      <point x="505" y="107"/>
    </contour>
    <contour>
      <point x="282" y="78" type="curve" smooth="yes"/>
      <point x="203" y="78"/>
      <point x="165" y="98"/>
      <point x="101" y="132" type="curve"/>
      <point x="97" y="132" type="line"/>
      <point x="96" y="122"/>
      <point x="95" y="112"/>
      <point x="95" y="101" type="curve"/>
      <point x="95" y="60"/>
      <point x="105" y="34"/>
      <point x="117" y="23" type="curve" smooth="yes"/>
      <point x="147" y="-8"/>
      <point x="207" y="-20"/>
      <point x="260" y="-20" type="curve" smooth="yes"/>
      <point x="268" y="-20" type="line" smooth="yes"/>
      <point x="420" y="-20"/>
      <point x="505" y="85"/>
      <point x="505" y="220" type="curve"/>
      <point x="505" y="234"/>
      <point x="490" y="252"/>
      <point x="461" y="252" type="curve"/>
      <point x="442" y="139"/>
      <point x="377" y="78"/>
    </contour>
    <contour>
      <point x="299" y="711" type="move" name="top"/>
    </contour>
  </outline>
</glyph>
<glyph name="L" format="1">
  <advance width="600"/>
  <unicode hex="004C"/>
  <outline>
    <contour>
      <point x="186" y="46" type="curve"/>
      <point x="186" y="645" type="line" smooth="yes"/>
      <point x="186" y="669"/>
      <point x="183" y="684"/>
      <point x="172" y="695" type="curve" smooth="yes"/>
      <point x="162" y="706"/>
      <point x="146" y="710"/>
      <point x="114" y="710" type="curve" smooth="yes"/>
      <point x="99" y="710"/>
      <point x="87" y="709"/>
      <point x="73" y="705" type="curve"/>
      <point x="81" y="670"/>
      <point x="83" y="634"/>
      <point x="83" y="595" type="curve" smooth="yes"/>
      <point x="83" y="103" type="line" smooth="yes"/>
      <point x="83" y="73"/>
      <point x="124" y="46"/>
    </contour>
    <contour>
      <point x="83" y="103" type="line"/>
      <point x="83" y="85" type="line" smooth="yes"/>
      <point x="83" y="46"/>
      <point x="119" y="0"/>
      <point x="151" y="0" type="curve" smooth="yes"/>
      <point x="542" y="0" type="line"/>
      <point x="544" y="10"/>
      <point x="545" y="23"/>
      <point x="545" y="38" type="curve" smooth="yes"/>
      <point x="545" y="84"/>
      <point x="532" y="103"/>
      <point x="503" y="103" type="curve" smooth="yes"/>
    </contour>
    <contour>
      <point x="415" y="550" type="move" name="caronslovak"/>
    </contour>
    <contour>
      <point x="136" y="711" type="move" name="top"/>
    </contour>
    <contour>
      <point x="407" y="400" type="move" name="dot"/>
    </contour>
    <contour>
      <point x="309" y="-1" type="move" name="bottom"/>
    </contour>
  </outline>
</glyph>
<glyph name="M" format="1">
  <advance width="600"/>
  <unicode hex="004D"/>
  <outline>
    <contour>
      <point x="161" y="-9" type="curve"/>
      <point x="161" y="60"/>
      <point x="161" y="129"/>
      <point x="161" y="198" type="curve" smooth="yes"/>
      <point x="161" y="342"/>
      <point x="147" y="529"/>
      <point x="147" y="679" type="curve" smooth="yes"/>
      <point x="147" y="686"/>
      <point x="145" y="694"/>
      <point x="141" y="699" type="curve" smooth="yes"/>
      <point x="132" y="707"/>
      <point x="126" y="710"/>
      <point x="112" y="710" type="curve" smooth="yes"/>
      <point x="97" y="710"/>
      <point x="81" y="708"/>
      <point x="62" y="705" type="curve"/>
      <point x="66" y="671"/>
      <point x="68" y="636"/>
      <point x="68" y="600" type="curve" smooth="yes"/>
      <point x="68" y="33" type="line" smooth="yes"/>
      <point x="68" y="22"/>
      <point x="71" y="15"/>
      <point x="78" y="8" type="curve" smooth="yes"/>
      <point x="90" y="-4"/>
      <point x="117" y="-10"/>
      <point x="141" y="-10" type="curve" smooth="yes"/>
      <point x="149" y="-10"/>
      <point x="156" y="-10"/>
    </contour>
    <contour>
      <point x="541" y="-7" type="curve"/>
      <point x="535" y="28"/>
      <point x="532" y="63"/>
      <point x="532" y="100" type="curve" smooth="yes"/>
      <point x="532" y="673" type="line" smooth="yes"/>
      <point x="532" y="681"/>
      <point x="529" y="687"/>
      <point x="524" y="692" type="curve" smooth="yes"/>
      <point x="515" y="702"/>
      <point x="488" y="710"/>
      <point x="450" y="710" type="curve" smooth="yes"/>
      <point x="443" y="710" type="line"/>
      <point x="453" y="698"/>
      <point x="455" y="691"/>
      <point x="455" y="670" type="curve" smooth="yes"/>
      <point x="455" y="542"/>
      <point x="439" y="293"/>
      <point x="439" y="192" type="curve" smooth="yes"/>
      <point x="439" y="143"/>
      <point x="439" y="93"/>
      <point x="439" y="44" type="curve" smooth="yes"/>
      <point x="439" y="26"/>
      <point x="441" y="17"/>
      <point x="450" y="8" type="curve" smooth="yes"/>
      <point x="462" y="-4"/>
      <point x="487" y="-10"/>
      <point x="512" y="-10" type="curve"/>
      <point x="522" y="-10"/>
      <point x="531" y="-9"/>
    </contour>
    <contour>
      <point x="112" y="710" type="line"/>
      <point x="143" y="499"/>
      <point x="221" y="287"/>
      <point x="284" y="224" type="curve"/>
      <point x="288" y="220"/>
      <point x="295" y="218"/>
      <point x="300" y="218" type="curve"/>
      <point x="311" y="218"/>
      <point x="317" y="266"/>
      <point x="316" y="308" type="curve"/>
      <point x="265" y="377"/>
      <point x="213" y="526"/>
      <point x="191" y="680" type="curve"/>
      <point x="189" y="696"/>
      <point x="156" y="710"/>
      <point x="115" y="710" type="curve"/>
    </contour>
    <contour>
      <point x="443" y="710" type="curve" smooth="yes"/>
      <point x="431" y="710"/>
      <point x="423" y="709"/>
      <point x="413" y="707" type="curve"/>
      <point x="390" y="510"/>
      <point x="336" y="374"/>
      <point x="281" y="311" type="curve"/>
      <point x="272" y="303"/>
      <point x="283" y="218"/>
      <point x="300" y="218" type="curve"/>
      <point x="309" y="218" type="line"/>
      <point x="385" y="299"/>
      <point x="459" y="499"/>
      <point x="469" y="663" type="curve"/>
      <point x="471" y="696"/>
      <point x="463" y="710"/>
    </contour>
  </outline>
</glyph>
<glyph name="N" format="1">
  <advance width="600"/>
  <unicode hex="004E"/>
  <outline>
    <contour>
      <point x="171" y="-6" type="curve"/>
      <point x="171" y="295" type="line"/>
      <point x="171" y="509"/>
      <point x="153" y="686"/>
      <point x="138" y="700" type="curve" smooth="yes"/>
      <point x="133" y="705"/>
      <point x="126" y="710"/>
      <point x="121" y="710" type="curve"/>
      <point x="103" y="710"/>
      <point x="89" y="709"/>
      <point x="68" y="704" type="curve"/>
      <point x="75" y="669"/>
      <point x="78" y="626"/>
      <point x="78" y="595" type="curve" smooth="yes"/>
      <point x="78" y="34" type="line"/>
      <point x="78" y="1"/>
      <point x="116" y="-10"/>
      <point x="145" y="-10" type="curve"/>
      <point x="156" y="-10"/>
      <point x="163" y="-9"/>
    </contour>
    <contour>
      <point x="527" y="-10" type="line"/>
      <point x="527" y="670" type="line"/>
      <point x="527" y="698"/>
      <point x="493" y="710"/>
      <point x="451" y="710" type="curve"/>
      <point x="434" y="710" type="line"/>
      <point x="434" y="260" type="line"/>
      <point x="434" y="133"/>
      <point x="447" y="26"/>
      <point x="465" y="8" type="curve" smooth="yes"/>
      <point x="478" y="-5"/>
      <point x="493" y="-10"/>
      <point x="506" y="-10" type="curve"/>
    </contour>
    <contour>
      <point x="121" y="710" type="line"/>
      <point x="135" y="688"/>
      <point x="142" y="651"/>
      <point x="148" y="619" type="curve" smooth="yes"/>
      <point x="201" y="343"/>
      <point x="342" y="106"/>
      <point x="432" y="15" type="curve"/>
      <point x="449" y="-1"/>
      <point x="474" y="-10"/>
      <point x="506" y="-10" type="curve" smooth="yes"/>
      <point x="510" y="-10"/>
      <point x="510" y="-10"/>
      <point x="514" y="-10" type="curve"/>
      <point x="517" y="-10"/>
      <point x="520" y="14"/>
      <point x="519" y="47" type="curve"/>
      <point x="347" y="225"/>
      <point x="268" y="429"/>
      <point x="210" y="676" type="curve"/>
      <point x="205" y="697"/>
      <point x="164" y="710"/>
      <point x="123" y="710" type="curve"/>
    </contour>
    <contour>
      <point x="300" y="711" type="move" name="top"/>
    </contour>
    <contour>
      <point x="297" y="-1" type="move" name="bottom"/>
    </contour>
  </outline>
</glyph>
<glyph name="O" format="1">
  <advance width="600"/>
  <unicode hex="004F"/>
  <outline>
    <contour>
      <point x="298" y="720" type="curve" smooth="yes"/>
      <point x="148" y="720"/>
      <point x="58" y="577"/>
      <point x="58" y="338" type="curve" smooth="yes"/>
      <point x="58" y="315" type="line" smooth="yes"/>
      <point x="58" y="100"/>
      <point x="138" y="-20"/>
      <point x="302" y="-20" type="curve" smooth="yes"/>
      <point x="328" y="-20"/>
      <point x="346" y="9"/>
      <point x="346" y="53" type="curve"/>
      <point x="209" y="56"/>
      <point x="156" y="145"/>
      <point x="156" y="306" type="curve" smooth="yes"/>
      <point x="156" y="324" type="line" smooth="yes"/>
      <point x="156" y="510"/>
      <point x="206" y="622"/>
      <point x="309" y="622" type="curve" smooth="yes"/>
      <point x="347" y="622"/>
      <point x="381" y="610"/>
      <point x="422" y="583" type="curve"/>
      <point x="466" y="624"/>
      <point x="386" y="720"/>
    </contour>
    <contour>
      <point x="302" y="-20" type="curve" smooth="yes"/>
      <point x="453" y="-20"/>
      <point x="542" y="115"/>
      <point x="542" y="341" type="curve" smooth="yes"/>
      <point x="542" y="364" type="line" smooth="yes"/>
      <point x="542" y="592"/>
      <point x="462" y="720"/>
      <point x="298" y="720" type="curve" smooth="yes"/>
      <point x="272" y="720"/>
      <point x="254" y="691"/>
      <point x="254" y="647" type="curve"/>
      <point x="391" y="644"/>
      <point x="444" y="547"/>
      <point x="444" y="374" type="curve" smooth="yes"/>
      <point x="444" y="356" type="line" smooth="yes"/>
      <point x="444" y="181"/>
      <point x="394" y="78"/>
      <point x="291" y="78" type="curve" smooth="yes"/>
      <point x="253" y="78"/>
      <point x="217" y="88"/>
      <point x="178" y="117" type="curve"/>
      <point x="133" y="75"/>
      <point x="214" y="-20"/>
    </contour>
    <contour>
      <point x="300" y="711" type="move" name="top"/>
    </contour>
    <contour>
      <point x="404" y="14" type="move" name="ogonek"/>
    </contour>
    <contour>
      <point x="300" y="-1" type="move" name="bottom"/>
    </contour>
  </outline>
</glyph>
<glyph name="P" format="1">
  <advance width="600"/>
  <unicode hex="0050"/>
  <outline>
    <contour>
      <point x="201" y="-5" type="curve"/>
      <point x="194" y="30"/>
      <point x="191" y="66"/>
      <point x="191" y="105" type="curve" smooth="yes"/>
      <point x="191" y="555" type="line" smooth="yes"/>
      <point x="191" y="621"/>
      <point x="158" y="648"/>
      <point x="88" y="648" type="curve"/>
      <point x="88" y="55" type="line" smooth="yes"/>
      <point x="88" y="31"/>
      <point x="91" y="16"/>
      <point x="102" y="5" type="curve" smooth="yes"/>
      <point x="113" y="-6"/>
      <point x="128" y="-10"/>
      <point x="160" y="-10" type="curve" smooth="yes"/>
      <point x="175" y="-10"/>
      <point x="187" y="-9"/>
    </contour>
    <contour>
      <point x="38" y="700" type="curve"/>
      <point x="36" y="690"/>
      <point x="35" y="680"/>
      <point x="35" y="667" type="curve"/>
      <point x="35" y="638"/>
      <point x="40" y="620"/>
      <point x="51" y="608" type="curve" smooth="yes"/>
      <point x="57" y="603"/>
      <point x="63" y="602"/>
      <point x="70" y="602" type="curve" smooth="yes"/>
      <point x="78" y="602"/>
      <point x="91" y="604"/>
      <point x="115" y="607" type="curve" smooth="yes"/>
      <point x="161" y="615"/>
      <point x="222" y="622"/>
      <point x="280" y="622" type="curve" smooth="yes"/>
      <point x="369" y="622"/>
      <point x="408" y="602"/>
      <point x="458" y="550" type="curve"/>
      <point x="530" y="622"/>
      <point x="418" y="720"/>
      <point x="292" y="720" type="curve" smooth="yes"/>
      <point x="211" y="720"/>
      <point x="130" y="715"/>
    </contour>
    <contour>
      <point x="537" y="480" type="curve" smooth="yes"/>
      <point x="537" y="519" type="line" smooth="yes"/>
      <point x="537" y="635"/>
      <point x="435" y="720"/>
      <point x="292" y="720" type="curve"/>
      <point x="263" y="720"/>
      <point x="253" y="703"/>
      <point x="253" y="675" type="curve"/>
      <point x="374" y="666"/>
      <point x="435" y="620"/>
      <point x="435" y="511" type="curve" smooth="yes"/>
      <point x="435" y="479" type="line" smooth="yes"/>
      <point x="435" y="346"/>
      <point x="345" y="266"/>
      <point x="237" y="266" type="curve" smooth="yes"/>
      <point x="203" y="266"/>
      <point x="192" y="268"/>
      <point x="176" y="271" type="curve"/>
      <point x="171" y="265"/>
      <point x="169" y="260"/>
      <point x="169" y="250" type="curve" smooth="yes"/>
      <point x="169" y="218"/>
      <point x="214" y="172"/>
      <point x="256" y="172" type="curve" smooth="yes"/>
      <point x="260" y="172" type="line" smooth="yes"/>
      <point x="406" y="172"/>
      <point x="537" y="293"/>
    </contour>
  </outline>
</glyph>
<glyph name="Q" format="1">
  <advance width="600"/>
  <unicode hex="0051"/>
  <outline>
    <contour>
      <point x="298" y="720" type="curve" smooth="yes"/>
      <point x="147" y="720"/>
      <point x="58" y="577"/>
      <point x="58" y="338" type="curve" smooth="yes"/>
      <point x="58" y="315" type="line" smooth="yes"/>
      <point x="58" y="100"/>
      <point x="138" y="-20"/>
      <point x="302" y="-20" type="curve" smooth="yes"/>
      <point x="328" y="-20"/>
      <point x="346" y="9"/>
      <point x="346" y="53" type="curve"/>
      <point x="209" y="56"/>
      <point x="156" y="145"/>
      <point x="156" y="306" type="curve" smooth="yes"/>
      <point x="156" y="324" type="line" smooth="yes"/>
      <point x="156" y="510"/>
      <point x="206" y="622"/>
      <point x="309" y="622" type="curve" smooth="yes"/>
      <point x="347" y="622"/>
      <point x="381" y="610"/>
      <point x="422" y="583" type="curve"/>
      <point x="466" y="624"/>
      <point x="386" y="720"/>
    </contour>
    <contour>
      <point x="302" y="-20" type="curve" smooth="yes"/>
      <point x="453" y="-20"/>
      <point x="542" y="115"/>
      <point x="542" y="341" type="curve" smooth="yes"/>
      <point x="542" y="364" type="line" smooth="yes"/>
      <point x="542" y="592"/>
      <point x="462" y="720"/>
      <point x="298" y="720" type="curve" smooth="yes"/>
      <point x="272" y="720"/>
      <point x="254" y="691"/>
      <point x="254" y="647" type="curve"/>
      <point x="391" y="644"/>
      <point x="444" y="547"/>
      <point x="444" y="374" type="curve" smooth="yes"/>
      <point x="444" y="356" type="line" smooth="yes"/>
      <point x="444" y="181"/>
      <point x="394" y="78"/>
      <point x="291" y="78" type="curve" smooth="yes"/>
      <point x="253" y="78"/>
      <point x="217" y="88"/>
      <point x="178" y="117" type="curve"/>
      <point x="133" y="75"/>
      <point x="214" y="-20"/>
    </contour>
    <contour>
      <point x="398" y="89" type="line"/>
      <point x="341" y="57"/>
      <point x="327" y="32"/>
      <point x="337" y="13" type="curve" smooth="yes"/>
      <point x="392" y="-78" type="line" smooth="yes"/>
      <point x="431" y="-140"/>
      <point x="466" y="-170"/>
      <point x="511" y="-170" type="curve" smooth="yes"/>
      <point x="515" y="-170" type="line" smooth="yes"/>
      <point x="560" y="-170"/>
      <point x="581" y="-145"/>
      <point x="581" y="-87" type="curve" smooth="yes"/>
      <point x="581" y="-68"/>
      <point x="579" y="-54"/>
      <point x="576" y="-39" type="curve"/>
      <point x="572" y="-39" type="line"/>
      <point x="561" y="-48"/>
      <point x="549" y="-52"/>
      <point x="532" y="-52" type="curve" smooth="yes"/>
      <point x="504" y="-52"/>
      <point x="484" y="-42"/>
      <point x="464" y="-12" type="curve" smooth="yes"/>
    </contour>
  </outline>
</glyph>
<glyph name="T" format="1">
  <advance width="600"/>
  <unicode hex="0054"/>
  <outline>
    <contour>
      <point x="43" y="700" type="line"/>
      <point x="40" y="694"/>
      <point x="39" y="685"/>
      <point x="39" y="676" type="curve" smooth="yes"/>
      <point x="39" y="656"/>
      <point x="45" y="632"/>
      <point x="59" y="618" type="curve" smooth="yes"/>
      <point x="71" y="605"/>
      <point x="90" y="602"/>
      <point x="133" y="602" type="curve" smooth="yes"/>
      <point x="553" y="602" type="line"/>
      <point x="555" y="611"/>
      <point x="557" y="623"/>
      <point x="557" y="637" type="curve" smooth="yes"/>
      <point x="557" y="674"/>
      <point x="549" y="700"/>
      <point x="515" y="700" type="curve" smooth="yes"/>
    </contour>
    <contour>
      <point x="362" y="-5" type="curve"/>
      <point x="354" y="30"/>
      <point x="352" y="66"/>
      <point x="352" y="105" type="curve" smooth="yes"/>
      <point x="352" y="544" type="line" smooth="yes"/>
      <point x="352" y="610"/>
      <point x="326" y="633"/>
      <point x="248" y="633" type="curve"/>
      <point x="248" y="55" type="line" smooth="yes"/>
      <point x="248" y="31"/>
      <point x="251" y="16"/>
      <point x="263" y="5" type="curve" smooth="yes"/>
      <point x="273" y="-6"/>
      <point x="289" y="-10"/>
      <point x="320" y="-10" type="curve" smooth="yes"/>
      <point x="336" y="-10"/>
      <point x="347" y="-9"/>
    </contour>
    <contour>
      <point x="298" y="711" type="move" name="top"/>
    </contour>
    <contour>
      <point x="300" y="-1" type="move" name="bottom"/>
    </contour>
  </outline>
</glyph>
<glyph name="X" format="1">
  <advance width="600"/>
  <unicode hex="0058"/>
  <outline>
    <contour>
      <point x="530" y="-8" type="curve" smooth="yes"/>
      <point x="547" y="-8"/>
      <point x="562" y="-6"/>
      <point x="575" y="-2" type="curve"/>
      <point x="497" y="77"/>
      <point x="412" y="196"/>
      <point x="337" y="319" type="curve" smooth="yes"/>
      <point x="328" y="336"/>
      <point x="319" y="352"/>
      <point x="310" y="368" type="curve" smooth="yes"/>
      <point x="244" y="480"/>
      <point x="192" y="594"/>
      <point x="161" y="676" type="curve" smooth="yes"/>
      <point x="152" y="702"/>
      <point x="114" y="708"/>
      <point x="43" y="708" type="curve" smooth="yes"/>
      <point x="25" y="708" type="line"/>
      <point x="74" y="585"/>
      <point x="150" y="434"/>
      <point x="232" y="298" type="curve" smooth="yes"/>
      <point x="241" y="284"/>
      <point x="250" y="269"/>
      <point x="258" y="255" type="curve" smooth="yes"/>
      <point x="318" y="162"/>
      <point x="380" y="79"/>
      <point x="430" y="25" type="curve" smooth="yes"/>
      <point x="449" y="0"/>
      <point x="483" y="-8"/>
    </contour>
    <contour>
      <point x="476" y="708" type="curve"/>
      <point x="461" y="708" type="line"/>
      <point x="416" y="559"/>
      <point x="360" y="453"/>
      <point x="274" y="353" type="curve"/>
      <point x="247" y="320"/>
      <point x="277" y="281"/>
      <point x="324" y="284" type="curve"/>
      <point x="444" y="407"/>
      <point x="505" y="518"/>
      <point x="558" y="664" type="curve"/>
      <point x="561" y="673"/>
      <point x="560" y="679"/>
      <point x="556" y="683" type="curve" smooth="yes"/>
      <point x="538" y="701"/>
      <point x="507" y="708"/>
    </contour>
    <contour>
      <point x="124" y="-8" type="curve" smooth="yes"/>
      <point x="134" y="-8" type="line"/>
      <point x="170" y="98"/>
      <point x="230" y="196"/>
      <point x="300" y="268" type="curve"/>
      <point x="326" y="294"/>
      <point x="299" y="346"/>
      <point x="256" y="348" type="curve"/>
      <point x="153" y="246"/>
      <point x="82" y="139"/>
      <point x="35" y="39" type="curve"/>
      <point x="29" y="28"/>
      <point x="32" y="21"/>
      <point x="37" y="16" type="curve" smooth="yes"/>
      <point x="54" y="-1"/>
      <point x="87" y="-8"/>
    </contour>
  </outline>
</glyph>
<glyph name="Y" format="1">
  <advance width="600"/>
  <unicode hex="0059"/>
  <outline>
    <contour>
      <point x="44" y="710" type="line"/>
      <point x="79" y="459"/>
      <point x="132" y="343"/>
      <point x="241" y="234" type="curve"/>
      <point x="263" y="212"/>
      <point x="284" y="210"/>
      <point x="301" y="210" type="curve"/>
      <point x="329" y="210"/>
      <point x="346" y="225"/>
      <point x="347" y="272" type="curve"/>
      <point x="234" y="363"/>
      <point x="185" y="444"/>
      <point x="152" y="676" type="curve"/>
      <point x="149" y="696"/>
      <point x="107" y="710"/>
      <point x="61" y="710" type="curve" smooth="yes"/>
    </contour>
    <contour>
      <point x="453" y="710" type="line"/>
      <point x="426" y="478"/>
      <point x="382" y="385"/>
      <point x="268" y="281" type="curve"/>
      <point x="243" y="259"/>
      <point x="270" y="210"/>
      <point x="301" y="210" type="curve"/>
      <point x="336" y="210" type="line"/>
      <point x="449" y="316"/>
      <point x="527" y="453"/>
      <point x="551" y="660" type="curve"/>
      <point x="554" y="688"/>
      <point x="514" y="710"/>
      <point x="470" y="710" type="curve"/>
    </contour>
    <contour>
      <point x="362" y="-5" type="curve"/>
      <point x="354" y="30"/>
      <point x="352" y="66"/>
      <point x="352" y="105" type="curve" smooth="yes"/>
      <point x="352" y="247" type="line" smooth="yes"/>
      <point x="352" y="276"/>
      <point x="306" y="292"/>
      <point x="248" y="292" type="curve"/>
      <point x="248" y="55" type="line" smooth="yes"/>
      <point x="248" y="31"/>
      <point x="251" y="16"/>
      <point x="263" y="5" type="curve" smooth="yes"/>
      <point x="273" y="-6"/>
      <point x="289" y="-10"/>
      <point x="320" y="-10" type="curve" smooth="yes"/>
      <point x="336" y="-10"/>
      <point x="347" y="-9"/>
    </contour>
    <contour>
      <point x="300" y="711" type="move" name="top"/>
    </contour>
  </outline>
</glyph>
<glyph name="Z" format="1">
  <advance width="600"/>
  <unicode hex="005A"/>
  <outline>
    <contour>
      <point x="109" y="700" type="line"/>
      <point x="107" y="694"/>
      <point x="105" y="684"/>
      <point x="105" y="674" type="curve" smooth="yes"/>
      <point x="105" y="646"/>
      <point x="111" y="626"/>
      <point x="125" y="612" type="curve" smooth="yes"/>
      <point x="133" y="604"/>
      <point x="139" y="602"/>
      <point x="151" y="602" type="curve" smooth="yes"/>
      <point x="400" y="602" type="line" smooth="yes"/>
      <point x="460" y="602"/>
      <point x="491" y="588"/>
      <point x="522" y="557" type="curve" smooth="yes"/>
      <point x="536" y="572"/>
      <point x="545" y="584"/>
      <point x="545" y="594" type="curve"/>
      <point x="545" y="600" type="line" smooth="yes"/>
      <point x="545" y="649"/>
      <point x="504" y="700"/>
      <point x="454" y="700" type="curve" smooth="yes"/>
    </contour>
    <contour>
      <point x="459" y="640" type="curve"/>
      <point x="393" y="431"/>
      <point x="275" y="285"/>
      <point x="55" y="94" type="curve"/>
      <point x="55" y="60"/>
      <point x="106" y="50"/>
      <point x="143" y="70" type="curve" smooth="yes"/>
      <point x="362" y="221"/>
      <point x="545" y="516"/>
      <point x="545" y="594" type="curve"/>
      <point x="545" y="625"/>
      <point x="516" y="639"/>
    </contour>
    <contour>
      <point x="543" y="0" type="line"/>
      <point x="544" y="5"/>
      <point x="545" y="12"/>
      <point x="545" y="20" type="curve" smooth="yes"/>
      <point x="545" y="50"/>
      <point x="537" y="71"/>
      <point x="521" y="87" type="curve" smooth="yes"/>
      <point x="513" y="95"/>
      <point x="506" y="98"/>
      <point x="492" y="98" type="curve" smooth="yes"/>
      <point x="314" y="98" type="line" smooth="yes"/>
      <point x="237" y="98"/>
      <point x="132" y="97"/>
      <point x="55" y="94" type="curve"/>
      <point x="55" y="81" type="line" smooth="yes"/>
      <point x="55" y="32"/>
      <point x="68" y="0"/>
      <point x="94" y="0" type="curve" smooth="yes"/>
    </contour>
    <contour>
      <point x="168" y="491" type="curve"/>
      <point x="168" y="588"/>
      <point x="184" y="649"/>
      <point x="184" y="682" type="curve"/>
      <point x="184" y="705"/>
      <point x="147" y="720"/>
      <point x="102" y="720" type="curve" smooth="yes"/>
      <point x="94" y="720" type="line"/>
      <point x="78" y="660"/>
      <point x="70" y="596"/>
      <point x="70" y="530" type="curve"/>
      <point x="70" y="498"/>
      <point x="91" y="488"/>
      <point x="135" y="488" type="curve" smooth="yes"/>
      <point x="147" y="488"/>
      <point x="159" y="489"/>
    </contour>
    <contour>
      <point x="300" y="711" type="move" name="top"/>
    </contour>
  </outline>
</glyph>
<glyph name="bracketleft" format="1">
  <advance width="600"/>
  <unicode hex="005B"/>
  <outline>
    <contour>
      <point x="204" y="645" type="curve" smooth="yes"/>
      <point x="204" y="-64" type="line" smooth="yes"/>
      <point x="204" y="-95"/>
      <point x="260" y="-101"/>
      <point x="308" y="-101" type="curve"/>
      <point x="308" y="705" type="line" smooth="yes"/>
      <point x="308" y="745"/>
      <point x="295" y="760"/>
      <point x="241" y="760" type="curve" smooth="yes"/>
      <point x="224" y="760"/>
      <point x="210" y="759"/>
      <point x="195" y="755" type="curve"/>
      <point x="202" y="719"/>
      <point x="204" y="684"/>
    </contour>
    <contour>
      <point x="510" y="662" type="line"/>
      <point x="513" y="671"/>
      <point x="515" y="683"/>
      <point x="515" y="696" type="curve" smooth="yes"/>
      <point x="515" y="711"/>
      <point x="511" y="738"/>
      <point x="498" y="752" type="curve" smooth="yes"/>
      <point x="492" y="758"/>
      <point x="486" y="760"/>
      <point x="475" y="760" type="curve" smooth="yes"/>
      <point x="241" y="760" type="line"/>
      <point x="241" y="698"/>
      <point x="270" y="662"/>
      <point x="356" y="662" type="curve"/>
    </contour>
    <contour>
      <point x="512" y="-161" type="line"/>
      <point x="514" y="-152"/>
      <point x="515" y="-140"/>
      <point x="515" y="-128" type="curve" smooth="yes"/>
      <point x="515" y="-82"/>
      <point x="502" y="-63"/>
      <point x="473" y="-63" type="curve" smooth="yes"/>
      <point x="204" y="-63" type="line"/>
      <point x="204" y="-76" type="line" smooth="yes"/>
      <point x="204" y="-115"/>
      <point x="241" y="-161"/>
      <point x="272" y="-161" type="curve" smooth="yes"/>
    </contour>
  </outline>
</glyph>
<glyph name="backslash" format="1">
  <advance width="600"/>
  <unicode hex="005C"/>
  <outline>
    <contour>
      <point x="68" y="750" type="curve"/>
      <point x="142" y="435"/>
      <point x="251" y="157"/>
      <point x="396" y="-85" type="curve" smooth="yes"/>
      <point x="418" y="-122"/>
      <point x="445" y="-137"/>
      <point x="481" y="-137" type="curve" smooth="yes"/>
      <point x="503" y="-137"/>
      <point x="520" y="-133"/>
      <point x="538" y="-123" type="curve"/>
      <point x="518" y="-102"/>
      <point x="502" y="-79"/>
      <point x="484" y="-46" type="curve"/>
      <point x="351" y="187"/>
      <point x="252" y="443"/>
      <point x="185" y="720" type="curve"/>
      <point x="178" y="750"/>
      <point x="151" y="762"/>
      <point x="115" y="762" type="curve" smooth="yes"/>
      <point x="97" y="762"/>
      <point x="84" y="758"/>
    </contour>
  </outline>
</glyph>
<glyph name="bracketright" format="1">
  <advance width="600"/>
  <unicode hex="005D"/>
  <outline>
    <contour>
      <point x="396" y="-46" type="curve" smooth="yes"/>
      <point x="396" y="663" type="line" smooth="yes"/>
      <point x="396" y="694"/>
      <point x="340" y="700"/>
      <point x="292" y="700" type="curve"/>
      <point x="292" y="-106" type="line" smooth="yes"/>
      <point x="292" y="-146"/>
      <point x="305" y="-161"/>
      <point x="359" y="-161" type="curve" smooth="yes"/>
      <point x="376" y="-161"/>
      <point x="390" y="-160"/>
      <point x="405" y="-156" type="curve"/>
      <point x="398" y="-120"/>
      <point x="396" y="-85"/>
    </contour>
    <contour>
      <point x="90" y="-63" type="line"/>
      <point x="87" y="-72"/>
      <point x="85" y="-84"/>
      <point x="85" y="-97" type="curve" smooth="yes"/>
      <point x="85" y="-112"/>
      <point x="89" y="-139"/>
      <point x="102" y="-153" type="curve" smooth="yes"/>
      <point x="108" y="-159"/>
      <point x="114" y="-161"/>
      <point x="125" y="-161" type="curve" smooth="yes"/>
      <point x="359" y="-161" type="line"/>
      <point x="359" y="-99"/>
      <point x="330" y="-63"/>
      <point x="244" y="-63" type="curve"/>
    </contour>
    <contour>
      <point x="88" y="760" type="line"/>
      <point x="86" y="751"/>
      <point x="85" y="739"/>
      <point x="85" y="727" type="curve" smooth="yes"/>
      <point x="85" y="681"/>
      <point x="98" y="662"/>
      <point x="127" y="662" type="curve" smooth="yes"/>
      <point x="396" y="662" type="line"/>
      <point x="396" y="675" type="line" smooth="yes"/>
      <point x="396" y="714"/>
      <point x="359" y="760"/>
      <point x="328" y="760" type="curve" smooth="yes"/>
    </contour>
  </outline>
</glyph>
<glyph name="asciicircum" format="1">
  <advance width="600"/>
  <unicode hex="005E"/>
  <outline>
    <contour>
      <point x="146" y="366" type="line"/>
      <point x="181" y="521"/>
      <point x="235" y="599"/>
      <point x="328" y="694" type="curve"/>
      <point x="333" y="737"/>
      <point x="320" y="756"/>
      <point x="297" y="760" type="curve"/>
      <point x="269" y="760" type="line"/>
      <point x="192" y="695"/>
      <point x="122" y="596"/>
      <point x="77" y="476" type="curve" smooth="yes"/>
      <point x="63" y="439"/>
      <point x="56" y="413"/>
      <point x="56" y="402" type="curve" smooth="yes"/>
      <point x="56" y="381"/>
      <point x="91" y="366"/>
      <point x="132" y="366" type="curve"/>
    </contour>
    <contour>
      <point x="539" y="373" type="curve"/>
      <point x="495" y="545"/>
      <point x="438" y="639"/>
      <point x="358" y="727" type="curve" smooth="yes"/>
      <point x="332" y="754"/>
      <point x="320" y="760"/>
      <point x="301" y="760" type="curve" smooth="yes"/>
      <point x="293" y="760" type="line" smooth="yes"/>
      <point x="276" y="760"/>
      <point x="249" y="725"/>
      <point x="238" y="697" type="curve"/>
      <point x="243" y="697"/>
      <point x="247" y="697"/>
      <point x="250" y="697" type="curve" smooth="yes"/>
      <point x="254" y="697"/>
      <point x="261" y="694"/>
      <point x="266" y="688" type="curve" smooth="yes"/>
      <point x="354" y="602"/>
      <point x="390" y="539"/>
      <point x="433" y="396" type="curve" smooth="yes"/>
      <point x="438" y="380"/>
      <point x="462" y="367"/>
      <point x="500" y="367" type="curve" smooth="yes"/>
      <point x="515" y="367"/>
      <point x="527" y="369"/>
    </contour>
  </outline>
</glyph>
<glyph name="underscore" format="1">
  <advance width="600"/>
  <unicode hex="005F"/>
  <outline>
    <contour>
      <point x="55" y="-76" type="line"/>
      <point x="55" y="-80"/>
      <point x="55" y="-85"/>
      <point x="55" y="-90" type="curve" smooth="yes"/>
      <point x="55" y="-127"/>
      <point x="61" y="-149"/>
      <point x="73" y="-162" type="curve" smooth="yes"/>
      <point x="82" y="-171"/>
      <point x="94" y="-174"/>
      <point x="119" y="-174" type="curve"/>
      <point x="547" y="-174" type="line"/>
      <point x="549" y="-163"/>
      <point x="551" y="-149"/>
      <point x="551" y="-139" type="curve" smooth="yes"/>
      <point x="551" y="-95"/>
      <point x="540" y="-76"/>
      <point x="503" y="-76" type="curve"/>
    </contour>
  </outline>
</glyph>
<glyph name="grave" format="1">
  <advance width="600"/>
  <unicode hex="0060"/>
  <outline>
    <contour>
      <point x="420" y="411" type="curve"/>
      <point x="367" y="495"/>
      <point x="331" y="600"/>
      <point x="316" y="712" type="curve"/>
      <point x="297" y="718"/>
      <point x="283" y="720"/>
      <point x="263" y="720" type="curve" smooth="yes"/>
      <point x="215" y="720"/>
      <point x="180" y="709"/>
      <point x="180" y="664" type="curve" smooth="yes"/>
      <point x="180" y="596"/>
      <point x="253" y="449"/>
      <point x="310" y="400" type="curve" smooth="yes"/>
      <point x="320" y="392"/>
      <point x="330" y="388"/>
      <point x="346" y="388" type="curve" smooth="yes"/>
      <point x="377" y="388"/>
      <point x="399" y="395"/>
    </contour>
  </outline>
</glyph>
<glyph name="b" format="1">
  <advance width="600"/>
  <unicode hex="0062"/>
  <outline>
    <contour>
      <point x="88" y="0" type="line"/>
      <point x="98" y="-3"/>
      <point x="110" y="-5"/>
      <point x="125" y="-5" type="curve" smooth="yes"/>
      <point x="169" y="-5"/>
      <point x="187" y="16"/>
      <point x="187" y="55" type="curve" smooth="yes"/>
      <point x="187" y="657" type="line"/>
      <point x="187" y="728"/>
      <point x="166" y="758"/>
      <point x="108" y="758" type="curve" smooth="yes"/>
      <point x="97" y="758"/>
      <point x="87" y="757"/>
      <point x="75" y="753" type="curve"/>
      <point x="85" y="723"/>
      <point x="88" y="698"/>
      <point x="88" y="654" type="curve" smooth="yes"/>
    </contour>
    <contour>
      <point x="385" y="544" type="curve" smooth="yes"/>
      <point x="294" y="544"/>
      <point x="204" y="462"/>
      <point x="172" y="355" type="curve" smooth="yes"/>
      <point x="160" y="313"/>
      <point x="164" y="264"/>
      <point x="178" y="233" type="curve"/>
      <point x="234" y="387"/>
      <point x="299" y="440"/>
      <point x="378" y="440" type="curve" smooth="yes"/>
      <point x="421" y="440"/>
      <point x="463" y="399"/>
      <point x="498" y="318" type="curve"/>
      <point x="530" y="320"/>
      <point x="542" y="329"/>
      <point x="542" y="337" type="curve" smooth="yes"/>
      <point x="542" y="457"/>
      <point x="474" y="544"/>
    </contour>
    <contour>
      <point x="328" y="-11" type="curve" smooth="yes"/>
      <point x="446" y="-11"/>
      <point x="542" y="87"/>
      <point x="542" y="318" type="curve" smooth="yes"/>
      <point x="542" y="337" type="line" smooth="yes"/>
      <point x="542" y="390"/>
      <point x="505" y="471"/>
      <point x="448" y="471" type="curve"/>
      <point x="430" y="471"/>
      <point x="417" y="463"/>
      <point x="416" y="439" type="curve"/>
      <point x="437" y="404"/>
      <point x="441" y="373"/>
      <point x="441" y="317" type="curve" smooth="yes"/>
      <point x="441" y="307" type="line" smooth="yes"/>
      <point x="441" y="161"/>
      <point x="397" y="85"/>
      <point x="304" y="85" type="curve" smooth="yes"/>
      <point x="247" y="85"/>
      <point x="214" y="106"/>
      <point x="175" y="149" type="curve"/>
      <point x="165" y="135"/>
      <point x="162" y="105"/>
      <point x="173" y="86" type="curve" smooth="yes"/>
      <point x="185" y="40"/>
      <point x="250" y="-11"/>
    </contour>
  </outline>
</glyph>
<glyph name="d" format="1">
  <advance width="600"/>
  <unicode hex="0064"/>
  <outline>
    <contour>
      <point x="272" y="544" type="curve" smooth="yes"/>
      <point x="154" y="544"/>
      <point x="58" y="446"/>
      <point x="58" y="215" type="curve" smooth="yes"/>
      <point x="58" y="195" type="line" smooth="yes"/>
      <point x="58" y="142"/>
      <point x="95" y="62"/>
      <point x="152" y="62" type="curve" smooth="yes"/>
      <point x="170" y="62"/>
      <point x="183" y="70"/>
      <point x="184" y="94" type="curve"/>
      <point x="163" y="129"/>
      <point x="159" y="159"/>
      <point x="159" y="216" type="curve" smooth="yes"/>
      <point x="159" y="226" type="line" smooth="yes"/>
      <point x="159" y="372"/>
      <point x="203" y="448"/>
      <point x="296" y="448" type="curve" smooth="yes"/>
      <point x="353" y="448"/>
      <point x="386" y="426"/>
      <point x="425" y="383" type="curve"/>
      <point x="435" y="398"/>
      <point x="438" y="428"/>
      <point x="427" y="447" type="curve" smooth="yes"/>
      <point x="415" y="492"/>
      <point x="350" y="544"/>
    </contour>
    <contour>
      <point x="215" y="-11" type="curve" smooth="yes"/>
      <point x="306" y="-11"/>
      <point x="396" y="71"/>
      <point x="428" y="178" type="curve" smooth="yes"/>
      <point x="440" y="220"/>
      <point x="436" y="269"/>
      <point x="422" y="300" type="curve"/>
      <point x="366" y="146"/>
      <point x="301" y="93"/>
      <point x="222" y="93" type="curve" smooth="yes"/>
      <point x="179" y="93"/>
      <point x="137" y="134"/>
      <point x="102" y="214" type="curve"/>
      <point x="70" y="212"/>
      <point x="58" y="204"/>
      <point x="58" y="195" type="curve" smooth="yes"/>
      <point x="58" y="76"/>
      <point x="126" y="-11"/>
    </contour>
    <contour>
      <point x="402" y="753" type="curve"/>
      <point x="411" y="721"/>
      <point x="413" y="700"/>
      <point x="413" y="657" type="curve" smooth="yes"/>
      <point x="413" y="139" type="line"/>
      <point x="413" y="79"/>
      <point x="427" y="36"/>
      <point x="448" y="16" type="curve" smooth="yes"/>
      <point x="463" y="1"/>
      <point x="480" y="-4"/>
      <point x="497" y="-4" type="curve" smooth="yes"/>
      <point x="506" y="-4"/>
      <point x="514" y="-3"/>
      <point x="524" y="-1" type="curve"/>
      <point x="515" y="31"/>
      <point x="512" y="53"/>
      <point x="512" y="96" type="curve" smooth="yes"/>
      <point x="512" y="689" type="line"/>
      <point x="512" y="712"/>
      <point x="508" y="729"/>
      <point x="498" y="740" type="curve" smooth="yes"/>
      <point x="483" y="754"/>
      <point x="465" y="757"/>
      <point x="441" y="757" type="curve" smooth="yes"/>
      <point x="427" y="757"/>
      <point x="414" y="756"/>
    </contour>
    <contour>
      <point x="508" y="696" type="move" name="caronslovak"/>
    </contour>
  </outline>
</glyph>
<glyph name="f" format="1">
  <advance width="600"/>
  <unicode hex="0066"/>
  <outline>
    <contour>
      <point x="245" y="630" type="curve"/>
      <point x="289" y="662"/>
      <point x="338" y="674"/>
      <point x="400" y="674" type="curve" smooth="yes"/>
      <point x="464" y="674"/>
      <point x="520" y="660"/>
      <point x="557" y="644" type="curve"/>
      <point x="561" y="644" type="line"/>
      <point x="563" y="653"/>
      <point x="563" y="665"/>
      <point x="563" y="675" type="curve"/>
      <point x="563" y="701"/>
      <point x="557" y="725"/>
      <point x="545" y="736" type="curve" smooth="yes"/>
      <point x="531" y="751"/>
      <point x="463" y="765"/>
      <point x="397" y="765" type="curve" smooth="yes"/>
      <point x="303" y="765"/>
      <point x="212" y="683"/>
    </contour>
    <contour>
      <point x="291" y="50" type="curve"/>
      <point x="291" y="515" type="line" smooth="yes"/>
      <point x="285" y="533"/>
      <point x="283" y="552"/>
      <point x="283" y="571" type="curve" smooth="yes"/>
      <point x="283" y="664"/>
      <point x="324" y="714"/>
      <point x="426" y="732" type="curve"/>
      <point x="424" y="759"/>
      <point x="410" y="765"/>
      <point x="397" y="765" type="curve" smooth="yes"/>
      <point x="261" y="765"/>
      <point x="188" y="677"/>
      <point x="188" y="560" type="curve" smooth="yes"/>
      <point x="188" y="163" type="line" smooth="yes"/>
      <point x="188" y="86"/>
      <point x="222" y="50"/>
    </contour>
    <contour>
      <point x="57" y="98" type="line"/>
      <point x="56" y="93"/>
      <point x="55" y="88"/>
      <point x="55" y="81" type="curve" smooth="yes"/>
      <point x="55" y="47"/>
      <point x="60" y="26"/>
      <point x="72" y="13" type="curve" smooth="yes"/>
      <point x="82" y="3"/>
      <point x="95" y="0"/>
      <point x="122" y="0" type="curve"/>
      <point x="512" y="0" type="line"/>
      <point x="514" y="8"/>
      <point x="515" y="16"/>
      <point x="515" y="25" type="curve" smooth="yes"/>
      <point x="515" y="67"/>
      <point x="436" y="98"/>
      <point x="301" y="98" type="curve"/>
    </contour>
    <contour>
      <point x="59" y="518" type="line"/>
      <point x="59" y="514"/>
      <point x="59" y="509"/>
      <point x="59" y="504" type="curve" smooth="yes"/>
      <point x="59" y="472"/>
      <point x="64" y="453"/>
      <point x="77" y="440" type="curve" smooth="yes"/>
      <point x="94" y="423"/>
      <point x="118" y="420"/>
      <point x="180" y="420" type="curve"/>
      <point x="522" y="420" type="line"/>
      <point x="524" y="430"/>
      <point x="525" y="443"/>
      <point x="525" y="455" type="curve" smooth="yes"/>
      <point x="525" y="499"/>
      <point x="514" y="518"/>
      <point x="478" y="518" type="curve"/>
    </contour>
  </outline>
</glyph>
<glyph name="h" format="1">
  <advance width="600"/>
  <unicode hex="0068"/>
  <outline>
    <contour>
      <point x="186" y="-3" type="curve"/>
      <point x="186" y="652" type="line" smooth="yes"/>
      <point x="186" y="695"/>
      <point x="180" y="719"/>
      <point x="165" y="735" type="curve" smooth="yes"/>
      <point x="148" y="752"/>
      <point x="130" y="757"/>
      <point x="100" y="757" type="curve" smooth="yes"/>
      <point x="91" y="757"/>
      <point x="82" y="756"/>
      <point x="73" y="754" type="curve"/>
      <point x="82" y="722"/>
      <point x="85" y="700"/>
      <point x="85" y="657" type="curve" smooth="yes"/>
      <point x="85" y="36" type="line" smooth="yes"/>
      <point x="85" y="1"/>
      <point x="115" y="-5"/>
      <point x="154" y="-5" type="curve" smooth="yes"/>
      <point x="166" y="-5"/>
      <point x="177" y="-5"/>
    </contour>
    <contour>
      <point x="397" y="544" type="curve" smooth="yes"/>
      <point x="306" y="544"/>
      <point x="219" y="450"/>
      <point x="176" y="334" type="curve" smooth="yes"/>
      <point x="159" y="276"/>
      <point x="159" y="217"/>
      <point x="177" y="169" type="curve"/>
      <point x="220" y="349"/>
      <point x="295" y="438"/>
      <point x="369" y="438" type="curve" smooth="yes"/>
      <point x="407" y="438"/>
      <point x="433" y="406"/>
      <point x="445" y="345" type="curve"/>
      <point x="493" y="346"/>
      <point x="514" y="368"/>
      <point x="514" y="391" type="curve" smooth="yes"/>
      <point x="514" y="467"/>
      <point x="466" y="544"/>
    </contour>
    <contour>
      <point x="530" y="0" type="curve"/>
      <point x="518" y="51"/>
      <point x="514" y="86"/>
      <point x="514" y="141" type="curve" smooth="yes"/>
      <point x="514" y="391" type="line"/>
      <point x="514" y="421"/>
      <point x="492" y="439"/>
      <point x="433" y="437" type="curve"/>
      <point x="418" y="304"/>
      <point x="407" y="228"/>
      <point x="407" y="135" type="curve" smooth="yes"/>
      <point x="407" y="130" type="line" smooth="yes"/>
      <point x="407" y="24"/>
      <point x="441" y="-4"/>
      <point x="496" y="-4" type="curve" smooth="yes"/>
      <point x="508" y="-4"/>
      <point x="519" y="-2"/>
    </contour>
    <contour>
      <point x="132" y="730" type="move" name="top"/>
    </contour>
  </outline>
</glyph>
<glyph name="i" format="1">
  <advance width="600"/>
  <unicode hex="0069"/>
  <outline>
    <contour>
      <point x="67" y="533" type="curve"/>
      <point x="64" y="523"/>
      <point x="63" y="510"/>
      <point x="63" y="495" type="curve" smooth="yes"/>
      <point x="63" y="458"/>
      <point x="75" y="434"/>
      <point x="96" y="434" type="curve" smooth="yes"/>
      <point x="128" y="434"/>
      <point x="183" y="443"/>
      <point x="298" y="463" type="curve"/>
      <point x="298" y="519"/>
      <point x="292" y="543"/>
      <point x="266" y="543" type="curve" smooth="yes"/>
      <point x="203" y="543"/>
      <point x="140" y="540"/>
    </contour>
    <contour>
      <point x="354" y="522" type="curve" smooth="yes"/>
      <point x="340" y="535"/>
      <point x="312" y="543"/>
      <point x="276" y="543" type="curve" smooth="yes"/>
      <point x="266" y="543" type="line"/>
      <point x="266" y="169" type="line" smooth="yes"/>
      <point x="266" y="86"/>
      <point x="293" y="50"/>
      <point x="364" y="50" type="curve"/>
      <point x="364" y="497" type="line" smooth="yes"/>
      <point x="364" y="508"/>
      <point x="362" y="514"/>
    </contour>
    <contour>
      <point x="57" y="98" type="line"/>
      <point x="56" y="93"/>
      <point x="55" y="88"/>
      <point x="55" y="81" type="curve" smooth="yes"/>
      <point x="55" y="47"/>
      <point x="60" y="26"/>
      <point x="72" y="13" type="curve" smooth="yes"/>
      <point x="82" y="4"/>
      <point x="95" y="0"/>
      <point x="122" y="0" type="curve"/>
      <point x="558" y="0" type="line"/>
      <point x="560" y="8"/>
      <point x="561" y="16"/>
      <point x="561" y="25" type="curve" smooth="yes"/>
      <point x="561" y="67"/>
      <point x="482" y="98"/>
      <point x="347" y="98" type="curve"/>
    </contour>
    <contour>
      <point x="377" y="646" type="curve"/>
      <point x="377" y="713" type="line" smooth="yes"/>
      <point x="377" y="751"/>
      <point x="344" y="761"/>
      <point x="298" y="761" type="curve" smooth="yes"/>
      <point x="280" y="761"/>
      <point x="261" y="760"/>
      <point x="244" y="757" type="curve"/>
      <point x="244" y="690" type="line" smooth="yes"/>
      <point x="244" y="652"/>
      <point x="278" y="642"/>
      <point x="323" y="642" type="curve" smooth="yes"/>
      <point x="341" y="642"/>
      <point x="360" y="643"/>
    </contour>
    <contour>
      <point x="559" y="0" type="move" name="ogonek"/>
    </contour>
    <contour>
      <point x="308" y="-1" type="move" name="bottom"/>
    </contour>
  </outline>
</glyph>
<glyph name="j" format="1">
  <advance width="600"/>
  <unicode hex="006A"/>
  <outline>
    <contour>
      <point x="67" y="533" type="curve"/>
      <point x="64" y="523"/>
      <point x="63" y="510"/>
      <point x="63" y="495" type="curve" smooth="yes"/>
      <point x="63" y="453"/>
      <point x="77" y="432"/>
      <point x="98" y="432" type="curve" smooth="yes"/>
      <point x="136" y="432"/>
      <point x="220" y="440"/>
      <point x="371" y="453" type="curve"/>
      <point x="371" y="512"/>
      <point x="364" y="543"/>
      <point x="339" y="543" type="curve" smooth="yes"/>
      <point x="265" y="543"/>
      <point x="160" y="541"/>
    </contour>
    <contour>
      <point x="437" y="-3" type="curve" smooth="yes"/>
      <point x="437" y="497" type="line" smooth="yes"/>
      <point x="437" y="508"/>
      <point x="435" y="514"/>
      <point x="427" y="522" type="curve" smooth="yes"/>
      <point x="412" y="536"/>
      <point x="380" y="543"/>
      <point x="346" y="543" type="curve" smooth="yes"/>
      <point x="339" y="543" type="line"/>
      <point x="339" y="0" type="line" smooth="yes"/>
      <point x="339" y="-100"/>
      <point x="326" y="-131"/>
      <point x="278" y="-182" type="curve"/>
      <point x="327" y="-219"/>
      <point x="437" y="-118"/>
    </contour>
    <contour>
      <point x="204" y="-152" type="curve" smooth="yes"/>
      <point x="131" y="-152"/>
      <point x="91" y="-143"/>
      <point x="42" y="-116" type="curve"/>
      <point x="38" y="-116" type="line"/>
      <point x="36" y="-125"/>
      <point x="35" y="-135"/>
      <point x="35" y="-146" type="curve" smooth="yes"/>
      <point x="35" y="-174"/>
      <point x="42" y="-202"/>
      <point x="56" y="-216" type="curve" smooth="yes"/>
      <point x="76" y="-235"/>
      <point x="127" y="-250"/>
      <point x="204" y="-250" type="curve" smooth="yes"/>
      <point x="350" y="-250"/>
      <point x="438" y="-160"/>
      <point x="437" y="-3" type="curve" smooth="yes"/>
      <point x="437" y="6"/>
      <point x="419" y="21"/>
      <point x="404" y="21" type="curve"/>
      <point x="378" y="-131"/>
      <point x="286" y="-152"/>
    </contour>
    <contour>
      <point x="448" y="646" type="curve"/>
      <point x="448" y="713" type="line" smooth="yes"/>
      <point x="448" y="751"/>
      <point x="415" y="761"/>
      <point x="369" y="761" type="curve" smooth="yes"/>
      <point x="352" y="761"/>
      <point x="332" y="760"/>
      <point x="316" y="757" type="curve"/>
      <point x="316" y="690" type="line" smooth="yes"/>
      <point x="316" y="652"/>
      <point x="349" y="642"/>
      <point x="395" y="642" type="curve" smooth="yes"/>
      <point x="412" y="642"/>
      <point x="432" y="643"/>
    </contour>
  </outline>
</glyph>
<glyph name="k" format="1">
  <advance width="600"/>
  <unicode hex="006B"/>
  <outline>
    <contour>
      <point x="189" y="-3" type="curve"/>
      <point x="189" y="663" type="line" smooth="yes"/>
      <point x="189" y="702"/>
      <point x="184" y="721"/>
      <point x="168" y="737" type="curve" smooth="yes"/>
      <point x="153" y="753"/>
      <point x="123" y="757"/>
      <point x="102" y="757" type="curve" smooth="yes"/>
      <point x="93" y="757"/>
      <point x="83" y="756"/>
      <point x="73" y="754" type="curve"/>
      <point x="82" y="722"/>
      <point x="85" y="701"/>
      <point x="85" y="657" type="curve" smooth="yes"/>
      <point x="85" y="36" type="line" smooth="yes"/>
      <point x="85" y="0"/>
      <point x="117" y="-6"/>
      <point x="156" y="-6" type="curve" smooth="yes"/>
      <point x="168" y="-6"/>
      <point x="180" y="-5"/>
    </contour>
    <contour>
      <point x="431" y="542" type="line"/>
      <point x="363" y="371"/>
      <point x="258" y="287"/>
      <point x="122" y="244" type="curve"/>
      <point x="122" y="195"/>
      <point x="140" y="171"/>
      <point x="158" y="175" type="curve" smooth="yes"/>
      <point x="299" y="204"/>
      <point x="435" y="307"/>
      <point x="513" y="463" type="curve" smooth="yes"/>
      <point x="524" y="485"/>
      <point x="526" y="494"/>
      <point x="526" y="503" type="curve" smooth="yes"/>
      <point x="526" y="523"/>
      <point x="494" y="542"/>
      <point x="448" y="542" type="curve"/>
    </contour>
    <contour>
      <point x="510" y="-10" type="curve" smooth="yes"/>
      <point x="537" y="-10"/>
      <point x="552" y="-6"/>
      <point x="567" y="5" type="curve"/>
      <point x="476" y="88"/>
      <point x="395" y="192"/>
      <point x="332" y="304" type="curve"/>
      <point x="292" y="295"/>
      <point x="252" y="267"/>
      <point x="266" y="238" type="curve" smooth="yes"/>
      <point x="306" y="158"/>
      <point x="376" y="65"/>
      <point x="419" y="23" type="curve" smooth="yes"/>
      <point x="443" y="-2"/>
      <point x="468" y="-10"/>
    </contour>
    <contour>
      <point x="320" y="-1" type="move" name="bottom"/>
    </contour>
  </outline>
</glyph>
<glyph name="l" format="1">
  <advance width="600"/>
  <unicode hex="006C"/>
  <outline>
    <contour>
      <point x="67" y="750" type="curve"/>
      <point x="64" y="740"/>
      <point x="63" y="727"/>
      <point x="63" y="713" type="curve" smooth="yes"/>
      <point x="63" y="675"/>
      <point x="75" y="652"/>
      <point x="96" y="652" type="curve" smooth="yes"/>
      <point x="128" y="652"/>
      <point x="183" y="661"/>
      <point x="298" y="680" type="curve"/>
      <point x="298" y="736"/>
      <point x="292" y="760"/>
      <point x="266" y="760" type="curve" smooth="yes"/>
      <point x="203" y="760"/>
      <point x="140" y="757"/>
    </contour>
    <contour>
      <point x="354" y="739" type="curve" smooth="yes"/>
      <point x="340" y="753"/>
      <point x="312" y="760"/>
      <point x="276" y="760" type="curve" smooth="yes"/>
      <point x="266" y="760" type="line"/>
      <point x="266" y="169" type="line" smooth="yes"/>
      <point x="266" y="86"/>
      <point x="293" y="50"/>
      <point x="364" y="50" type="curve"/>
      <point x="364" y="714" type="line" smooth="yes"/>
      <point x="364" y="726"/>
      <point x="362" y="731"/>
    </contour>
    <contour>
      <point x="57" y="98" type="line"/>
      <point x="56" y="93"/>
      <point x="55" y="88"/>
      <point x="55" y="81" type="curve" smooth="yes"/>
      <point x="55" y="47"/>
      <point x="60" y="26"/>
      <point x="72" y="13" type="curve" smooth="yes"/>
      <point x="82" y="3"/>
      <point x="95" y="0"/>
      <point x="122" y="0" type="curve"/>
      <point x="558" y="0" type="line"/>
      <point x="560" y="8"/>
      <point x="561" y="16"/>
      <point x="561" y="25" type="curve" smooth="yes"/>
      <point x="561" y="67"/>
      <point x="482" y="98"/>
      <point x="347" y="98" type="curve"/>
    </contour>
    <contour>
      <point x="510" y="677" type="move" name="caronslovak"/>
    </contour>
    <contour>
      <point x="315" y="745" type="move" name="top"/>
    </contour>
    <contour>
      <point x="482" y="400" type="move" name="dot"/>
    </contour>
    <contour>
      <point x="308" y="-1" type="move" name="bottom"/>
    </contour>
  </outline>
</glyph>
<glyph name="m" format="1">
  <advance width="600"/>
  <unicode hex="006D"/>
  <outline>
    <contour>
      <point x="139" y="-3" type="curve"/>
      <point x="139" y="434" type="line" smooth="yes"/>
      <point x="139" y="488"/>
      <point x="132" y="507"/>
      <point x="118" y="521" type="curve" smooth="yes"/>
      <point x="103" y="536"/>
      <point x="82" y="538"/>
      <point x="62" y="538" type="curve" smooth="yes"/>
      <point x="52" y="538"/>
      <point x="43" y="537"/>
      <point x="33" y="535" type="curve"/>
      <point x="42" y="503"/>
      <point x="45" y="482"/>
      <point x="45" y="439" type="curve" smooth="yes"/>
      <point x="45" y="36" type="line" smooth="yes"/>
      <point x="45" y="0"/>
      <point x="67" y="-6"/>
      <point x="106" y="-6" type="curve" smooth="yes"/>
      <point x="118" y="-6"/>
      <point x="130" y="-5"/>
    </contour>
    <contour>
      <point x="253" y="543" type="curve" smooth="yes"/>
      <point x="198" y="543"/>
      <point x="148" y="486"/>
      <point x="121" y="388" type="curve" smooth="yes"/>
      <point x="113" y="361"/>
      <point x="117" y="333"/>
      <point x="127" y="308" type="curve"/>
      <point x="166" y="409"/>
      <point x="199" y="443"/>
      <point x="237" y="443" type="curve" smooth="yes"/>
      <point x="262" y="443"/>
      <point x="275" y="429"/>
      <point x="285" y="394" type="curve"/>
      <point x="315" y="403"/>
      <point x="334" y="416"/>
      <point x="334" y="435" type="curve" smooth="yes"/>
      <point x="334" y="489"/>
      <point x="301" y="543"/>
    </contour>
    <contour>
      <point x="334" y="0" type="curve"/>
      <point x="334" y="435" type="line" smooth="yes"/>
      <point x="334" y="470"/>
      <point x="320" y="482"/>
      <point x="282" y="476" type="curve"/>
      <point x="266" y="308"/>
      <point x="261" y="210"/>
      <point x="261" y="112" type="curve" smooth="yes"/>
      <point x="261" y="107" type="line" smooth="yes"/>
      <point x="261" y="21"/>
      <point x="281" y="-3"/>
      <point x="319" y="-3" type="curve" smooth="yes"/>
      <point x="325" y="-3"/>
      <point x="329" y="-2"/>
    </contour>
    <contour>
      <point x="462" y="544" type="curve" smooth="yes"/>
      <point x="404" y="544"/>
      <point x="339" y="477"/>
      <point x="311" y="397" type="curve" smooth="yes"/>
      <point x="300" y="365"/>
      <point x="302" y="338"/>
      <point x="321" y="313" type="curve"/>
      <point x="350" y="392"/>
      <point x="393" y="443"/>
      <point x="436" y="443" type="curve" smooth="yes"/>
      <point x="465" y="443"/>
      <point x="476" y="425"/>
      <point x="485" y="388" type="curve"/>
      <point x="541" y="395"/>
      <point x="555" y="408"/>
      <point x="555" y="430" type="curve" smooth="yes"/>
      <point x="555" y="481"/>
      <point x="515" y="544"/>
    </contour>
    <contour>
      <point x="571" y="0" type="curve"/>
      <point x="558" y="51"/>
      <point x="555" y="86"/>
      <point x="555" y="141" type="curve" smooth="yes"/>
      <point x="555" y="430" type="line" smooth="yes"/>
      <point x="555" y="455"/>
      <point x="530" y="471"/>
      <point x="478" y="471" type="curve"/>
      <point x="462" y="325"/>
      <point x="455" y="225"/>
      <point x="455" y="129" type="curve" smooth="yes"/>
      <point x="455" y="124" type="line" smooth="yes"/>
      <point x="455" y="18"/>
      <point x="482" y="-4"/>
      <point x="534" y="-4" type="curve" smooth="yes"/>
      <point x="549" y="-4"/>
      <point x="559" y="-2"/>
    </contour>
  </outline>
</glyph>
<glyph name="n" format="1">
  <advance width="600"/>
  <unicode hex="006E"/>
  <outline>
    <contour>
      <point x="183" y="-3" type="curve"/>
      <point x="183" y="412" type="line" smooth="yes"/>
      <point x="183" y="465"/>
      <point x="174" y="496"/>
      <point x="153" y="517" type="curve" smooth="yes"/>
      <point x="137" y="534"/>
      <point x="118" y="539"/>
      <point x="97" y="539" type="curve" smooth="yes"/>
      <point x="88" y="539"/>
      <point x="79" y="538"/>
      <point x="71" y="535" type="curve"/>
      <point x="80" y="504"/>
      <point x="83" y="482"/>
      <point x="83" y="439" type="curve" smooth="yes"/>
      <point x="83" y="36" type="line" smooth="yes"/>
      <point x="83" y="1"/>
      <point x="111" y="-5"/>
      <point x="150" y="-5" type="curve" smooth="yes"/>
      <point x="162" y="-5"/>
      <point x="174" y="-5"/>
    </contour>
    <contour>
      <point x="397" y="544" type="curve" smooth="yes"/>
      <point x="304" y="544"/>
      <point x="215" y="452"/>
      <point x="172" y="336" type="curve" smooth="yes"/>
      <point x="154" y="277"/>
      <point x="155" y="225"/>
      <point x="174" y="173" type="curve"/>
      <point x="216" y="347"/>
      <point x="294" y="438"/>
      <point x="369" y="438" type="curve" smooth="yes"/>
      <point x="407" y="438"/>
      <point x="433" y="406"/>
      <point x="445" y="345" type="curve"/>
      <point x="493" y="346"/>
      <point x="514" y="368"/>
      <point x="514" y="391" type="curve" smooth="yes"/>
      <point x="514" y="467"/>
      <point x="466" y="544"/>
    </contour>
    <contour>
      <point x="530" y="0" type="curve"/>
      <point x="518" y="51"/>
      <point x="514" y="86"/>
      <point x="514" y="141" type="curve" smooth="yes"/>
      <point x="514" y="391" type="line"/>
      <point x="514" y="421"/>
      <point x="492" y="439"/>
      <point x="433" y="437" type="curve"/>
      <point x="418" y="304"/>
      <point x="407" y="228"/>
      <point x="407" y="135" type="curve" smooth="yes"/>
      <point x="407" y="130" type="line" smooth="yes"/>
      <point x="407" y="24"/>
      <point x="441" y="-4"/>
      <point x="496" y="-4" type="curve" smooth="yes"/>
      <point x="508" y="-4"/>
      <point x="519" y="-2"/>
    </contour>
    <contour>
      <point x="84" y="711" type="move" name="caronslovak"/>
    </contour>
    <contour>
      <point x="300" y="544" type="move" name="top"/>
    </contour>
    <contour>
      <point x="301" y="-1" type="move" name="bottom"/>
    </contour>
  </outline>
</glyph>
<glyph name="p" format="1">
  <advance width="600"/>
  <unicode hex="0070"/>
  <outline>
    <contour>
      <point x="187" y="-210" type="curve"/>
      <point x="187" y="395" type="line" smooth="yes"/>
      <point x="187" y="463"/>
      <point x="180" y="493"/>
      <point x="157" y="517" type="curve" smooth="yes"/>
      <point x="141" y="532"/>
      <point x="122" y="538"/>
      <point x="103" y="538" type="curve"/>
      <point x="94" y="538"/>
      <point x="86" y="537"/>
      <point x="76" y="535" type="curve"/>
      <point x="85" y="503"/>
      <point x="88" y="482"/>
      <point x="88" y="439" type="curve" smooth="yes"/>
      <point x="88" y="-172" type="line" smooth="yes"/>
      <point x="88" y="-208"/>
      <point x="116" y="-214"/>
      <point x="151" y="-214" type="curve"/>
      <point x="165" y="-214"/>
      <point x="177" y="-213"/>
    </contour>
    <contour>
      <point x="385" y="544" type="curve" smooth="yes"/>
      <point x="294" y="544"/>
      <point x="204" y="462"/>
      <point x="172" y="355" type="curve" smooth="yes"/>
      <point x="160" y="313"/>
      <point x="164" y="264"/>
      <point x="178" y="233" type="curve"/>
      <point x="234" y="387"/>
      <point x="299" y="440"/>
      <point x="378" y="440" type="curve" smooth="yes"/>
      <point x="421" y="440"/>
      <point x="463" y="399"/>
      <point x="498" y="318" type="curve"/>
      <point x="530" y="320"/>
      <point x="542" y="329"/>
      <point x="542" y="337" type="curve" smooth="yes"/>
      <point x="542" y="457"/>
      <point x="474" y="544"/>
    </contour>
    <contour>
      <point x="328" y="-11" type="curve" smooth="yes"/>
      <point x="446" y="-11"/>
      <point x="542" y="87"/>
      <point x="542" y="318" type="curve" smooth="yes"/>
      <point x="542" y="337" type="line" smooth="yes"/>
      <point x="542" y="390"/>
      <point x="505" y="471"/>
      <point x="448" y="471" type="curve" smooth="yes"/>
      <point x="430" y="471"/>
      <point x="417" y="463"/>
      <point x="416" y="439" type="curve"/>
      <point x="437" y="404"/>
      <point x="441" y="373"/>
      <point x="441" y="317" type="curve" smooth="yes"/>
      <point x="441" y="307" type="line" smooth="yes"/>
      <point x="441" y="161"/>
      <point x="397" y="85"/>
      <point x="304" y="85" type="curve" smooth="yes"/>
      <point x="247" y="85"/>
      <point x="214" y="106"/>
      <point x="175" y="149" type="curve"/>
      <point x="165" y="135"/>
      <point x="162" y="105"/>
      <point x="173" y="86" type="curve" smooth="yes"/>
      <point x="185" y="40"/>
      <point x="250" y="-11"/>
    </contour>
  </outline>
</glyph>
<glyph name="q" format="1">
  <advance width="600"/>
  <unicode hex="0071"/>
  <outline>
    <contour>
      <point x="272" y="544" type="curve" smooth="yes"/>
      <point x="154" y="544"/>
      <point x="58" y="446"/>
      <point x="58" y="215" type="curve" smooth="yes"/>
      <point x="58" y="195" type="line" smooth="yes"/>
      <point x="58" y="142"/>
      <point x="95" y="62"/>
      <point x="152" y="62" type="curve" smooth="yes"/>
      <point x="170" y="62"/>
      <point x="183" y="70"/>
      <point x="184" y="94" type="curve"/>
      <point x="163" y="129"/>
      <point x="159" y="159"/>
      <point x="159" y="216" type="curve" smooth="yes"/>
      <point x="159" y="226" type="line" smooth="yes"/>
      <point x="159" y="372"/>
      <point x="203" y="448"/>
      <point x="296" y="448" type="curve" smooth="yes"/>
      <point x="353" y="448"/>
      <point x="386" y="426"/>
      <point x="425" y="383" type="curve"/>
      <point x="437" y="398"/>
      <point x="445" y="427"/>
      <point x="437" y="443" type="curve" smooth="yes"/>
      <point x="424" y="490"/>
      <point x="354" y="544"/>
    </contour>
    <contour>
      <point x="215" y="-11" type="curve" smooth="yes"/>
      <point x="306" y="-11"/>
      <point x="396" y="71"/>
      <point x="428" y="178" type="curve" smooth="yes"/>
      <point x="440" y="220"/>
      <point x="436" y="269"/>
      <point x="422" y="300" type="curve"/>
      <point x="366" y="146"/>
      <point x="301" y="93"/>
      <point x="222" y="93" type="curve" smooth="yes"/>
      <point x="179" y="93"/>
      <point x="137" y="134"/>
      <point x="102" y="214" type="curve"/>
      <point x="70" y="212"/>
      <point x="58" y="204"/>
      <point x="58" y="195" type="curve" smooth="yes"/>
      <point x="58" y="76"/>
      <point x="126" y="-11"/>
    </contour>
    <contour>
      <point x="512" y="-210" type="curve"/>
      <point x="512" y="438" type="line" smooth="yes"/>
      <point x="512" y="481"/>
      <point x="515" y="502"/>
      <point x="524" y="534" type="curve"/>
      <point x="514" y="536"/>
      <point x="505" y="537"/>
      <point x="495" y="537" type="curve" smooth="yes"/>
      <point x="475" y="537"/>
      <point x="459" y="532"/>
      <point x="443" y="516" type="curve" smooth="yes"/>
      <point x="425" y="498"/>
      <point x="413" y="463"/>
      <point x="413" y="403" type="curve" smooth="yes"/>
      <point x="413" y="-148" type="line" smooth="yes"/>
      <point x="413" y="-198"/>
      <point x="442" y="-214"/>
      <point x="476" y="-214" type="curve" smooth="yes"/>
      <point x="491" y="-214"/>
      <point x="502" y="-213"/>
    </contour>
  </outline>
</glyph>
<glyph name="r" format="1">
  <advance width="600"/>
  <unicode hex="0072"/>
  <outline>
    <contour>
      <point x="60" y="533" type="curve"/>
      <point x="56" y="516"/>
      <point x="55" y="504"/>
      <point x="55" y="488" type="curve" smooth="yes"/>
      <point x="55" y="454"/>
      <point x="67" y="434"/>
      <point x="87" y="434" type="curve" smooth="yes"/>
      <point x="115" y="434"/>
      <point x="153" y="451"/>
      <point x="246" y="451" type="curve"/>
      <point x="246" y="516"/>
      <point x="236" y="543"/>
      <point x="211" y="543" type="curve" smooth="yes"/>
      <point x="156" y="543"/>
      <point x="111" y="540"/>
    </contour>
    <contour>
      <point x="292" y="50" type="curve"/>
      <point x="292" y="444" type="line" smooth="yes"/>
      <point x="292" y="503"/>
      <point x="257" y="543"/>
      <point x="211" y="543" type="curve" smooth="yes"/>
      <point x="205" y="543"/>
      <point x="199" y="541"/>
      <point x="193" y="536" type="curve"/>
      <point x="193" y="163" type="line" smooth="yes"/>
      <point x="193" y="86"/>
      <point x="223" y="50"/>
    </contour>
    <contour>
      <point x="57" y="98" type="line"/>
      <point x="56" y="93"/>
      <point x="55" y="88"/>
      <point x="55" y="81" type="curve" smooth="yes"/>
      <point x="55" y="47"/>
      <point x="60" y="26"/>
      <point x="72" y="13" type="curve" smooth="yes"/>
      <point x="82" y="3"/>
      <point x="95" y="0"/>
      <point x="122" y="0" type="curve"/>
      <point x="487" y="0" type="line"/>
      <point x="490" y="8"/>
      <point x="491" y="16"/>
      <point x="491" y="25" type="curve" smooth="yes"/>
      <point x="491" y="64"/>
      <point x="397" y="98"/>
      <point x="294" y="98" type="curve"/>
    </contour>
    <contour>
      <point x="285" y="215" type="curve"/>
      <point x="329" y="374"/>
      <point x="401" y="431"/>
      <point x="472" y="431" type="curve" smooth="yes"/>
      <point x="505" y="431"/>
      <point x="524" y="424"/>
      <point x="547" y="411" type="curve"/>
      <point x="551" y="411" type="line"/>
      <point x="557" y="428"/>
      <point x="560" y="448"/>
      <point x="560" y="470" type="curve"/>
      <point x="560" y="528"/>
      <point x="540" y="550"/>
      <point x="496" y="550" type="curve" smooth="yes"/>
      <point x="493" y="550" type="line" smooth="yes"/>
      <point x="403" y="550"/>
      <point x="307" y="467"/>
      <point x="272" y="323" type="curve" smooth="yes"/>
      <point x="264" y="290"/>
      <point x="268" y="258"/>
    </contour>
    <contour>
      <point x="306" y="544" type="move" name="top"/>
    </contour>
    <contour>
      <point x="306" y="-1" type="move" name="bottom"/>
    </contour>
  </outline>
</glyph>
<glyph name="s" format="1">
  <advance width="600"/>
  <unicode hex="0073"/>
  <outline>
    <contour>
      <point x="367" y="545" type="curve" smooth="yes"/>
      <point x="359" y="545" type="line" smooth="yes"/>
      <point x="219" y="545"/>
      <point x="93" y="472"/>
      <point x="93" y="366" type="curve" smooth="yes"/>
      <point x="93" y="327"/>
      <point x="151" y="312"/>
      <point x="202" y="312" type="curve"/>
      <point x="193" y="337"/>
      <point x="191" y="352"/>
      <point x="191" y="368" type="curve" smooth="yes"/>
      <point x="191" y="410"/>
      <point x="260" y="447"/>
      <point x="360" y="447" type="curve" smooth="yes"/>
      <point x="424" y="447"/>
      <point x="461" y="438"/>
      <point x="494" y="421" type="curve"/>
      <point x="498" y="421" type="line"/>
      <point x="500" y="430"/>
      <point x="502" y="439"/>
      <point x="502" y="448" type="curve"/>
      <point x="502" y="483"/>
      <point x="497" y="505"/>
      <point x="478" y="523" type="curve" smooth="yes"/>
      <point x="463" y="539"/>
      <point x="422" y="545"/>
    </contour>
    <contour>
      <point x="381" y="291" type="curve" smooth="yes"/>
      <point x="288" y="310" type="line" smooth="yes"/>
      <point x="205" y="326"/>
      <point x="191" y="345"/>
      <point x="191" y="368" type="curve" smooth="yes"/>
      <point x="191" y="381"/>
      <point x="193" y="401"/>
      <point x="203" y="426" type="curve"/>
      <point x="136" y="414"/>
      <point x="93" y="394"/>
      <point x="93" y="366" type="curve"/>
      <point x="93" y="297"/>
      <point x="133" y="259"/>
      <point x="243" y="235" type="curve" smooth="yes"/>
      <point x="347" y="213" type="line" smooth="yes"/>
      <point x="418" y="198"/>
      <point x="437" y="174"/>
      <point x="437" y="135" type="curve" smooth="yes"/>
      <point x="437" y="122"/>
      <point x="433" y="112"/>
      <point x="427" y="102" type="curve"/>
      <point x="494" y="105"/>
      <point x="526" y="130"/>
      <point x="526" y="153" type="curve" smooth="yes"/>
      <point x="526" y="218"/>
      <point x="485" y="271"/>
    </contour>
    <contour>
      <point x="300" y="87" type="curve" smooth="yes"/>
      <point x="187" y="87"/>
      <point x="143" y="100"/>
      <point x="77" y="145" type="curve"/>
      <point x="73" y="145" type="line"/>
      <point x="71" y="136"/>
      <point x="69" y="126"/>
      <point x="69" y="111" type="curve" smooth="yes"/>
      <point x="69" y="71"/>
      <point x="79" y="47"/>
      <point x="93" y="33" type="curve" smooth="yes"/>
      <point x="112" y="13"/>
      <point x="186" y="-11"/>
      <point x="282" y="-11" type="curve" smooth="yes"/>
      <point x="294" y="-11" type="line" smooth="yes"/>
      <point x="447" y="-11"/>
      <point x="526" y="43"/>
      <point x="526" y="153" type="curve" smooth="yes"/>
      <point x="526" y="187"/>
      <point x="500" y="192"/>
      <point x="464" y="198" type="curve"/>
      <point x="466" y="185"/>
      <point x="466" y="178"/>
      <point x="466" y="172" type="curve" smooth="yes"/>
      <point x="466" y="128"/>
      <point x="412" y="87"/>
    </contour>
    <contour>
      <point x="316" y="544" type="move" name="top"/>
    </contour>
    <contour>
      <point x="310" y="-1" type="move" name="bottom"/>
    </contour>
  </outline>
</glyph>
<glyph name="t" format="1">
  <advance width="600"/>
  <unicode hex="0074"/>
  <outline>
    <contour>
      <point x="188" y="700" type="curve"/>
      <point x="188" y="153" type="line" smooth="yes"/>
      <point x="188" y="72"/>
      <point x="260" y="7"/>
      <point x="331" y="27" type="curve"/>
      <point x="300" y="62"/>
      <point x="286" y="107"/>
      <point x="286" y="168" type="curve" smooth="yes"/>
      <point x="286" y="663" type="line" smooth="yes"/>
      <point x="286" y="697"/>
      <point x="257" y="704"/>
      <point x="224" y="704" type="curve" smooth="yes"/>
      <point x="210" y="704"/>
      <point x="198" y="703"/>
    </contour>
    <contour>
      <point x="534" y="132" type="curve"/>
      <point x="530" y="132" type="line"/>
      <point x="476" y="94"/>
      <point x="438" y="82"/>
      <point x="370" y="82" type="curve" smooth="yes"/>
      <point x="305" y="82"/>
      <point x="256" y="107"/>
      <point x="224" y="182" type="curve"/>
      <point x="199" y="180"/>
      <point x="188" y="169"/>
      <point x="188" y="153" type="curve" smooth="yes"/>
      <point x="188" y="54"/>
      <point x="261" y="-16"/>
      <point x="365" y="-16" type="curve" smooth="yes"/>
      <point x="373" y="-16" type="line" smooth="yes"/>
      <point x="446" y="-16"/>
      <point x="488" y="7"/>
      <point x="510" y="28" type="curve" smooth="yes"/>
      <point x="527" y="45"/>
      <point x="536" y="71"/>
      <point x="536" y="106" type="curve" smooth="yes"/>
      <point x="536" y="114"/>
      <point x="536" y="124"/>
    </contour>
    <contour>
      <point x="59" y="533" type="line"/>
      <point x="59" y="528"/>
      <point x="59" y="523"/>
      <point x="59" y="518" type="curve" smooth="yes"/>
      <point x="59" y="485"/>
      <point x="64" y="465"/>
      <point x="77" y="452" type="curve" smooth="yes"/>
      <point x="91" y="439"/>
      <point x="109" y="434"/>
      <point x="156" y="434" type="curve" smooth="yes"/>
      <point x="535" y="434" type="line"/>
      <point x="537" y="444"/>
      <point x="538" y="457"/>
      <point x="538" y="470" type="curve" smooth="yes"/>
      <point x="538" y="513"/>
      <point x="527" y="533"/>
      <point x="491" y="533" type="curve" smooth="yes"/>
    </contour>
    <contour>
      <point x="452" y="700" type="move" name="caronslovak"/>
    </contour>
    <contour>
      <point x="366" y="-1" type="move" name="bottom"/>
    </contour>
  </outline>
</glyph>
<glyph name="v" format="1">
  <advance width="600"/>
  <unicode hex="0076"/>
  <outline>
    <contour>
      <point x="451" y="541" type="curve" smooth="yes"/>
      <point x="434" y="541" type="line"/>
      <point x="410" y="269"/>
      <point x="377" y="153"/>
      <point x="271" y="63" type="curve"/>
      <point x="250" y="46"/>
      <point x="271" y="-10"/>
      <point x="307" y="-10" type="curve"/>
      <point x="341" y="-10" type="line"/>
      <point x="454" y="81"/>
      <point x="513" y="250"/>
      <point x="534" y="491" type="curve"/>
      <point x="536" y="518"/>
      <point x="496" y="541"/>
    </contour>
    <contour>
      <point x="79" y="541" type="curve" smooth="yes"/>
      <point x="62" y="541" type="line"/>
      <point x="85" y="275"/>
      <point x="132" y="122"/>
      <point x="230" y="25" type="curve"/>
      <point x="258" y="-3"/>
      <point x="281" y="-10"/>
      <point x="304" y="-10" type="curve" smooth="yes"/>
      <point x="313" y="-10" type="line" smooth="yes"/>
      <point x="341" y="-10"/>
      <point x="359" y="11"/>
      <point x="372" y="44" type="curve"/>
      <point x="364" y="44"/>
      <point x="359" y="44"/>
      <point x="354" y="44" type="curve" smooth="yes"/>
      <point x="347" y="44"/>
      <point x="340" y="47"/>
      <point x="331" y="54" type="curve"/>
      <point x="233" y="140"/>
      <point x="191" y="263"/>
      <point x="169" y="504" type="curve"/>
      <point x="167" y="527"/>
      <point x="124" y="541"/>
    </contour>
  </outline>
</glyph>
<glyph name="w" format="1">
  <advance width="600"/>
  <unicode hex="0077"/>
  <outline>
    <contour>
      <point x="51" y="544" type="curve"/>
      <point x="51" y="219"/>
      <point x="75" y="84"/>
      <point x="150" y="8" type="curve" smooth="yes"/>
      <point x="162" y="-4"/>
      <point x="177" y="-10"/>
      <point x="191" y="-10" type="curve" smooth="yes"/>
      <point x="197" y="-10" type="line" smooth="yes"/>
      <point x="207" y="-10"/>
      <point x="218" y="31"/>
      <point x="218" y="52" type="curve" smooth="yes"/>
      <point x="160" y="106"/>
      <point x="143" y="197"/>
      <point x="143" y="508" type="curve"/>
      <point x="143" y="515"/>
      <point x="142" y="518"/>
      <point x="137" y="524" type="curve" smooth="yes"/>
      <point x="127" y="536"/>
      <point x="99" y="544"/>
      <point x="68" y="544" type="curve"/>
      <point x="63" y="544"/>
      <point x="57" y="544"/>
    </contour>
    <contour>
      <point x="280" y="438" type="curve" smooth="yes"/>
      <point x="268" y="438" type="line"/>
      <point x="268" y="244"/>
      <point x="232" y="135"/>
      <point x="162" y="34" type="curve"/>
      <point x="167" y="12"/>
      <point x="173" y="-10"/>
      <point x="191" y="-10" type="curve"/>
      <point x="212" y="-10" type="line"/>
      <point x="282" y="96"/>
      <point x="319" y="231"/>
      <point x="319" y="397" type="curve" smooth="yes"/>
      <point x="319" y="425"/>
      <point x="303" y="438"/>
    </contour>
    <contour>
      <point x="280" y="438" type="curve" smooth="yes"/>
      <point x="275" y="438" type="line"/>
      <point x="275" y="266"/>
      <point x="311" y="96"/>
      <point x="385" y="3" type="curve" smooth="yes"/>
      <point x="392" y="-6"/>
      <point x="402" y="-10"/>
      <point x="412" y="-10" type="curve" smooth="yes"/>
      <point x="426" y="-10" type="line" smooth="yes"/>
      <point x="441" y="-10"/>
      <point x="448" y="14"/>
      <point x="448" y="36" type="curve" smooth="yes"/>
      <point x="384" y="93"/>
      <point x="333" y="228"/>
      <point x="333" y="407" type="curve" smooth="yes"/>
      <point x="333" y="423"/>
      <point x="314" y="438"/>
    </contour>
    <contour>
      <point x="457" y="544" type="curve"/>
      <point x="457" y="197"/>
      <point x="439" y="135"/>
      <point x="393" y="55" type="curve"/>
      <point x="395" y="11"/>
      <point x="402" y="-10"/>
      <point x="418" y="-10" type="curve"/>
      <point x="445" y="-10" type="line"/>
      <point x="523" y="105"/>
      <point x="547" y="228"/>
      <point x="547" y="502" type="curve"/>
      <point x="547" y="512"/>
      <point x="546" y="516"/>
      <point x="542" y="520" type="curve" smooth="yes"/>
      <point x="528" y="534"/>
      <point x="497" y="544"/>
      <point x="474" y="544" type="curve"/>
      <point x="469" y="544"/>
      <point x="463" y="544"/>
    </contour>
    <contour>
      <point x="299" y="544" type="move" name="top"/>
    </contour>
  </outline>
</glyph>
<glyph name="x" format="1">
  <advance width="600"/>
  <unicode hex="0078"/>
  <outline>
    <contour>
      <point x="491" y="-10" type="curve" smooth="yes"/>
      <point x="524" y="-10"/>
      <point x="540" y="-6"/>
      <point x="559" y="9" type="curve"/>
      <point x="482" y="76"/>
      <point x="410" y="152"/>
      <point x="349" y="234" type="curve" smooth="yes"/>
      <point x="339" y="248"/>
      <point x="330" y="261"/>
      <point x="321" y="275" type="curve" smooth="yes"/>
      <point x="268" y="346"/>
      <point x="223" y="424"/>
      <point x="186" y="507" type="curve" smooth="yes"/>
      <point x="174" y="531"/>
      <point x="144" y="539"/>
      <point x="102" y="539" type="curve" smooth="yes"/>
      <point x="83" y="539"/>
      <point x="65" y="537"/>
      <point x="50" y="534" type="curve"/>
      <point x="107" y="412"/>
      <point x="178" y="299"/>
      <point x="256" y="197" type="curve" smooth="yes"/>
      <point x="266" y="184"/>
      <point x="277" y="170"/>
      <point x="287" y="157" type="curve" smooth="yes"/>
      <point x="327" y="109"/>
      <point x="371" y="63"/>
      <point x="414" y="21" type="curve" smooth="yes"/>
      <point x="434" y="-1"/>
      <point x="455" y="-10"/>
    </contour>
    <contour>
      <point x="462" y="541" type="curve" smooth="yes"/>
      <point x="446" y="541" type="line"/>
      <point x="403" y="435"/>
      <point x="350" y="351"/>
      <point x="292" y="275" type="curve" smooth="yes"/>
      <point x="281" y="262"/>
      <point x="270" y="248"/>
      <point x="258" y="234" type="curve" smooth="yes"/>
      <point x="205" y="174"/>
      <point x="147" y="116"/>
      <point x="75" y="58" type="curve" smooth="yes"/>
      <point x="58" y="45"/>
      <point x="56" y="39"/>
      <point x="56" y="29" type="curve" smooth="yes"/>
      <point x="56" y="7"/>
      <point x="95" y="-10"/>
      <point x="144" y="-10" type="curve" smooth="yes"/>
      <point x="151" y="-10" type="line"/>
      <point x="211" y="43"/>
      <point x="265" y="99"/>
      <point x="316" y="156" type="curve" smooth="yes"/>
      <point x="327" y="169"/>
      <point x="339" y="182"/>
      <point x="349" y="194" type="curve" smooth="yes"/>
      <point x="426" y="287"/>
      <point x="487" y="377"/>
      <point x="534" y="482" type="curve" smooth="yes"/>
      <point x="538" y="491"/>
      <point x="539" y="497"/>
      <point x="539" y="505" type="curve" smooth="yes"/>
      <point x="539" y="530"/>
      <point x="509" y="541"/>
    </contour>
  </outline>
</glyph>
<glyph name="y" format="1">
  <advance width="600"/>
  <unicode hex="0079"/>
  <outline>
    <contour>
      <point x="473" y="538" type="curve" smooth="yes"/>
      <point x="462" y="538"/>
      <point x="451" y="537"/>
      <point x="443" y="533" type="curve"/>
      <point x="409" y="151"/>
      <point x="342" y="-1"/>
      <point x="256" y="-87" type="curve" smooth="yes"/>
      <point x="211" y="-133"/>
      <point x="158" y="-155"/>
      <point x="104" y="-155" type="curve" smooth="yes"/>
      <point x="84" y="-155" type="line"/>
      <point x="84" y="-158" type="line" smooth="yes"/>
      <point x="84" y="-212"/>
      <point x="104" y="-250"/>
      <point x="139" y="-250" type="curve" smooth="yes"/>
      <point x="142" y="-250" type="line" smooth="yes"/>
      <point x="207" y="-250"/>
      <point x="268" y="-220"/>
      <point x="322" y="-165" type="curve" smooth="yes"/>
      <point x="428" y="-59"/>
      <point x="513" y="157"/>
      <point x="543" y="492" type="curve" smooth="yes"/>
      <point x="545" y="523"/>
      <point x="519" y="538"/>
    </contour>
    <contour>
      <point x="88" y="538" type="curve" smooth="yes"/>
      <point x="76" y="538"/>
      <point x="65" y="536"/>
      <point x="54" y="533" type="curve"/>
      <point x="83" y="237"/>
      <point x="132" y="144"/>
      <point x="196" y="75" type="curve" smooth="yes"/>
      <point x="236" y="33"/>
      <point x="294" y="5"/>
      <point x="354" y="5" type="curve" smooth="yes"/>
      <point x="361" y="5" type="line" smooth="yes"/>
      <point x="383" y="5"/>
      <point x="401" y="23"/>
      <point x="401" y="69" type="curve"/>
      <point x="382" y="75" type="line"/>
      <point x="334" y="82"/>
      <point x="297" y="106"/>
      <point x="274" y="132" type="curve" smooth="yes"/>
      <point x="211" y="200"/>
      <point x="182" y="321"/>
      <point x="169" y="487" type="curve" smooth="yes"/>
      <point x="165" y="526"/>
      <point x="139" y="538"/>
    </contour>
    <contour>
      <point x="300" y="544" type="move" name="top"/>
    </contour>
  </outline>
</glyph>
<glyph name="z" format="1">
  <advance width="600"/>
  <unicode hex="007A"/>
  <outline>
    <contour>
      <point x="72" y="533" type="line"/>
      <point x="70" y="525"/>
      <point x="70" y="517"/>
      <point x="70" y="508" type="curve" smooth="yes"/>
      <point x="70" y="480"/>
      <point x="77" y="458"/>
      <point x="89" y="445" type="curve" smooth="yes"/>
      <point x="97" y="438"/>
      <point x="103" y="434"/>
      <point x="116" y="434" type="curve" smooth="yes"/>
      <point x="337" y="434" type="line" smooth="yes"/>
      <point x="391" y="434"/>
      <point x="476" y="437"/>
      <point x="528" y="448" type="curve"/>
      <point x="528" y="453" type="line" smooth="yes"/>
      <point x="528" y="484"/>
      <point x="516" y="505"/>
      <point x="499" y="522" type="curve" smooth="yes"/>
      <point x="491" y="530"/>
      <point x="483" y="533"/>
      <point x="469" y="533" type="curve" smooth="yes"/>
    </contour>
    <contour>
      <point x="448" y="486" type="curve"/>
      <point x="368" y="347"/>
      <point x="224" y="196"/>
      <point x="70" y="90" type="curve"/>
      <point x="70" y="58"/>
      <point x="123" y="50"/>
      <point x="161" y="70" type="curve" smooth="yes"/>
      <point x="331" y="175"/>
      <point x="528" y="406"/>
      <point x="528" y="448" type="curve"/>
      <point x="528" y="475"/>
      <point x="499" y="486"/>
    </contour>
    <contour>
      <point x="525" y="0" type="line"/>
      <point x="527" y="10"/>
      <point x="528" y="23"/>
      <point x="528" y="36" type="curve"/>
      <point x="528" y="80"/>
      <point x="518" y="98"/>
      <point x="480" y="98" type="curve" smooth="yes"/>
      <point x="273" y="98" type="line" smooth="yes"/>
      <point x="208" y="98"/>
      <point x="131" y="96"/>
      <point x="70" y="90" type="curve"/>
      <point x="70" y="81" type="line" smooth="yes"/>
      <point x="70" y="49"/>
      <point x="77" y="23"/>
      <point x="92" y="8" type="curve" smooth="yes"/>
      <point x="98" y="2"/>
      <point x="104" y="0"/>
      <point x="113" y="0" type="curve" smooth="yes"/>
    </contour>
    <contour>
      <point x="300" y="544" type="move" name="top"/>
    </contour>
  </outline>
</glyph>
<glyph name="braceleft" format="1">
  <advance width="600"/>
  <unicode hex="007B"/>
  <outline>
    <contour>
      <point x="444" y="672" type="curve" smooth="yes"/>
      <point x="470" y="672"/>
      <point x="490" y="670"/>
      <point x="508" y="664" type="curve"/>
      <point x="512" y="664" type="line"/>
      <point x="515" y="674"/>
      <point x="516" y="683"/>
      <point x="516" y="698" type="curve"/>
      <point x="516" y="737"/>
      <point x="492" y="770"/>
      <point x="454" y="770" type="curve" smooth="yes"/>
      <point x="450" y="770" type="line" smooth="yes"/>
      <point x="327" y="770"/>
      <point x="236" y="727"/>
      <point x="236" y="653" type="curve" smooth="yes"/>
      <point x="236" y="650" type="line" smooth="yes"/>
      <point x="236" y="627"/>
      <point x="262" y="604"/>
      <point x="291" y="602" type="curve"/>
      <point x="315" y="655"/>
      <point x="370" y="672"/>
    </contour>
    <contour>
      <point x="376" y="450" type="curve" smooth="yes"/>
      <point x="376" y="546"/>
      <point x="314" y="605"/>
      <point x="314" y="643" type="curve" smooth="yes"/>
      <point x="314" y="662"/>
      <point x="319" y="676"/>
      <point x="329" y="694" type="curve"/>
      <point x="283" y="702"/>
      <point x="236" y="694"/>
      <point x="236" y="652" type="curve" smooth="yes"/>
      <point x="236" y="647" type="line" smooth="yes"/>
      <point x="236" y="593"/>
      <point x="282" y="542"/>
      <point x="282" y="463" type="curve" smooth="yes"/>
      <point x="282" y="392"/>
      <point x="233" y="345"/>
      <point x="119" y="345" type="curve" smooth="yes"/>
      <point x="113" y="345" type="line"/>
      <point x="113" y="335" type="line" smooth="yes"/>
      <point x="113" y="308"/>
      <point x="120" y="285"/>
      <point x="145" y="285" type="curve" smooth="yes"/>
      <point x="159" y="285" type="line" smooth="yes"/>
      <point x="280" y="285"/>
      <point x="376" y="345"/>
    </contour>
    <contour>
      <point x="376" y="149" type="curve" smooth="yes"/>
      <point x="376" y="258"/>
      <point x="283" y="315"/>
      <point x="161" y="315" type="curve" smooth="yes"/>
      <point x="133" y="315"/>
      <point x="123" y="328"/>
      <point x="113" y="338" type="curve"/>
      <point x="113" y="330" type="line" smooth="yes"/>
      <point x="113" y="289"/>
      <point x="127" y="253"/>
      <point x="154" y="253" type="curve" smooth="yes"/>
      <point x="156" y="253" type="line" smooth="yes"/>
      <point x="233" y="253"/>
      <point x="282" y="206"/>
      <point x="282" y="136" type="curve" smooth="yes"/>
      <point x="282" y="56"/>
      <point x="236" y="1"/>
      <point x="236" y="-53" type="curve" smooth="yes"/>
      <point x="236" y="-57" type="line" smooth="yes"/>
      <point x="236" y="-104"/>
      <point x="287" y="-110"/>
      <point x="331" y="-102" type="curve"/>
      <point x="317" y="-83"/>
      <point x="314" y="-68"/>
      <point x="314" y="-47" type="curve" smooth="yes"/>
      <point x="314" y="-8"/>
      <point x="376" y="56"/>
    </contour>
    <contour>
      <point x="436" y="-73" type="curve" smooth="yes"/>
      <point x="354" y="-73"/>
      <point x="309" y="-58"/>
      <point x="288" y="-4" type="curve"/>
      <point x="257" y="-9"/>
      <point x="236" y="-34"/>
      <point x="236" y="-54" type="curve" smooth="yes"/>
      <point x="236" y="-58" type="line" smooth="yes"/>
      <point x="236" y="-136"/>
      <point x="313" y="-172"/>
      <point x="450" y="-172" type="curve" smooth="yes"/>
      <point x="456" y="-172" type="line" smooth="yes"/>
      <point x="494" y="-172"/>
      <point x="515" y="-132"/>
      <point x="515" y="-71" type="curve"/>
      <point x="515" y="-63" type="line"/>
      <point x="511" y="-63" type="line"/>
      <point x="486" y="-70"/>
      <point x="467" y="-73"/>
    </contour>
  </outline>
</glyph>
<glyph name="bar" format="1">
  <advance width="600"/>
  <unicode hex="007C"/>
  <outline>
    <contour>
      <point x="238" y="759" type="curve"/>
      <point x="246" y="724"/>
      <point x="248" y="688"/>
      <point x="248" y="649" type="curve" smooth="yes"/>
      <point x="248" y="-118" type="line" smooth="yes"/>
      <point x="248" y="-149"/>
      <point x="277" y="-162"/>
      <point x="329" y="-162" type="curve" smooth="yes"/>
      <point x="338" y="-162"/>
      <point x="346" y="-161"/>
      <point x="352" y="-160" type="curve"/>
      <point x="352" y="699" type="line" smooth="yes"/>
      <point x="352" y="723"/>
      <point x="349" y="738"/>
      <point x="337" y="749" type="curve" smooth="yes"/>
      <point x="327" y="760"/>
      <point x="311" y="764"/>
      <point x="280" y="764" type="curve" smooth="yes"/>
      <point x="264" y="764"/>
      <point x="253" y="762"/>
    </contour>
  </outline>
</glyph>
<glyph name="braceright" format="1">
  <advance width="600"/>
  <unicode hex="007D"/>
  <outline>
    <contour>
      <point x="156" y="-74" type="curve" smooth="yes"/>
      <point x="130" y="-74"/>
      <point x="110" y="-72"/>
      <point x="92" y="-66" type="curve"/>
      <point x="88" y="-66" type="line"/>
      <point x="85" y="-76"/>
      <point x="84" y="-85"/>
      <point x="84" y="-100" type="curve"/>
      <point x="84" y="-139"/>
      <point x="108" y="-172"/>
      <point x="146" y="-172" type="curve" smooth="yes"/>
      <point x="150" y="-172" type="line" smooth="yes"/>
      <point x="273" y="-172"/>
      <point x="364" y="-129"/>
      <point x="364" y="-55" type="curve" smooth="yes"/>
      <point x="364" y="-52" type="line" smooth="yes"/>
      <point x="364" y="-29"/>
      <point x="338" y="-6"/>
      <point x="309" y="-4" type="curve"/>
      <point x="285" y="-57"/>
      <point x="230" y="-74"/>
    </contour>
    <contour>
      <point x="224" y="148" type="curve" smooth="yes"/>
      <point x="224" y="52"/>
      <point x="286" y="-7"/>
      <point x="286" y="-45" type="curve" smooth="yes"/>
      <point x="286" y="-64"/>
      <point x="281" y="-78"/>
      <point x="271" y="-96" type="curve"/>
      <point x="317" y="-104"/>
      <point x="364" y="-96"/>
      <point x="364" y="-54" type="curve" smooth="yes"/>
      <point x="364" y="-49" type="line" smooth="yes"/>
      <point x="364" y="5"/>
      <point x="318" y="56"/>
      <point x="318" y="135" type="curve" smooth="yes"/>
      <point x="318" y="206"/>
      <point x="367" y="253"/>
      <point x="481" y="253" type="curve" smooth="yes"/>
      <point x="487" y="253" type="line"/>
      <point x="487" y="263" type="line" smooth="yes"/>
      <point x="487" y="290"/>
      <point x="480" y="313"/>
      <point x="455" y="313" type="curve" smooth="yes"/>
      <point x="441" y="313" type="line" smooth="yes"/>
      <point x="320" y="313"/>
      <point x="224" y="253"/>
    </contour>
    <contour>
      <point x="224" y="449" type="curve" smooth="yes"/>
      <point x="224" y="340"/>
      <point x="317" y="283"/>
      <point x="439" y="283" type="curve" smooth="yes"/>
      <point x="467" y="283"/>
      <point x="477" y="270"/>
      <point x="487" y="260" type="curve"/>
      <point x="487" y="268" type="line" smooth="yes"/>
      <point x="487" y="309"/>
      <point x="473" y="345"/>
      <point x="446" y="345" type="curve" smooth="yes"/>
      <point x="444" y="345" type="line" smooth="yes"/>
      <point x="367" y="345"/>
      <point x="318" y="392"/>
      <point x="318" y="462" type="curve" smooth="yes"/>
      <point x="318" y="542"/>
      <point x="364" y="597"/>
      <point x="364" y="651" type="curve" smooth="yes"/>
      <point x="364" y="655" type="line" smooth="yes"/>
      <point x="364" y="702"/>
      <point x="313" y="708"/>
      <point x="269" y="700" type="curve"/>
      <point x="283" y="681"/>
      <point x="286" y="666"/>
      <point x="286" y="645" type="curve" smooth="yes"/>
      <point x="286" y="606"/>
      <point x="224" y="542"/>
    </contour>
    <contour>
      <point x="164" y="671" type="curve" smooth="yes"/>
      <point x="246" y="671"/>
      <point x="291" y="656"/>
      <point x="312" y="602" type="curve"/>
      <point x="343" y="607"/>
      <point x="364" y="632"/>
      <point x="364" y="652" type="curve" smooth="yes"/>
      <point x="364" y="656" type="line" smooth="yes"/>
      <point x="364" y="734"/>
      <point x="287" y="770"/>
      <point x="150" y="770" type="curve" smooth="yes"/>
      <point x="144" y="770" type="line" smooth="yes"/>
      <point x="106" y="770"/>
      <point x="85" y="730"/>
      <point x="85" y="669" type="curve"/>
      <point x="85" y="661" type="line"/>
      <point x="89" y="661" type="line"/>
      <point x="114" y="668"/>
      <point x="133" y="671"/>
    </contour>
  </outline>
</glyph>
<glyph name="exclamdown" format="1">
  <advance width="600"/>
  <unicode hex="00A1"/>
  <outline>
    <contour>
      <point x="259" y="271" type="line"/>
      <point x="248" y="199"/>
      <point x="239" y="108"/>
      <point x="239" y="36" type="curve"/>
      <point x="239" y="-121" type="line" smooth="yes"/>
      <point x="239" y="-160"/>
      <point x="272" y="-175"/>
      <point x="328" y="-175" type="curve" smooth="yes"/>
      <point x="345" y="-175"/>
      <point x="358" y="-174"/>
      <point x="372" y="-170" type="curve"/>
      <point x="365" y="-135"/>
      <point x="362" y="-99"/>
      <point x="362" y="-60" type="curve" smooth="yes"/>
      <point x="362" y="34" type="line"/>
      <point x="362" y="135"/>
      <point x="354" y="232"/>
      <point x="336" y="250" type="curve" smooth="yes"/>
      <point x="322" y="264"/>
      <point x="299" y="271"/>
      <point x="268" y="271" type="curve"/>
    </contour>
    <contour>
      <point x="218" y="533" type="curve"/>
      <point x="218" y="434" type="line" smooth="yes"/>
      <point x="218" y="386"/>
      <point x="263" y="371"/>
      <point x="318" y="371" type="curve" smooth="yes"/>
      <point x="341" y="371"/>
      <point x="364" y="374"/>
      <point x="382" y="381" type="curve"/>
      <point x="382" y="480" type="line" smooth="yes"/>
      <point x="382" y="528"/>
      <point x="337" y="543"/>
      <point x="282" y="543" type="curve" smooth="yes"/>
      <point x="259" y="543"/>
      <point x="236" y="539"/>
    </contour>
  </outline>
</glyph>
<glyph name="cent" format="1">
  <advance width="600"/>
  <unicode hex="00A2"/>
  <outline>
    <contour>
      <point x="359" y="401" type="line"/>
      <point x="404" y="694" type="line" smooth="yes"/>
      <point x="414" y="748"/>
      <point x="395" y="778"/>
      <point x="343" y="778" type="curve" smooth="yes"/>
      <point x="331" y="778"/>
      <point x="313" y="775"/>
      <point x="301" y="771" type="curve"/>
      <point x="310" y="745"/>
      <point x="313" y="720"/>
      <point x="313" y="678" type="curve"/>
      <point x="313" y="439" type="line" smooth="yes"/>
      <point x="313" y="415"/>
      <point x="333" y="401"/>
      <point x="355" y="401" type="curve" smooth="yes"/>
    </contour>
    <contour>
      <point x="311" y="293" type="line"/>
      <point x="267" y="0" type="line" smooth="yes"/>
      <point x="257" y="-54"/>
      <point x="276" y="-84"/>
      <point x="328" y="-84" type="curve" smooth="yes"/>
      <point x="340" y="-84"/>
      <point x="358" y="-81"/>
      <point x="369" y="-77" type="curve"/>
      <point x="361" y="-51"/>
      <point x="357" y="-26"/>
      <point x="357" y="16" type="curve"/>
      <point x="357" y="255" type="line" smooth="yes"/>
      <point x="357" y="279"/>
      <point x="338" y="293"/>
      <point x="315" y="293" type="curve" smooth="yes"/>
    </contour>
    <contour>
      <point x="349" y="627" type="curve" smooth="yes"/>
      <point x="183" y="627"/>
      <point x="63" y="511"/>
      <point x="63" y="317" type="curve" smooth="yes"/>
      <point x="63" y="304" type="line" smooth="yes"/>
      <point x="63" y="166"/>
      <point x="171" y="73"/>
      <point x="322" y="73" type="curve" smooth="yes"/>
      <point x="338" y="73"/>
      <point x="347" y="87"/>
      <point x="348" y="120" type="curve"/>
      <point x="205" y="150"/>
      <point x="162" y="221"/>
      <point x="162" y="305" type="curve" smooth="yes"/>
      <point x="162" y="317" type="line" smooth="yes"/>
      <point x="162" y="439"/>
      <point x="231" y="527"/>
      <point x="340" y="527" type="curve" smooth="yes"/>
      <point x="414" y="527"/>
      <point x="451" y="507"/>
      <point x="500" y="463" type="curve"/>
      <point x="504" y="463" type="line"/>
      <point x="510" y="480"/>
      <point x="513" y="496"/>
      <point x="513" y="517" type="curve" smooth="yes"/>
      <point x="513" y="547"/>
      <point x="508" y="569"/>
      <point x="493" y="584" type="curve" smooth="yes"/>
      <point x="466" y="611"/>
      <point x="417" y="627"/>
    </contour>
    <contour>
      <point x="150" y="258" type="curve"/>
      <point x="100" y="183"/>
      <point x="199" y="73"/>
      <point x="322" y="73" type="curve" smooth="yes"/>
      <point x="412" y="73"/>
      <point x="467" y="95"/>
      <point x="493" y="122" type="curve" smooth="yes"/>
      <point x="509" y="138"/>
      <point x="518" y="174"/>
      <point x="518" y="199" type="curve"/>
      <point x="518" y="214"/>
      <point x="517" y="223"/>
      <point x="515" y="232" type="curve"/>
      <point x="511" y="232" type="line"/>
      <point x="460" y="189"/>
      <point x="407" y="169"/>
      <point x="326" y="169" type="curve" smooth="yes"/>
      <point x="240" y="169"/>
      <point x="197" y="191"/>
    </contour>
  </outline>
</glyph>
<glyph name="sterling" format="1">
  <advance width="600"/>
  <unicode hex="00A3"/>
  <outline>
    <contour>
      <point x="321" y="621" type="curve" smooth="yes"/>
      <point x="412" y="621"/>
      <point x="472" y="598"/>
      <point x="520" y="538" type="curve"/>
      <point x="524" y="538" type="line"/>
      <point x="530" y="555"/>
      <point x="531" y="569"/>
      <point x="531" y="590" type="curve" smooth="yes"/>
      <point x="531" y="627"/>
      <point x="526" y="646"/>
      <point x="503" y="669" type="curve" smooth="yes"/>
      <point x="474" y="697"/>
      <point x="410" y="719"/>
      <point x="321" y="719" type="curve" smooth="yes"/>
      <point x="171" y="719"/>
      <point x="85" y="645"/>
      <point x="85" y="544" type="curve" smooth="yes"/>
      <point x="85" y="533" type="line" smooth="yes"/>
      <point x="85" y="499"/>
      <point x="118" y="490"/>
      <point x="170" y="487" type="curve"/>
      <point x="170" y="572"/>
      <point x="216" y="621"/>
    </contour>
    <contour>
      <point x="85" y="533" type="curve" smooth="yes"/>
      <point x="85" y="406"/>
      <point x="186" y="306"/>
      <point x="186" y="178" type="curve" smooth="yes"/>
      <point x="186" y="118"/>
      <point x="149" y="84"/>
      <point x="84" y="84" type="curve" smooth="yes"/>
      <point x="71" y="84"/>
      <point x="62" y="85"/>
      <point x="54" y="91" type="curve"/>
      <point x="50" y="91" type="line"/>
      <point x="46" y="77"/>
      <point x="45" y="68"/>
      <point x="45" y="53" type="curve" smooth="yes"/>
      <point x="45" y="8"/>
      <point x="62" y="-16"/>
      <point x="105" y="-16" type="curve" smooth="yes"/>
      <point x="111" y="-16" type="line" smooth="yes"/>
      <point x="211" y="-16"/>
      <point x="277" y="55"/>
      <point x="277" y="163" type="curve" smooth="yes"/>
      <point x="277" y="294"/>
      <point x="185" y="401"/>
      <point x="185" y="529" type="curve" smooth="yes"/>
      <point x="185" y="560"/>
      <point x="190" y="587"/>
      <point x="209" y="619" type="curve"/>
      <point x="124" y="619"/>
      <point x="85" y="582"/>
    </contour>
    <contour>
      <point x="203" y="84" type="curve"/>
      <point x="294" y="15"/>
      <point x="367" y="-16"/>
      <point x="457" y="-16" type="curve" smooth="yes"/>
      <point x="465" y="-16" type="line" smooth="yes"/>
      <point x="530" y="-16"/>
      <point x="557" y="19"/>
      <point x="557" y="77" type="curve"/>
      <point x="557" y="100"/>
      <point x="552" y="120"/>
      <point x="547" y="135" type="curve"/>
      <point x="543" y="135" type="line"/>
      <point x="520" y="102"/>
      <point x="494" y="88"/>
      <point x="444" y="88" type="curve" smooth="yes"/>
      <point x="373" y="88"/>
      <point x="310" y="107"/>
      <point x="223" y="152" type="curve"/>
      <point x="202" y="136"/>
      <point x="194" y="106"/>
    </contour>
    <contour>
      <point x="50" y="374" type="line"/>
      <point x="50" y="370"/>
      <point x="50" y="365"/>
      <point x="50" y="360" type="curve" smooth="yes"/>
      <point x="50" y="323"/>
      <point x="55" y="301"/>
      <point x="68" y="288" type="curve" smooth="yes"/>
      <point x="77" y="279"/>
      <point x="89" y="276"/>
      <point x="114" y="276" type="curve" smooth="yes"/>
      <point x="452" y="276" type="line"/>
      <point x="454" y="287"/>
      <point x="456" y="301"/>
      <point x="456" y="311" type="curve" smooth="yes"/>
      <point x="456" y="355"/>
      <point x="445" y="374"/>
      <point x="408" y="374" type="curve" smooth="yes"/>
    </contour>
  </outline>
</glyph>
<glyph name="currency" format="1">
  <advance width="600"/>
  <unicode hex="00A4"/>
  <outline>
    <contour>
      <point x="248" y="418" type="curve"/>
      <point x="222" y="439"/>
      <point x="198" y="463"/>
      <point x="177" y="490" type="curve" smooth="yes"/>
      <point x="167" y="502"/>
      <point x="156" y="508"/>
      <point x="146" y="508" type="curve" smooth="yes"/>
      <point x="133" y="508"/>
      <point x="118" y="500"/>
      <point x="103" y="484" type="curve" smooth="yes"/>
      <point x="96" y="477"/>
      <point x="87" y="466"/>
      <point x="80" y="457" type="curve"/>
      <point x="98" y="436"/>
      <point x="117" y="416"/>
      <point x="137" y="399" type="curve" smooth="yes"/>
      <point x="165" y="374"/>
      <point x="206" y="377"/>
      <point x="238" y="408" type="curve" smooth="yes"/>
      <point x="241" y="412"/>
      <point x="245" y="415"/>
    </contour>
    <contour>
      <point x="351" y="418" type="curve"/>
      <point x="354" y="415"/>
      <point x="358" y="411"/>
      <point x="361" y="408" type="curve" smooth="yes"/>
      <point x="393" y="376"/>
      <point x="428" y="370"/>
      <point x="460" y="396" type="curve" smooth="yes"/>
      <point x="480" y="414"/>
      <point x="500" y="434"/>
      <point x="519" y="456" type="curve"/>
      <point x="512" y="466"/>
      <point x="504" y="476"/>
      <point x="496" y="484" type="curve" smooth="yes"/>
      <point x="481" y="500"/>
      <point x="466" y="508"/>
      <point x="453" y="508" type="curve" smooth="yes"/>
      <point x="443" y="508"/>
      <point x="433" y="502"/>
      <point x="423" y="490" type="curve" smooth="yes"/>
      <point x="401" y="462"/>
      <point x="377" y="438"/>
    </contour>
    <contour>
      <point x="351" y="178" type="curve"/>
      <point x="376" y="157"/>
      <point x="400" y="133"/>
      <point x="422" y="107" type="curve" smooth="yes"/>
      <point x="432" y="94"/>
      <point x="442" y="88"/>
      <point x="452" y="88" type="curve" smooth="yes"/>
      <point x="466" y="88"/>
      <point x="480" y="97"/>
      <point x="496" y="112" type="curve" smooth="yes"/>
      <point x="503" y="120"/>
      <point x="511" y="130"/>
      <point x="518" y="140" type="curve"/>
      <point x="501" y="161"/>
      <point x="481" y="181"/>
      <point x="462" y="197" type="curve" smooth="yes"/>
      <point x="434" y="223"/>
      <point x="392" y="220"/>
      <point x="361" y="188" type="curve" smooth="yes"/>
      <point x="357" y="185"/>
      <point x="354" y="181"/>
    </contour>
    <contour>
      <point x="246" y="178" type="curve"/>
      <point x="243" y="181"/>
      <point x="239" y="185"/>
      <point x="236" y="188" type="curve" smooth="yes"/>
      <point x="204" y="220"/>
      <point x="169" y="226"/>
      <point x="137" y="200" type="curve" smooth="yes"/>
      <point x="117" y="182"/>
      <point x="97" y="162"/>
      <point x="78" y="140" type="curve"/>
      <point x="85" y="130"/>
      <point x="93" y="120"/>
      <point x="101" y="112" type="curve" smooth="yes"/>
      <point x="116" y="96"/>
      <point x="131" y="88"/>
      <point x="144" y="88" type="curve" smooth="yes"/>
      <point x="154" y="88"/>
      <point x="164" y="94"/>
      <point x="174" y="106" type="curve" smooth="yes"/>
      <point x="196" y="134"/>
      <point x="220" y="158"/>
    </contour>
    <contour>
      <point x="317" y="184" type="curve"/>
      <point x="249" y="184"/>
      <point x="208" y="226"/>
      <point x="208" y="293" type="curve" smooth="yes"/>
      <point x="208" y="300" type="line" smooth="yes"/>
      <point x="208" y="365"/>
      <point x="243" y="402"/>
      <point x="307" y="402" type="curve" smooth="yes"/>
      <point x="337" y="402"/>
      <point x="358" y="396"/>
      <point x="386" y="374" type="curve"/>
      <point x="404" y="419"/>
      <point x="364" y="474"/>
      <point x="302" y="474" type="curve"/>
      <point x="203" y="474"/>
      <point x="133" y="402"/>
      <point x="133" y="301" type="curve" smooth="yes"/>
      <point x="133" y="294" type="line" smooth="yes"/>
      <point x="133" y="196"/>
      <point x="202" y="130"/>
      <point x="296" y="130" type="curve"/>
      <point x="310" y="130"/>
      <point x="317" y="153"/>
    </contour>
    <contour>
      <point x="281" y="415" type="curve"/>
      <point x="349" y="415"/>
      <point x="390" y="374"/>
      <point x="390" y="310" type="curve" smooth="yes"/>
      <point x="390" y="303" type="line" smooth="yes"/>
      <point x="390" y="239"/>
      <point x="355" y="201"/>
      <point x="291" y="201" type="curve" smooth="yes"/>
      <point x="261" y="201"/>
      <point x="240" y="208"/>
      <point x="212" y="230" type="curve"/>
      <point x="194" y="184"/>
      <point x="234" y="130"/>
      <point x="296" y="130" type="curve"/>
      <point x="395" y="130"/>
      <point x="465" y="201"/>
      <point x="465" y="302" type="curve" smooth="yes"/>
      <point x="465" y="309" type="line" smooth="yes"/>
      <point x="465" y="408"/>
      <point x="396" y="474"/>
      <point x="302" y="474" type="curve"/>
      <point x="288" y="474"/>
      <point x="281" y="455"/>
    </contour>
  </outline>
</glyph>
<glyph name="brokenbar" format="1">
  <advance width="600"/>
  <unicode hex="00A6"/>
  <outline>
    <contour>
      <point x="238" y="759" type="curve"/>
      <point x="246" y="724"/>
      <point x="248" y="688"/>
      <point x="248" y="649" type="curve" smooth="yes"/>
      <point x="248" y="412" type="line" smooth="yes"/>
      <point x="248" y="381"/>
      <point x="277" y="368"/>
      <point x="329" y="368" type="curve" smooth="yes"/>
      <point x="338" y="368"/>
      <point x="346" y="369"/>
      <point x="352" y="370" type="curve"/>
      <point x="352" y="699" type="line" smooth="yes"/>
      <point x="352" y="723"/>
      <point x="349" y="738"/>
      <point x="337" y="749" type="curve" smooth="yes"/>
      <point x="327" y="760"/>
      <point x="311" y="764"/>
      <point x="280" y="764" type="curve" smooth="yes"/>
      <point x="264" y="764"/>
      <point x="253" y="762"/>
    </contour>
    <contour>
      <point x="248" y="229" type="curve"/>
      <point x="248" y="-118" type="line"/>
      <point x="248" y="-149"/>
      <point x="277" y="-162"/>
      <point x="329" y="-162" type="curve" smooth="yes"/>
      <point x="338" y="-162"/>
      <point x="346" y="-161"/>
      <point x="352" y="-160" type="curve"/>
      <point x="352" y="181" type="line" smooth="yes"/>
      <point x="352" y="218"/>
      <point x="334" y="234"/>
      <point x="284" y="234" type="curve" smooth="yes"/>
      <point x="270" y="234"/>
      <point x="258" y="232"/>
    </contour>
  </outline>
</glyph>
<glyph name="ordfeminine" format="1">
  <advance width="600"/>
  <unicode hex="00AA"/>
  <outline>
    <contour>
      <point x="287" y="759" type="curve" smooth="yes"/>
      <point x="217" y="759"/>
      <point x="165" y="749"/>
      <point x="146" y="730" type="curve" smooth="yes"/>
      <point x="134" y="719"/>
      <point x="129" y="702"/>
      <point x="129" y="680" type="curve" smooth="yes"/>
      <point x="129" y="670"/>
      <point x="130" y="661"/>
      <point x="133" y="652" type="curve"/>
      <point x="137" y="652" type="line"/>
      <point x="176" y="667"/>
      <point x="217" y="676"/>
      <point x="267" y="676" type="curve" smooth="yes"/>
      <point x="366" y="676"/>
      <point x="405" y="635"/>
      <point x="430" y="545" type="curve"/>
      <point x="456" y="545"/>
      <point x="468" y="556"/>
      <point x="468" y="579" type="curve"/>
      <point x="468" y="681"/>
      <point x="405" y="759"/>
    </contour>
    <contour>
      <point x="343" y="686" type="curve"/>
      <point x="372" y="651"/>
      <point x="381" y="629"/>
      <point x="381" y="578" type="curve" smooth="yes"/>
      <point x="381" y="507"/>
      <point x="381" y="469"/>
      <point x="381" y="415" type="curve" smooth="yes"/>
      <point x="381" y="347"/>
      <point x="427" y="327"/>
      <point x="480" y="342" type="curve"/>
      <point x="469" y="361"/>
      <point x="468" y="374"/>
      <point x="468" y="400" type="curve" smooth="yes"/>
      <point x="468" y="470"/>
      <point x="468" y="505"/>
      <point x="468" y="579" type="curve" smooth="yes"/>
      <point x="468" y="638"/>
      <point x="406" y="702"/>
    </contour>
    <contour>
      <point x="537" y="382" type="line"/>
      <point x="533" y="382" type="line"/>
      <point x="526" y="379"/>
      <point x="518" y="377"/>
      <point x="508" y="377" type="curve" smooth="yes"/>
      <point x="484" y="377"/>
      <point x="456" y="385"/>
      <point x="446" y="444" type="curve"/>
      <point x="399" y="445"/>
      <point x="381" y="437"/>
      <point x="381" y="415" type="curve" smooth="yes"/>
      <point x="381" y="342"/>
      <point x="426" y="291"/>
      <point x="489" y="291" type="curve" smooth="yes"/>
      <point x="492" y="291" type="line" smooth="yes"/>
      <point x="525" y="291"/>
      <point x="537" y="335"/>
      <point x="537" y="372" type="curve"/>
    </contour>
    <contour>
      <point x="188" y="425" type="curve" smooth="yes"/>
      <point x="188" y="434" type="line" smooth="yes"/>
      <point x="188" y="474"/>
      <point x="205" y="495"/>
      <point x="222" y="514" type="curve"/>
      <point x="170" y="529"/>
      <point x="101" y="469"/>
      <point x="101" y="426" type="curve" smooth="yes"/>
      <point x="101" y="413" type="line" smooth="yes"/>
      <point x="101" y="335"/>
      <point x="148" y="291"/>
      <point x="230" y="291" type="curve" smooth="yes"/>
      <point x="304" y="291"/>
      <point x="362" y="330"/>
      <point x="397" y="388" type="curve" smooth="yes"/>
      <point x="412" y="412"/>
      <point x="408" y="432"/>
      <point x="403" y="459" type="curve"/>
      <point x="349" y="394"/>
      <point x="298" y="370"/>
      <point x="254" y="370" type="curve" smooth="yes"/>
      <point x="251" y="370" type="line" smooth="yes"/>
      <point x="206" y="370"/>
      <point x="188" y="387"/>
    </contour>
    <contour>
      <point x="409" y="532" type="curve" smooth="yes"/>
      <point x="394" y="548"/>
      <point x="340" y="561"/>
      <point x="253" y="561" type="curve" smooth="yes"/>
      <point x="160" y="561"/>
      <point x="101" y="499"/>
      <point x="101" y="426" type="curve" smooth="yes"/>
      <point x="101" y="408"/>
      <point x="111" y="398"/>
      <point x="135" y="398" type="curve"/>
      <point x="161" y="466"/>
      <point x="203" y="497"/>
      <point x="282" y="497" type="curve" smooth="yes"/>
      <point x="326" y="497"/>
      <point x="376" y="492"/>
      <point x="424" y="480" type="curve"/>
      <point x="424" y="507"/>
      <point x="419" y="523"/>
    </contour>
  </outline>
</glyph>
<glyph name="logicalnot" format="1">
  <advance width="600"/>
  <unicode hex="00AC"/>
  <outline>
    <contour>
      <point x="59" y="432" type="line"/>
      <point x="59" y="427"/>
      <point x="59" y="422"/>
      <point x="59" y="417" type="curve" smooth="yes"/>
      <point x="59" y="384"/>
      <point x="65" y="366"/>
      <point x="78" y="353" type="curve" smooth="yes"/>
      <point x="86" y="344"/>
      <point x="98" y="341"/>
      <point x="123" y="341" type="curve"/>
      <point x="532" y="341" type="line"/>
      <point x="532" y="349" type="line"/>
      <point x="532" y="404"/>
      <point x="519" y="432"/>
      <point x="485" y="432" type="curve"/>
    </contour>
    <contour>
      <point x="532" y="137" type="curve"/>
      <point x="532" y="349" type="line" smooth="yes"/>
      <point x="532" y="373"/>
      <point x="499" y="379"/>
      <point x="445" y="379" type="curve"/>
      <point x="433" y="379" type="line"/>
      <point x="433" y="176" type="line" smooth="yes"/>
      <point x="433" y="141"/>
      <point x="460" y="135"/>
      <point x="498" y="135" type="curve" smooth="yes"/>
      <point x="511" y="135"/>
      <point x="523" y="136"/>
    </contour>
  </outline>
</glyph>
<glyph name="uni00AD" format="1">
  <advance width="600"/>
  <unicode hex="00AD"/>
  <outline>
    <contour>
      <point x="105" y="349" type="line"/>
      <point x="105" y="344"/>
      <point x="105" y="339"/>
      <point x="105" y="334" type="curve" smooth="yes"/>
      <point x="105" y="297"/>
      <point x="111" y="275"/>
      <point x="123" y="263" type="curve" smooth="yes"/>
      <point x="132" y="254"/>
      <point x="144" y="250"/>
      <point x="169" y="250" type="curve"/>
      <point x="497" y="250" type="line"/>
      <point x="499" y="262"/>
      <point x="501" y="275"/>
      <point x="501" y="286" type="curve" smooth="yes"/>
      <point x="501" y="329"/>
      <point x="490" y="349"/>
      <point x="453" y="349" type="curve"/>
    </contour>
  </outline>
</glyph>
<glyph name="registered" format="1">
  <advance width="600"/>
  <unicode hex="00AE"/>
  <outline>
    <contour>
      <point x="261" y="329" type="curve"/>
      <point x="256" y="354"/>
      <point x="254" y="376"/>
      <point x="254" y="403" type="curve"/>
      <point x="254" y="535" type="line"/>
      <point x="254" y="578"/>
      <point x="237" y="595"/>
      <point x="193" y="595" type="curve"/>
      <point x="193" y="373" type="line" smooth="yes"/>
      <point x="193" y="344"/>
      <point x="207" y="325"/>
      <point x="235" y="325" type="curve" smooth="yes"/>
      <point x="244" y="325"/>
      <point x="252" y="325"/>
    </contour>
    <contour>
      <point x="171" y="628" type="curve"/>
      <point x="168" y="621"/>
      <point x="166" y="613"/>
      <point x="166" y="601" type="curve"/>
      <point x="166" y="582"/>
      <point x="172" y="571"/>
      <point x="182" y="571" type="curve"/>
      <point x="186" y="571"/>
      <point x="190" y="572"/>
      <point x="197" y="573" type="curve" smooth="yes"/>
      <point x="225" y="578"/>
      <point x="265" y="583"/>
      <point x="293" y="583" type="curve" smooth="yes"/>
      <point x="340" y="583"/>
      <point x="361" y="577"/>
      <point x="383" y="557" type="curve"/>
      <point x="414" y="590"/>
      <point x="362" y="640"/>
      <point x="310" y="640" type="curve" smooth="yes"/>
      <point x="269" y="640"/>
      <point x="224" y="637"/>
    </contour>
    <contour>
      <point x="424" y="543" type="curve" smooth="yes"/>
      <point x="424" y="552" type="line" smooth="yes"/>
      <point x="424" y="599"/>
      <point x="386" y="640"/>
      <point x="310" y="640" type="curve"/>
      <point x="287" y="640"/>
      <point x="270" y="625"/>
      <point x="270" y="598" type="curve"/>
      <point x="343" y="598"/>
      <point x="363" y="587"/>
      <point x="363" y="547" type="curve" smooth="yes"/>
      <point x="363" y="540" type="line" smooth="yes"/>
      <point x="363" y="502"/>
      <point x="318" y="476"/>
      <point x="242" y="476" type="curve" smooth="yes"/>
      <point x="225" y="476"/>
      <point x="221" y="476"/>
      <point x="217" y="476" type="curve"/>
      <point x="214" y="471"/>
      <point x="214" y="468"/>
      <point x="214" y="459" type="curve" smooth="yes"/>
      <point x="214" y="445"/>
      <point x="224" y="422"/>
      <point x="242" y="422" type="curve" smooth="yes"/>
      <point x="244" y="422" type="line" smooth="yes"/>
      <point x="339" y="422"/>
      <point x="424" y="469"/>
    </contour>
    <contour>
      <point x="352" y="481" type="line"/>
      <point x="329" y="474"/>
      <point x="301" y="454"/>
      <point x="307" y="439" type="curve" smooth="yes"/>
      <point x="331" y="372" type="line" smooth="yes"/>
      <point x="343" y="341"/>
      <point x="364" y="325"/>
      <point x="387" y="325" type="curve" smooth="yes"/>
      <point x="391" y="325" type="line" smooth="yes"/>
      <point x="414" y="325"/>
      <point x="425" y="338"/>
      <point x="425" y="363" type="curve"/>
      <point x="425" y="375"/>
      <point x="424" y="383"/>
      <point x="421" y="390" type="curve"/>
      <point x="419" y="390" type="line"/>
      <point x="414" y="386"/>
      <point x="408" y="384"/>
      <point x="400" y="384" type="curve"/>
      <point x="391" y="384"/>
      <point x="386" y="389"/>
      <point x="375" y="418" type="curve" smooth="yes"/>
    </contour>
    <contour>
      <point x="300" y="760" type="curve" smooth="yes"/>
      <point x="137" y="760"/>
      <point x="43" y="665"/>
      <point x="43" y="490" type="curve" smooth="yes"/>
      <point x="43" y="474" type="line" smooth="yes"/>
      <point x="43" y="295"/>
      <point x="134" y="201"/>
      <point x="300" y="201" type="curve" smooth="yes"/>
      <point x="329" y="201"/>
      <point x="338" y="219"/>
      <point x="338" y="236" type="curve"/>
      <point x="186" y="236"/>
      <point x="92" y="307"/>
      <point x="92" y="461" type="curve" smooth="yes"/>
      <point x="92" y="499" type="line" smooth="yes"/>
      <point x="92" y="641"/>
      <point x="169" y="711"/>
      <point x="300" y="711" type="curve" smooth="yes"/>
      <point x="365" y="711"/>
      <point x="423" y="689"/>
      <point x="474" y="652" type="curve"/>
      <point x="502" y="697"/>
      <point x="382" y="760"/>
    </contour>
    <contour>
      <point x="300" y="201" type="curve" smooth="yes"/>
      <point x="464" y="201"/>
      <point x="557" y="295"/>
      <point x="557" y="468" type="curve" smooth="yes"/>
      <point x="557" y="484" type="line" smooth="yes"/>
      <point x="557" y="666"/>
      <point x="466" y="760"/>
      <point x="300" y="760" type="curve" smooth="yes"/>
      <point x="271" y="760"/>
      <point x="262" y="742"/>
      <point x="262" y="725" type="curve"/>
      <point x="414" y="725"/>
      <point x="508" y="654"/>
      <point x="508" y="498" type="curve" smooth="yes"/>
      <point x="508" y="460" type="line" smooth="yes"/>
      <point x="508" y="319"/>
      <point x="431" y="250"/>
      <point x="300" y="250" type="curve" smooth="yes"/>
      <point x="235" y="250"/>
      <point x="176" y="271"/>
      <point x="126" y="309" type="curve"/>
      <point x="102" y="262"/>
      <point x="218" y="201"/>
    </contour>
  </outline>
</glyph>
<glyph name="macron" format="1">
  <advance width="600"/>
  <unicode hex="00AF"/>
  <outline>
    <contour>
      <point x="103" y="735" type="line"/>
      <point x="103" y="730"/>
      <point x="103" y="725"/>
      <point x="103" y="720" type="curve" smooth="yes"/>
      <point x="103" y="672"/>
      <point x="117" y="651"/>
      <point x="186" y="651" type="curve"/>
      <point x="494" y="651" type="line"/>
      <point x="496" y="659"/>
      <point x="498" y="671"/>
      <point x="498" y="682" type="curve" smooth="yes"/>
      <point x="498" y="717"/>
      <point x="487" y="735"/>
      <point x="451" y="735" type="curve"/>
    </contour>
  </outline>
</glyph>
